<?xml version="1.0" encoding="UTF-8" standalone="no"?><!DOCTYPE svg PUBLIC "-//W3C//DTD SVG 1.1//EN" "http://www.w3.org/Graphics/SVG/1.1/DTD/svg11.dtd"><svg width="100%" height="100%" viewBox="0 0 7138 4863" version="1.1" xmlns="http://www.w3.org/2000/svg" xmlns:xlink="http://www.w3.org/1999/xlink" xml:space="preserve" xmlns:serif="http://www.serif.com/" style="fill-rule:evenodd;clip-rule:evenodd;stroke-linejoin:round;stroke-miterlimit:2;"><rect id="Full-Logo" serif:id="Full Logo" x="2.997" y="0" width="7134.42" height="4861.12" style="fill:none;"/><g><path d="M813.547,1468.03c-5.853,21.323 -16.07,101.203 -20.696,198.231c-2.939,61.651 -4.065,130.323 0.038,194.947c1.541,32.48 1.92,80.641 0.531,133.87c-3.115,119.402 -12.47,263.651 -11.133,318.895c0.942,20.39 18.261,36.18 38.651,35.239c20.391,-0.942 36.181,-18.261 35.239,-38.652c-1.435,-19.595 -2.35,-50.83 -2.679,-88.287c-0.559,-63.556 -0.393,-144.448 -0.044,-217.23c0.279,-58.335 0.918,-111.502 -0.852,-146.728c-2.085,-62.347 0.601,-128.475 5.63,-187.722c7.555,-89.015 19.955,-162.062 26.197,-181.416c5.835,-19.561 -5.307,-40.179 -24.868,-46.014c-19.56,-5.836 -40.178,5.307 -46.014,24.867Z" style="fill:#646464;"/><path d="M6496.03,1489.36c70.029,-0.766 74.47,-111.628 4.867,-119.244c-41.982,-4.594 -131.756,-2.793 -255.052,-5.092c-344.734,-6.429 -953.468,-14.894 -1528.43,-15.216c-213.655,-0.12 -422.62,0.68 -611.672,3.178c-151.487,2.001 -290.211,4.598 -408.322,9.664c-76.182,2.972 -294.011,5.868 -578.212,6.758c-835.879,2.617 -2242.99,-6.011 -2323.73,1.924c-33.155,3.589 -57.144,33.274 -53.536,66.249c3.609,32.975 33.456,56.833 66.611,53.245c30.815,-3.699 258.225,-9.568 573.306,-15.995c397.006,-8.098 931.654,-17.729 1390.42,-25.156c447.521,-7.246 822.862,-12.327 928.176,-17.444c117.441,-5.119 255.37,-8.742 406.012,-9.885c188.615,-1.431 397.103,0.262 610.218,4.114c574.082,10.375 1181.6,35.016 1525.57,50.426c122.699,5.496 211.708,12.934 253.772,12.474Z" style="fill:#646464;"/><path d="M3788.31,626.287c3.326,37.522 6.971,71.891 6.232,108.667c-0.633,31.519 -4.382,64.846 -14.36,103.712c-17.502,67.512 -34.596,139.38 -50.709,207.364c-39.692,167.469 -71.319,311.668 -71.319,311.668c-0.345,1.544 -0.551,3.115 -0.616,4.696c0,-0 -6.825,138.787 -12.962,313.865c-2.332,66.524 -5.078,138.185 -6.488,209.577c0.144,20.412 16.832,36.867 37.243,36.724c20.412,-0.143 36.867,-16.831 36.724,-37.243c-2.957,-89.939 -4.889,-180.442 -5.018,-260.279c-0.22,-136.441 3.076,-241.424 3.632,-258.123c3.878,-17.123 28.369,-124.509 62.064,-255.397c20.956,-81.403 45.861,-171.761 70.422,-255.436c13.103,-44.172 18.737,-82.263 20.849,-118.401c2.297,-39.298 0.071,-76.203 -1.899,-116.468c-1.4,-20.364 -19.07,-35.76 -39.434,-34.36c-20.364,1.4 -35.761,19.07 -34.361,39.434Z" style="fill:#646464;"/><path d="M3957.83,732.43c50.637,-7.072 309.585,-20.459 631.621,-30.152c134.053,-4.035 278.914,-7.452 424.259,-9.218c56.713,-0.69 113.499,-1.013 169.731,-0.799c86.943,0.33 172.546,1.592 254.557,3.435c290.132,6.522 534.68,18.68 632.16,30.704c24.97,2.452 47.233,-15.829 49.685,-40.799c2.452,-24.97 -15.83,-47.233 -40.8,-49.685c-44.831,-3.125 -119.703,-4.204 -215.442,-4.185c-124.568,0.024 -284.655,2.846 -459.392,5.234c-98.593,1.348 -201.804,2.85 -305.851,3.243c-155.342,0.586 -312.478,-0.447 -458.754,-0.992c-350.111,-1.304 -638.121,-2.296 -692.397,2.917c-24.919,2.931 -42.769,25.542 -39.837,50.46c2.931,24.918 25.542,42.768 50.46,39.837Z" style="fill:#646464;"/><path d="M6128.64,628.425c10.18,59.549 33.131,128.365 61.576,202.328c15.849,41.211 33.342,83.968 51.043,127.618c11.32,27.916 22.892,56.1 33.679,84.597c16.178,42.74 31.292,85.869 44.742,128.337c26.072,82.318 45.001,161.953 52.277,231.67c3.054,20.182 21.918,34.088 42.101,31.035c20.182,-3.054 34.089,-21.919 31.035,-42.101c-12.411,-61.765 -35.623,-129.682 -62.722,-200.978c-15.89,-41.802 -33.197,-84.622 -50.247,-127.976c-11.105,-28.238 -21.955,-56.733 -32.423,-85.159c-15.971,-43.372 -30.958,-86.575 -44.473,-128.539c-27.299,-84.762 -47.559,-164.22 -53.213,-230.181c-2.58,-20.249 -21.114,-34.594 -41.362,-32.013c-20.249,2.58 -34.593,21.113 -32.013,41.362Z" style="fill:#646464;"/><path d="M6015.05,504.287c-0.517,36.247 0.893,81.673 2.072,127.9c0.73,28.606 1.667,57.492 1.898,84.621c0.662,77.86 -0.454,141.069 -0.454,141.069c0.649,16.785 14.803,29.886 31.588,29.237c16.785,-0.649 29.885,-14.803 29.236,-31.588c0,-0 -4.076,-44.469 -6.916,-104.776c-1.024,-21.725 -1.922,-45.499 -2.105,-69.963c-0.453,-60.782 2.17,-125.713 5.493,-173.845c0.733,-16.781 -12.297,-31.001 -29.078,-31.734c-16.782,-0.732 -31.001,12.297 -31.734,29.079Z" style="fill:#646464;"/><path d="M4029.2,504.287c-0.545,36.547 0.888,83.118 2.096,130.708c0.741,29.176 1.691,58.711 1.931,86.476c0.685,79.396 -0.434,144.156 -0.434,144.156c0.633,16.785 14.775,29.899 31.56,29.266c16.786,-0.633 29.9,-14.775 29.266,-31.561c0,0 -4.076,-45.562 -6.928,-107.131c-1.03,-22.232 -1.935,-46.545 -2.127,-71.527c-0.48,-62.6 2.13,-129.291 5.448,-177.732c0.733,-16.781 -12.297,-31.001 -29.078,-31.734c-16.782,-0.732 -31.001,12.297 -31.734,29.079Z" style="fill:#646464;"/><path d="M1022.92,1656.2c0,0 -3.804,84.774 -5.768,176.726c-0.86,40.232 -1.623,81.804 -1.029,118.308l6.735,434.74c0.779,17.812 15.872,31.64 33.684,30.861c17.812,-0.778 31.641,-15.872 30.862,-33.684c-0,0 -9.613,-131.917 -15.219,-259.356c-2.847,-64.726 -4.181,-128.283 -4.421,-172.561c0.767,-44.718 3.331,-97.148 6.722,-145.017c5.58,-78.758 12.856,-145.121 12.856,-145.121c1.351,-17.777 -11.985,-33.307 -29.763,-34.658c-17.778,-1.352 -33.308,11.985 -34.659,29.762Z" style="fill:#5db4a6;"/><path d="M1940.29,1659.52c-0,0 -2.573,83.594 -3.765,174.809c-0.518,39.612 -1.025,80.629 -0.43,116.9l6.756,434.74c0.779,17.812 15.873,31.64 33.684,30.861c17.812,-0.778 31.641,-15.872 30.862,-33.684c0,0 -9.643,-131.915 -15.239,-259.355c-2.842,-64.726 -4.151,-128.284 -4.38,-172.562c0.773,-44.62 2.958,-96.502 5.879,-143.804c4.833,-78.248 11.116,-143.901 11.116,-143.901c1.105,-17.795 -12.445,-33.139 -30.24,-34.244c-17.794,-1.105 -33.138,12.445 -34.243,30.24Z" style="fill:#5db4a6;"/><path d="M2828.71,1632.12c0,0 -1.839,93.76 -2.84,191.239c-0.46,44.748 -1.011,90.251 -0.462,127.878l6.622,434.74c0.779,17.812 15.872,31.64 33.684,30.861c17.812,-0.778 31.641,-15.872 30.862,-33.684c-0,0 -9.392,-131.928 -15.059,-259.361c-2.879,-64.726 -4.385,-128.277 -4.695,-172.556c0.709,-46.108 2.816,-104.161 5.747,-157.853c4.61,-84.449 10.669,-158.058 10.669,-158.058c0.885,-17.807 -12.854,-32.982 -30.661,-33.867c-17.807,-0.884 -32.982,12.854 -33.867,30.661Z" style="fill:#5db4a6;"/><path d="M3965.41,1632.53l-1.554,318.705l6.622,434.74c0.779,17.812 15.872,31.64 33.684,30.861c17.812,-0.778 31.64,-15.872 30.862,-33.684c-0,0 -9.394,-131.928 -15.061,-259.361c-2.878,-64.726 -4.383,-128.277 -4.692,-172.556c0.71,-46.143 2.554,-104.221 5.167,-157.94c4.11,-84.48 9.525,-158.12 9.525,-158.12c0.73,-17.814 -13.14,-32.869 -30.954,-33.599c-17.814,-0.73 -32.869,13.141 -33.599,30.954Z" style="fill:#5db4a6;"/><path d="M5428.31,1634.79l-0.535,316.439l6.627,434.74c0.779,17.812 15.873,31.64 33.684,30.861c17.812,-0.778 31.641,-15.872 30.862,-33.684c0,0 -9.409,-131.927 -15.073,-259.36c-2.876,-64.727 -4.37,-128.278 -4.675,-172.557c0.565,-36.361 2.482,-97.976 5.175,-157.04c3.699,-81.138 8.512,-157.394 8.512,-157.394c0.553,-17.82 -13.465,-32.737 -31.286,-33.291c-17.82,-0.553 -32.737,13.465 -33.291,31.286Z" style="fill:#5db4a6;"/><path d="M4935.26,1621.56l3.94,111.876c0.032,15.121 0.941,35.34 1.1,56.968c0.448,60.572 -0.7,132.063 -0.7,132.063c0.669,15.295 13.629,27.169 28.923,26.5c15.295,-0.668 27.169,-13.629 26.5,-28.923c0,-0 -6.095,-56.948 -9.142,-112.156c-1.54,-27.911 -1.792,-55.348 -1.89,-74.452c0.537,-14.627 1.084,-29.873 1.907,-44.225c2.073,-36.126 4.823,-66.354 4.823,-66.354c0.358,-15.305 -11.777,-28.021 -27.082,-28.379c-15.305,-0.358 -28.021,11.777 -28.379,27.082Z" style="fill:#5db4a6;"/><path d="M6371.55,1432.13c1.219,25.522 2.329,113.639 2.361,225.718c0.02,69.641 0.073,148.445 -1.025,227.256c-0.864,62.113 -2.491,124.214 -4.094,181.835c-3.748,134.736 -7.781,245.114 -6.84,275.056c1.059,20.385 18.469,36.075 38.854,35.016c20.384,-1.059 36.074,-18.468 35.016,-38.853c-2.534,-35.888 -5.465,-189.81 -4.089,-361.226c0.579,-72.118 2.478,-147.287 4.381,-218.116c4.265,-158.7 9.726,-295.66 9.376,-328.781c-0.579,-20.404 -17.613,-36.5 -38.017,-35.922c-20.405,0.578 -36.501,17.613 -35.923,38.017Z" style="fill:#646464;"/><path d="M501.179,2446.33c-0,0 808.744,-10.196 1838.83,-18.233c387.731,-3.025 806.793,-5.722 1225.88,-6.975c164.077,-0.49 328.157,-0.607 490.353,-0.142c252.081,0.722 499.603,2.374 735.527,4.426c1030.11,8.96 1838.83,20.924 1838.83,20.924c33.17,0 60.1,-26.93 60.1,-60.1c-0,-33.169 -26.93,-60.099 -60.1,-60.099c0,-0 -808.72,11.964 -1838.83,20.924c-235.925,2.052 -483.448,3.704 -735.53,4.426c-162.195,0.465 -326.273,0.348 -490.35,-0.142c-419.086,-1.253 -838.148,-3.95 -1225.88,-6.975c-1030.08,-8.037 -1838.83,-18.233 -1838.83,-18.233c-33.17,-0 -60.1,26.93 -60.1,60.099c-0,33.17 26.93,60.1 60.1,60.1Z" style="fill:#646464;"/><g><path d="M786.202,3506.02c-65.833,-0 -124.637,-14.401 -176.412,-43.203c-51.774,-28.802 -92.406,-68.062 -121.893,-117.779c-29.488,-49.718 -44.232,-106.464 -44.232,-170.239c0,-52.804 9.43,-101.493 28.288,-146.067c18.858,-44.574 45.26,-83.491 79.205,-116.75c33.945,-33.26 72.862,-59.147 116.75,-77.662c43.889,-18.516 91.206,-27.774 141.952,-27.774c35.66,0 66.176,2.058 91.549,6.172c25.373,4.115 48.003,9.944 67.89,17.487c19.887,7.543 39.774,16.115 59.661,25.716l5.143,169.725l-16.458,0l-66.861,-115.207c-28.802,-19.887 -53.318,-33.602 -73.548,-41.146c-20.23,-7.543 -43.374,-11.315 -69.433,-11.315c-52.803,0 -99.778,11.487 -140.923,34.46c-41.146,22.972 -73.376,54.517 -96.692,94.634c-23.316,40.117 -34.974,85.549 -34.974,136.295c0,68.575 12.515,126.865 37.545,174.868c25.031,48.003 58.804,84.691 101.321,110.064c42.517,25.373 89.834,38.06 141.952,38.06c22.63,-0 44.403,-1.372 65.319,-4.115c20.915,-2.743 42.688,-8.572 65.318,-17.487l-0,-169.725l-91.549,-41.145l0,-16.458l255.102,-0l0,16.458l-70.976,44.231l0,161.496c-31.545,26.059 -70.461,46.975 -116.75,62.747c-46.289,15.772 -91.72,23.659 -136.294,23.659Z" style="fill:#646464;fill-rule:nonzero;"/><path d="M786.202,3512.09c23.155,-0.105 46.528,-2.301 70.121,-6.601c22.445,-4.091 45.089,-10.078 67.93,-17.976c22.333,-7.722 42.96,-16.621 61.882,-26.7c20.785,-11.072 39.518,-23.559 56.2,-37.466c1.115,-0.921 1.761,-2.292 1.761,-3.739l-0.693,-159.211c-0,0 68.844,-43.267 68.844,-43.267c1.122,-0.699 1.803,-1.928 1.803,-3.249l-0.062,-16.458c-0,-2.08 -1.686,-3.766 -3.766,-3.766l-255.102,0.91c-1.577,0 -2.855,1.279 -2.855,2.856l0.047,16.458c-0,1.105 0.649,2.108 1.657,2.561l90.142,40.243c-0,0 -0.055,166.276 -0.055,166.276c-10.258,3.941 -20.335,7.242 -30.232,9.903c-11.178,3.005 -22.125,5.192 -32.842,6.561c-10.583,1.351 -21.384,2.352 -32.405,2.993c-10.644,0.62 -21.492,0.903 -32.545,0.86c-25.416,-0.115 -49.664,-3.276 -72.743,-9.484c-23.66,-6.365 -46.088,-15.94 -67.286,-28.722c-21.37,-12.886 -40.469,-28.681 -57.301,-47.383c-16.07,-17.855 -30.065,-38.363 -42.002,-61.515c-12.971,-25.159 -22.444,-53.159 -28.446,-83.994c-5.328,-27.377 -7.909,-56.984 -7.762,-88.819c0.097,-24.314 2.918,-47.371 8.454,-69.178c5.78,-22.769 14.532,-44.168 26.267,-64.196c11.47,-19.652 25.139,-37.179 40.981,-52.612c15.717,-15.311 33.576,-28.559 53.6,-39.724c20.693,-11.6 42.905,-20.21 66.626,-25.874c22.443,-5.359 46.235,-8.09 71.383,-8.162c12.105,-0.036 23.568,0.763 34.39,2.393c11.822,1.782 22.877,4.549 33.157,8.336c9.094,3.35 19.074,7.972 29.945,13.859c12.699,6.878 26.595,15.467 41.689,25.765c0.005,0.004 66.738,113.949 66.738,113.949c0.811,1.398 2.306,2.259 3.923,2.259l16.458,-0.065c1.209,-0 2.367,-0.49 3.209,-1.358c0.842,-0.868 1.296,-2.04 1.26,-3.248l-5.816,-169.705c-0.043,-1.415 -0.87,-2.689 -2.145,-3.305c-9.917,-4.739 -19.833,-9.225 -29.748,-13.457c-10.104,-4.313 -20.207,-8.363 -30.309,-12.149c-10.547,-3.96 -21.854,-7.443 -33.92,-10.45c-10.939,-2.726 -22.503,-5.064 -34.693,-7.005c-13.818,-2.199 -29.146,-3.785 -45.986,-4.771c-14.276,-0.837 -29.64,-1.246 -46.095,-1.21c-25.158,0.024 -49.474,2.329 -72.96,6.844c-24.283,4.668 -47.685,11.703 -70.192,21.173c-22.127,9.297 -43.001,20.459 -62.635,33.466c-19.664,13.028 -38.085,27.907 -55.25,44.656c-17.26,16.827 -32.594,35.104 -46.021,54.82c-13.305,19.537 -24.734,40.489 -34.278,62.863c-9.814,23.007 -17.137,47.109 -21.975,72.305c-4.622,24.071 -6.971,49.142 -7.048,75.213c-0.101,31.433 3.359,61.188 10.341,89.271c7.375,29.664 18.69,57.464 33.947,83.404c14.976,25.463 32.835,48.241 53.563,68.345c20.467,19.852 43.738,37.09 69.812,51.72c26.99,15.144 55.883,26.424 86.675,33.852c29.089,7.017 59.876,10.586 92.363,10.705Zm-0,-12.153c-31.529,0.116 -61.433,-3.117 -89.713,-9.719c-29.834,-6.966 -57.859,-17.672 -84.072,-32.129c-25.364,-13.988 -48.035,-30.52 -68.005,-49.608c-20.238,-19.345 -37.707,-41.306 -52.407,-65.885c-14.992,-25.068 -26.176,-51.969 -33.532,-80.709c-7.005,-27.372 -10.545,-56.404 -10.644,-87.094c-0.075,-25.55 2.079,-50.133 6.47,-73.749c4.588,-24.679 11.614,-48.301 21.083,-70.867c9.227,-21.99 20.301,-42.601 33.24,-61.824c13.064,-19.41 28.025,-37.405 44.871,-53.994c16.801,-16.53 34.833,-31.24 54.113,-44.111c19.263,-12.859 39.768,-23.884 61.502,-33.09c22.097,-9.348 45.07,-16.349 68.931,-20.936c23.116,-4.444 47.06,-6.618 71.821,-6.594c16.318,0.035 31.554,0.495 45.706,1.397c16.598,1.056 31.701,2.717 45.311,4.965c11.979,1.978 23.339,4.338 34.081,7.087c11.774,3.012 22.802,6.492 33.086,10.432c9.972,3.827 19.942,7.916 29.912,12.266c9.091,3.965 18.18,8.148 27.268,12.547c0.001,0 4.289,162.829 4.289,162.829c-0,0 -9.238,-0.036 -9.238,-0.036c-0,-0 -65.113,-113.223 -65.113,-113.223c-0.374,-0.646 -0.887,-1.201 -1.502,-1.625c-15.697,-10.931 -30.137,-20.027 -43.315,-27.3c-11.326,-6.25 -21.736,-11.156 -31.223,-14.736c-10.918,-4.121 -22.663,-7.182 -35.241,-9.167c-11.346,-1.79 -23.373,-2.697 -36.078,-2.735c-26.081,-0.075 -50.775,2.605 -74.075,8.056c-24.833,5.81 -48.082,14.771 -69.762,26.827c-20.953,11.715 -39.652,25.595 -56.069,41.666c-16.557,16.207 -30.795,34.637 -42.735,55.267c-12.127,21.036 -21.14,43.48 -27.007,67.342c-5.577,22.678 -8.32,46.636 -8.219,71.874c0.15,32.545 3.078,62.784 8.783,90.721c6.472,31.689 16.505,60.422 30.099,86.202c12.506,23.716 27.111,44.687 43.819,62.913c17.531,19.124 37.367,35.233 59.521,48.318c21.896,12.932 45.023,22.562 69.388,28.878c23.662,6.135 48.49,9.152 74.486,9.034c11.179,-0.043 22.148,-0.421 32.909,-1.125c11.15,-0.73 22.077,-1.81 32.779,-3.25c10.948,-1.474 22.127,-3.783 33.536,-6.931c10.591,-2.923 21.382,-6.568 32.371,-10.938c0.999,-0.394 1.655,-1.358 1.655,-2.432l-0.055,-169.725c-0,-1.007 -0.591,-1.92 -1.51,-2.333l-89.783,-40.622c-0,0 0.034,-11.783 0.034,-11.783c-0.001,0 248.475,0.887 248.475,0.887c-0,-0.001 -0.041,10.566 -0.041,10.566c0,0 -69.349,42.852 -69.349,42.852c-1.215,0.757 -1.953,2.088 -1.953,3.519l-0.693,159.179c-15.853,12.769 -33.545,24.234 -53.072,34.411c-18.545,9.665 -38.745,18.159 -60.596,25.495c-22.354,7.505 -44.498,13.153 -66.431,16.947c-22.933,3.966 -45.635,5.895 -68.106,5.793Z" style="fill:#646464;"/><path d="M1192.51,3495.73l0,-16.458l82.291,-41.145l0,-563.694l-82.291,-41.145l0,-16.458l265.389,-0c72.004,-0 128.751,14.915 170.239,44.745c41.489,29.831 62.233,70.805 62.233,122.923c-0,38.402 -13.03,72.861 -39.088,103.378c-26.059,30.516 -60.69,53.66 -103.893,69.433l195.441,284.932l67.89,37.031l0,16.458l-148.123,0l-199.556,-311.677l-95.663,0l-0,253.045l77.147,42.174l0,16.458l-252.016,0Zm241.73,-622.325l-66.861,-0l-0,254.073l73.033,0c43.203,0 79.034,-12.172 107.492,-36.516c28.459,-24.345 42.689,-55.375 42.689,-93.092c-0,-38.403 -14.058,-68.747 -42.174,-91.034c-28.116,-22.288 -66.176,-33.431 -114.179,-33.431Z" style="fill:#646464;fill-rule:nonzero;"/><path d="M1186.44,3495.73c-0,3.356 2.72,6.077 6.076,6.077l252.016,-1.365c2.603,0 4.712,-2.109 4.712,-4.712l-0.089,-16.458c0,-1.69 -0.922,-3.245 -2.405,-4.056l-75.209,-40.61c-0,-0 -1.125,-247.546 -1.125,-247.546c-0,0 91.171,-0.313 91.171,-0.313c5.663,8.768 40.466,62.677 79.17,123.33c55.432,86.867 118.939,187.515 118.939,187.515c0.635,0.991 1.731,1.59 2.908,1.59l148.123,0.811c2.355,0 4.263,-1.908 4.263,-4.263l0.091,-16.458c0,-1.593 -0.87,-3.059 -2.269,-3.822l-66.656,-36.839c-6.633,-9.809 -64.78,-95.773 -115.792,-170.616c-32.963,-48.363 -62.965,-92.069 -73.793,-107.829c18.437,-7.29 35.27,-15.95 50.494,-25.989c18.515,-12.209 34.658,-26.448 48.439,-42.701c13.218,-15.629 23.146,-32.236 29.789,-49.82c6.81,-18.027 10.186,-37.077 10.091,-57.158c-0.127,-26.717 -5.543,-50.566 -16.214,-71.553c-10.787,-21.214 -26.931,-39.526 -48.502,-54.88c-23.111,-16.451 -50.802,-28.399 -83.107,-35.777c-26.715,-6.102 -56.599,-9.09 -89.656,-8.934c-0,0 -66.347,0.324 -132.694,0.415c-66.348,0.09 -132.695,-0.053 -132.695,-0.053c-1.719,-0 -3.114,1.394 -3.114,3.114l-0.029,16.458c0,1.19 0.673,2.279 1.738,2.811l80.315,40.409c-0,0 -2.017,510.937 -2.203,558.135c-0,0 -79.391,39.261 -79.391,39.261c-2.033,1.016 -3.318,3.095 -3.318,5.368l-0.074,16.458Zm12.125,-6.043l-0.03,-6.732c0,0 78.776,-39.821 78.776,-39.821c1.896,-0.949 3.094,-2.887 3.094,-5.007l-2.225,-563.694c0,-1.277 -0.721,-2.445 -1.864,-3.017l-80.66,-40.078c-0,0 -0.02,-11.401 -0.02,-11.401c13.858,-0.026 71.716,-0.125 129.575,-0.046c66.347,0.09 132.694,0.414 132.694,0.414c32.435,0.153 61.73,3.34 87.884,9.575c31.082,7.41 57.698,19.132 79.831,35.206c20.166,14.646 35.248,31.984 45.212,52.049c9.836,19.808 14.657,42.267 14.538,67.363c-0.089,18.785 -3.398,36.58 -9.929,53.383c-6.38,16.413 -15.847,31.871 -28.368,46.395c-13.206,15.355 -28.655,28.764 -46.324,40.256c-16.52,10.745 -34.983,19.809 -55.391,27.195c-1.725,0.63 -3.061,2.021 -3.621,3.77c-0.56,1.749 -0.28,3.659 0.759,5.173c-0,-0 36.561,53.453 78.285,113.898c54.653,79.176 118.112,170.379 118.112,170.379c0.426,0.621 0.993,1.132 1.654,1.493l65.841,35.441c-0,-0 0.053,9.61 0.053,9.61c-0,-0 -141.97,0.777 -141.97,0.777c-8.527,-13.131 -67.923,-104.629 -119.488,-184.897c-42.52,-66.189 -79.67,-124.768 -79.67,-124.768c-0.495,-0.772 -1.348,-1.239 -2.265,-1.239l-95.663,-0.328c-1.667,-0 -3.018,1.351 -3.018,3.017l-1.15,253.045c-0,1.524 0.832,2.926 2.169,3.657l74.509,41.234c-0,0 -0.049,9.004 -0.049,9.004l-241.281,-1.306Zm235.681,-622.359l-66.861,1.144c-2.725,-0 -4.933,2.208 -4.933,4.933c-0,-0 0.949,50.635 1.566,106.71c0.167,15.146 0.349,30.687 0.336,45.734c-0.016,18.189 -0.251,35.651 -0.461,50.815c-0.412,29.873 -0.941,50.814 -0.941,50.814c0,2.448 1.985,4.432 4.433,4.432l73.033,1.287c10.324,0.095 20.254,-0.42 29.76,-1.764c10.214,-1.445 19.947,-3.771 29.178,-6.9c19.348,-6.558 36.505,-16.661 51.558,-30.06c14.463,-12.917 25.19,-27.472 32.229,-43.686c6.954,-16.016 10.358,-33.63 10.022,-52.917c-0.019,-9.245 -0.892,-18.019 -2.455,-26.354c-1.686,-8.995 -4.219,-17.478 -7.691,-25.452c-7.016,-16.112 -17.763,-30.143 -32.332,-42.082c-15.353,-12.656 -33.751,-21.986 -55.17,-28.114c-18.22,-5.213 -38.631,-8.063 -61.271,-8.54Zm0,12.153c21.625,-0.455 41.228,1.391 58.816,5.668c20.451,4.972 38.15,13.147 53.101,24.54c14.097,10.807 24.732,23.669 31.758,38.678c3.515,7.508 6.171,15.537 7.855,24.097c1.577,8.019 2.276,16.497 2.257,25.406c-0.32,18.357 -4.031,35.039 -11.236,50.014c-7.173,14.911 -17.847,28.064 -31.89,39.566c-14.508,11.924 -30.912,20.5 -49.102,26.116c-8.687,2.683 -17.787,4.654 -27.312,6.016c-8.977,1.283 -18.324,2.088 -28.075,2.177c-0,0 -68.708,1.211 -68.708,1.211c-0.175,-7.695 -0.536,-24.655 -0.834,-46.306c-0.209,-15.164 -0.445,-32.626 -0.461,-50.815c-0.012,-15.047 0.17,-30.588 0.336,-45.733c0.502,-45.59 1.223,-87.585 1.475,-101.695c0,-0 62.02,1.06 62.02,1.06Z" style="fill:#646464;"/><path d="M1886.84,3495.73l0,-16.458l82.291,-41.145l0,-563.694l-82.291,-41.145l0,-16.458l503.004,-0l0,176.925l-16.458,0l-63.776,-120.35l-247.901,-0l-0,243.787l174.868,-0l51.432,-85.377l16.458,-0l0,225.271l-16.458,0l-51.432,-83.319l-174.868,-0l-0,265.388l276.703,0l63.776,-130.637l16.458,0l-0,187.212l-531.806,0Z" style="fill:#646464;fill-rule:nonzero;"/><path d="M1880.77,3495.73c0,3.356 2.721,6.077 6.076,6.077l531.806,-2.115c2.188,0 3.962,-1.774 3.962,-3.962l-0.647,-187.212c0,-1.831 -1.484,-3.315 -3.315,-3.315l-16.458,0.057c-1.246,-0 -2.382,0.71 -2.929,1.829l-62.622,129.245c-11.224,0.037 -73.9,0.238 -136.576,0.299c-61.332,0.059 -122.663,-0.016 -135.784,-0.034c-0,0 0.865,-259.373 0.865,-259.373c0,0 169.093,0.698 169.093,0.698c0,0 49.88,81.566 49.88,81.566c0.834,1.35 2.307,2.173 3.894,2.173l16.458,0.068c2.565,0 4.645,-2.079 4.645,-4.645l0.902,-225.271c0,-3.064 -2.483,-5.547 -5.547,-5.547l-16.458,-0.053c-1.963,0 -3.783,1.029 -4.797,2.71l-49.941,82.395c-0,0 -165.677,-0.03 -165.677,-0.03c0,-0 -0.691,-232.725 -0.691,-232.725c-0,-0 240.142,-0.862 240.142,-0.862c-0,-0 62.984,117.831 62.984,117.831c0.659,1.243 1.95,2.021 3.357,2.021l16.458,-0.06c2.066,0 3.74,-1.674 3.74,-3.74l-0.535,-176.925c0,-1.77 -1.435,-3.205 -3.205,-3.205c0,-0 -125.751,0.2 -251.502,0.089c-125.751,-0.111 -251.502,-0.535 -251.502,-0.535c-2.016,0 -3.65,1.635 -3.65,3.651l-0.044,16.458c0,1.399 0.791,2.678 2.042,3.304l79.996,40.265c0,0 -1.756,557.719 -1.756,557.719c-0,0 -79.28,39.312 -79.28,39.312c-2.039,1.02 -3.327,3.104 -3.327,5.384l-0.057,16.458Zm12.132,-6.052l-0.023,-6.706c0,0 78.814,-39.734 78.814,-39.734c1.936,-0.968 3.159,-2.947 3.159,-5.111l-1.775,-563.694c0,-1.492 -0.843,-2.856 -2.178,-3.523l-80.364,-39.915c-0,-0 -0.029,-10.527 -0.029,-10.527c21.537,-0.07 134.689,-0.422 247.842,-0.522c113.957,-0.101 227.913,0.054 248.287,0.084c0,0 -0.514,169.972 -0.514,169.972c0,-0 -10.429,-0.038 -10.429,-0.038c-0,0 -62.286,-118.567 -62.286,-118.567c-0.743,-1.404 -2.202,-2.281 -3.79,-2.281l-247.901,-0.89c-2.86,0 -5.179,2.319 -5.179,5.179l-0.724,243.787c-0,3.26 2.643,5.903 5.903,5.903l174.868,-0.032c2.059,-0 3.967,-1.079 5.029,-2.842l49.583,-82.817c-0,0 7.753,-0.024 7.753,-0.024c0,-0 0.862,215.081 0.862,215.081c-0,0 -9.261,0.039 -9.261,0.039c-0,-0 -50.42,-80.922 -50.42,-80.922c-0.759,-1.229 -2.101,-1.978 -3.546,-1.978l-174.868,0.722c-1.903,-0 -3.445,1.542 -3.445,3.445l0.885,265.388c0,1.414 1.146,2.56 2.56,2.56c-0,-0 69.176,-0.104 138.352,-0.037c69.176,0.067 138.351,0.305 138.351,0.305c1.081,-0 2.067,-0.616 2.541,-1.587l63.26,-128.612c0,0 11.106,0.038 11.106,0.038c-0,0 -0.621,179.931 -0.621,179.931l-521.802,-2.075Z" style="fill:#646464;"/><path d="M2557.51,3495.73l-0,-16.458l82.291,-41.145l-0,-563.694l-82.291,-41.145l-0,-16.458l503.004,-0l-0,176.925l-16.459,0l-63.775,-120.35l-247.902,-0l0,243.787l174.869,-0l51.431,-85.377l16.459,-0l-0,225.271l-16.459,0l-51.431,-83.319l-174.869,-0l0,265.388l276.704,0l63.775,-130.637l16.458,0l0,187.212l-531.805,0Z" style="fill:#646464;fill-rule:nonzero;"/><path d="M2551.44,3495.73c-0,3.356 2.72,6.077 6.076,6.077l531.805,-2.115c2.189,0 3.962,-1.774 3.962,-3.962l-0.646,-187.212c-0,-1.831 -1.484,-3.315 -3.316,-3.315l-16.458,0.057c-1.245,-0 -2.382,0.71 -2.928,1.829l-62.622,129.245c-11.225,0.037 -73.901,0.238 -136.577,0.299c-61.331,0.059 -122.662,-0.016 -135.784,-0.034c0,0 0.866,-259.373 0.866,-259.373c-0,0 169.093,0.698 169.093,0.698c-0,0 49.88,81.566 49.88,81.566c0.833,1.35 2.307,2.173 3.893,2.173l16.459,0.068c2.565,0 4.645,-2.079 4.645,-4.645l0.902,-225.271c-0,-3.064 -2.484,-5.547 -5.547,-5.547l-16.459,-0.053c-1.963,0 -3.783,1.029 -4.796,2.71l-49.942,82.395c0,0 -165.676,-0.03 -165.676,-0.03c-0,-0 -0.692,-232.725 -0.692,-232.725c0,-0 240.142,-0.862 240.142,-0.862c0,-0 62.984,117.831 62.984,117.831c0.659,1.243 1.951,2.021 3.357,2.021l16.459,-0.06c2.065,0 3.74,-1.674 3.74,-3.74l-0.535,-176.925c-0,-1.77 -1.435,-3.205 -3.205,-3.205c-0,-0 -125.751,0.2 -251.502,0.089c-125.752,-0.111 -251.502,-0.535 -251.502,-0.535c-2.016,0 -3.65,1.635 -3.65,3.651l-0.044,16.458c-0,1.399 0.79,2.678 2.042,3.304l79.996,40.265c-0,0 -1.757,557.719 -1.757,557.719c0,0 -79.279,39.312 -79.279,39.312c-2.04,1.02 -3.328,3.104 -3.328,5.384l-0.056,16.458Zm12.132,-6.052l-0.023,-6.706c-0,0 78.814,-39.734 78.814,-39.734c1.936,-0.968 3.159,-2.947 3.159,-5.111l-1.775,-563.694c-0,-1.492 -0.844,-2.856 -2.178,-3.523l-80.365,-39.915c0,-0 -0.028,-10.527 -0.028,-10.527c21.536,-0.07 134.689,-0.422 247.842,-0.522c113.956,-0.101 227.913,0.054 248.287,0.084c-0,0 -0.514,169.972 -0.514,169.972c-0,-0 -10.43,-0.038 -10.43,-0.038c0,0 -62.285,-118.567 -62.285,-118.567c-0.744,-1.404 -2.202,-2.281 -3.79,-2.281l-247.902,-0.89c-2.86,0 -5.178,2.319 -5.178,5.179l-0.725,243.787c0,3.26 2.643,5.903 5.903,5.903l174.869,-0.032c2.058,-0 3.966,-1.079 5.028,-2.842l49.584,-82.817c-0.001,0 7.753,-0.024 7.753,-0.024c-0,-0 0.861,215.081 0.861,215.081c0,0 -9.261,0.039 -9.261,0.039c0,-0 -50.42,-80.922 -50.42,-80.922c-0.759,-1.229 -2.1,-1.978 -3.545,-1.978l-174.869,0.722c-1.902,-0 -3.445,1.542 -3.445,3.445l0.886,265.388c-0,1.414 1.146,2.56 2.559,2.56c0,-0 69.176,-0.104 138.352,-0.037c69.176,0.067 138.352,0.305 138.352,0.305c1.08,-0 2.066,-0.616 2.541,-1.587l63.26,-128.612c-0,0 11.105,0.038 11.105,0.038c0,0 -0.621,179.931 -0.621,179.931l-521.801,-2.075Z" style="fill:#646464;"/><path d="M3223.04,3495.73l0,-16.458l82.291,-41.145l0,-561.636l-81.262,-43.203l-0,-16.458l151.21,-0l392.939,493.746l0,-438.2l-102.864,-39.088l0,-16.458l256.131,-0l-0,16.458l-81.262,40.117l-0,627.469l-38.06,-0l-424.827,-535.92l-0,474.201l102.864,40.117l-0,16.458l-257.16,0Z" style="fill:#646464;fill-rule:nonzero;"/><path d="M3216.97,3495.73c-0,3.356 2.72,6.077 6.076,6.077l257.16,-0.971c2.82,0 5.106,-2.286 5.106,-5.106l-0.062,-16.458c-0,-2.078 -1.275,-3.944 -3.212,-4.699l-100.078,-38.597c-0,-0 -1.525,-462.241 -1.525,-462.241c23.106,28.936 115.46,144.654 207.367,260.727c106.133,134.04 211.667,268.552 211.667,268.552c0.654,0.824 1.648,1.305 2.7,1.305l38.06,0.144c1.982,0 3.59,-1.607 3.59,-3.589l2.241,-623.824c0,-0 78.077,-38.403 78.077,-38.403c2.039,-1.007 3.331,-3.084 3.331,-5.359l0.016,-16.458c0,-3.31 -2.683,-5.994 -5.993,-5.994l-256.131,0.456c-3.058,0 -5.537,2.479 -5.537,5.538l0.054,16.458c0,2.277 1.407,4.317 3.536,5.125l99.704,37.511c-0,-0 1.405,424.172 1.405,424.172c-23.608,-29.452 -107.16,-133.74 -190.409,-238.271c-98.278,-123.402 -196.134,-247.14 -196.134,-247.14c-0.653,-0.821 -1.645,-1.299 -2.694,-1.299l-151.21,-0.373c-2.108,0 -3.816,1.709 -3.816,3.817l-0.041,16.458c0,1.426 0.787,2.736 2.046,3.405l78.983,42.241c-0,-0 -1.642,555.626 -1.642,555.626c0,0 -79.253,39.324 -79.253,39.324c-2.041,1.02 -3.33,3.106 -3.33,5.388l-0.052,16.458Zm12.133,-6.053l-0.021,-6.7c0,-0 78.823,-39.714 78.823,-39.714c1.946,-0.973 3.175,-2.961 3.175,-5.136l-1.659,-561.636c-0,-1.51 -0.834,-2.897 -2.167,-3.606l-79.328,-41.924c-0,-0 -0.025,-10.324 -0.025,-10.324c-0,-0 145.732,-0.359 145.732,-0.359c10.789,13.474 103.462,129.239 195.762,245.302c98.192,123.472 195.96,247.279 195.96,247.279c0.971,1.22 2.607,1.692 4.078,1.178c1.472,-0.514 2.458,-1.902 2.458,-3.461l1.452,-438.2c-0,-2.125 -1.314,-4.03 -3.301,-4.785l-99.186,-38.067c-0,0 0.023,-7.147 0.023,-7.147c0.001,0 244.625,0.436 244.625,0.436c-0,-0 0.006,6.768 0.006,6.768c0,0 -77.869,38.583 -77.869,38.583c-1.994,0.985 -3.257,3.016 -3.257,5.241l2.242,623.892c-0,0 -32.807,0.125 -32.807,0.125c-11.301,-14.113 -111.97,-139.874 -212.11,-266.057c-106.282,-133.921 -211.966,-268.315 -211.966,-268.315c-0.81,-1.022 -2.178,-1.419 -3.409,-0.99c-1.231,0.429 -2.056,1.59 -2.056,2.894l-1.565,474.201c0,1.908 1.17,3.619 2.947,4.312l99.489,39.233c-0,0 -0.03,7.905 -0.03,7.905l-246.016,-0.928Z" style="fill:#646464;"/><path d="M4035.67,3495.73l-0,-16.458l82.291,-41.145l-0,-563.694l-82.291,-41.145l-0,-16.458l260.245,-0c45.26,-0 85.891,5.657 121.893,16.972c36.003,11.315 64.29,28.116 84.863,50.403c20.573,22.288 30.859,50.575 30.859,84.863c0,34.974 -11.658,67.033 -34.974,96.178c-23.315,29.144 -56.917,49.889 -100.806,62.232c61.032,8.229 108.693,27.259 142.981,57.09c34.288,29.83 51.431,67.718 51.431,113.664c0,37.717 -11.829,71.49 -35.488,101.321c-23.658,29.83 -56.06,53.317 -97.206,70.461c-41.145,17.144 -87.777,25.716 -139.894,25.716l-283.904,0Zm236.586,-622.325l-61.718,-0l0,243.787l67.89,-0c48.689,-0 86.749,-10.458 114.179,-31.374c27.43,-20.915 41.145,-50.231 41.145,-87.948c0,-82.977 -53.832,-124.465 -161.496,-124.465Zm39.088,300.362l-100.806,-0l0,265.388l108.007,0c54.175,0 96.692,-12.343 127.551,-37.031c30.859,-24.687 46.289,-56.575 46.289,-95.663c-0,-46.631 -15.601,-80.405 -46.803,-101.321c-31.202,-20.915 -75.948,-31.373 -134.238,-31.373Z" style="fill:#646464;fill-rule:nonzero;"/><path d="M4029.59,3495.73c0,3.356 2.721,6.077 6.077,6.077l283.904,-1.961c25.25,-0.15 49.213,-2.283 71.889,-6.404c24.601,-4.471 47.688,-11.272 69.262,-20.412c19.904,-8.419 37.762,-18.308 53.591,-29.647c17.22,-12.335 32.043,-26.382 44.451,-42.171c11.939,-15.147 20.86,-31.29 26.842,-48.402c6.012,-17.196 9.061,-35.379 9.062,-54.578c0.096,-23.299 -4.186,-44.568 -12.757,-63.837c-8.645,-19.436 -21.669,-36.842 -39.118,-52.201c-18.686,-16.491 -41.351,-29.811 -67.999,-39.963c-17.729,-6.754 -37.226,-12.099 -58.494,-16.035c14.285,-4.958 27.363,-10.915 39.242,-17.86c18.596,-10.871 34.253,-24.182 47.008,-39.893c11.925,-14.699 20.938,-30.152 27.055,-46.346c6.372,-16.871 9.582,-34.552 9.684,-53.029c0.058,-17.263 -2.404,-33.076 -7.372,-47.433c-5.372,-15.519 -13.674,-29.342 -24.854,-41.486c-11.295,-12.178 -24.799,-22.793 -40.562,-31.768c-13.91,-7.921 -29.582,-14.568 -47.005,-19.959c-19.152,-5.901 -39.577,-10.238 -61.284,-12.976c-19.71,-2.487 -40.476,-3.662 -62.3,-3.527c-0,-0 -260.245,1.557 -260.245,1.557c-1.852,0 -3.354,1.502 -3.354,3.354l0.075,16.458c-0,1.242 0.701,2.377 1.812,2.933l80.738,40.083c-0.01,12.078 -0.084,81.283 -0.41,167.237c-0.584,154.162 -1.831,362.197 -2.007,391.181c-0,0 -79.529,39.201 -79.529,39.201c-2.026,1.013 -3.306,3.084 -3.306,5.349l-0.096,16.458Zm12.118,-6.034l-0.039,-6.762c-0,0 78.729,-39.926 78.729,-39.926c1.849,-0.925 3.017,-2.814 3.017,-4.881c0,-0 -1.399,-228.542 -2.028,-394.586c-0.359,-94.725 -0.412,-169.108 -0.412,-169.108c0,-1.143 -0.645,-2.188 -1.668,-2.699l-80.352,-40.462c-0,0 0.05,-11.069 0.05,-11.069c0,0 256.907,1.538 256.907,1.538c21.355,0.131 41.658,1.536 60.914,4.196c21.018,2.904 40.781,7.314 59.289,13.245c16.527,5.276 31.37,11.742 44.55,19.367c14.606,8.45 27.155,18.334 37.608,29.713c10.09,10.902 17.567,23.329 22.466,37.271c4.628,13.167 6.973,27.676 7.027,43.535c0.094,17.117 -2.718,33.522 -8.429,49.223c-5.544,15.244 -13.796,29.832 -24.78,43.757c-11.815,14.987 -26.415,27.729 -43.802,38.231c-15.781,9.532 -33.834,17.23 -54.16,23.105c-1.941,0.546 -3.232,2.38 -3.091,4.392c0.141,2.012 1.676,3.648 3.675,3.917c27.793,3.547 52.804,9.363 75.03,17.471c25.964,9.472 48.119,22.054 66.453,37.778c16.943,14.569 29.696,31.133 38.191,49.733c8.462,18.527 12.705,39.054 12.798,61.557c0.001,18.614 -2.896,36.263 -8.773,52.917c-5.847,16.565 -14.641,32.136 -26.299,46.744c-12.224,15.273 -26.776,28.842 -43.667,40.692c-15.583,10.933 -33.157,20.393 -52.703,28.414c-21.221,8.694 -43.897,15.081 -68.026,19.172c-22.298,3.78 -45.835,5.591 -70.612,5.444l-277.863,-1.919Zm269.633,-322.006l-100.806,1.486c-2.536,-0 -4.591,2.055 -4.591,4.591c-0,-0 0.701,43.641 1.182,95.54c0.191,20.668 0.419,42.644 0.391,63.693c-0.025,18.999 -0.272,37.238 -0.468,53.078c-0.386,31.202 -0.847,53.077 -0.847,53.077c-0,2.393 1.94,4.333 4.333,4.333l108.007,1.57c9.538,0.019 18.728,-0.283 27.553,-1.073c14.623,-1.31 28.261,-3.77 40.903,-7.25c24.215,-6.666 44.784,-17.155 61.775,-31.26c15.616,-12.97 27.225,-27.703 34.912,-44.196c7.688,-16.495 11.495,-34.74 11.219,-54.818c0.118,-22.216 -3.362,-41.549 -10.155,-58.101c-7.836,-19.091 -20.153,-34.521 -37.135,-46.256c-14.41,-9.999 -31.74,-17.787 -51.979,-23.45c-23.975,-6.708 -52.058,-10.379 -84.294,-10.964Zm0,12.153c31.228,-0.566 58.557,1.926 81.99,7.625c19.451,4.731 36.188,11.631 50.212,20.709c16.223,10.545 28.297,24.635 35.988,42.384c6.856,15.823 10.215,34.488 10.328,55.9c-0.263,19.139 -4.245,36.472 -12.074,51.952c-7.729,15.284 -19.236,28.701 -34.372,40.361c-16.466,12.69 -36.222,21.67 -59.189,27.282c-12.144,2.968 -25.187,4.932 -39.139,6.057c-8.51,0.686 -17.353,1.121 -26.543,1.139c-0,0 -103.761,1.509 -103.761,1.509c-0.152,-7.884 -0.476,-25.769 -0.76,-48.683c-0.196,-15.84 -0.442,-34.079 -0.468,-53.078c-0.028,-21.049 0.2,-43.025 0.391,-63.693c0.388,-41.843 0.919,-78.318 1.11,-90.882c0,-0 96.287,1.418 96.287,1.418Zm-39.088,-312.515l-61.718,1.073c-2.763,0 -5.003,2.24 -5.003,5.004c-0,-0 0.922,48.585 1.562,102.39c0.173,14.533 0.343,29.444 0.375,43.882c0.029,13.671 -0.035,26.915 -0.164,39.006c-0.362,33.752 -1.009,58.509 -1.009,58.509c-0,2.341 1.898,4.239 4.239,4.239l67.89,1.276c13.01,0.161 25.292,-0.341 36.822,-1.752c8.528,-1.043 16.648,-2.558 24.342,-4.519c22.023,-5.61 40.62,-14.695 55.921,-26.807c14.418,-11.498 25.039,-25.185 31.851,-41.12c6.377,-14.913 9.467,-31.772 9.099,-50.639c-0.08,-8.265 -0.733,-16.11 -1.803,-23.562c-1.175,-8.186 -2.908,-15.891 -5.253,-23.13c-7.667,-23.674 -21.926,-42.284 -42.959,-55.958c-26.912,-17.497 -64.911,-26.883 -114.192,-27.892Zm0,12.153c47.144,-0.965 83.945,6.207 110.278,22.004c20.218,12.129 34.284,29.249 41.946,51.345c2.395,6.907 4.167,14.303 5.258,22.172c1.002,7.228 1.381,14.857 1.304,22.868c-0.349,17.866 -3.795,33.734 -10.41,47.595c-6.87,14.396 -17.212,26.546 -30.931,36.542c-11.894,8.703 -25.808,15.231 -41.621,19.998c-10.577,3.189 -22.015,5.514 -34.333,7.119c-11.065,1.441 -22.822,2.398 -35.319,2.553c0,-0 -63.755,1.198 -63.755,1.198c-0.199,-8.499 -0.632,-28.8 -0.905,-54.192c-0.129,-12.091 -0.193,-25.335 -0.164,-39.006c0.032,-14.438 0.202,-29.349 0.375,-43.882c0.517,-43.451 1.218,-83.497 1.469,-97.301c-0,-0 56.808,0.987 56.808,0.987Z" style="fill:#646464;"/><path d="M4712.51,3495.73l0,-16.458l82.291,-41.145l-0,-563.694l-82.291,-41.145l0,-16.458l265.388,-0c72.005,-0 128.752,14.915 170.24,44.745c41.488,29.831 62.232,70.805 62.232,122.923c0,38.402 -13.029,72.861 -39.088,103.378c-26.059,30.516 -60.689,53.66 -103.892,69.433l195.441,284.932l67.89,37.031l0,16.458l-148.124,0l-199.555,-311.677l-95.664,0l0,253.045l77.148,42.174l0,16.458l-252.016,0Zm241.73,-622.325l-66.862,-0l0,254.073l73.034,0c43.202,0 79.033,-12.172 107.492,-36.516c28.459,-24.345 42.689,-55.375 42.689,-93.092c-0,-38.403 -14.058,-68.747 -42.174,-91.034c-28.117,-22.288 -66.176,-33.431 -114.179,-33.431Z" style="fill:#646464;fill-rule:nonzero;"/><path d="M4706.43,3495.73c-0,3.356 2.72,6.077 6.076,6.077l252.016,-1.365c2.602,0 4.712,-2.109 4.712,-4.712l-0.089,-16.458c0,-1.69 -0.922,-3.245 -2.405,-4.056l-75.209,-40.61c-0,-0 -1.125,-247.546 -1.125,-247.546c-0.001,0 91.171,-0.313 91.171,-0.313c5.663,8.768 40.465,62.677 79.17,123.33c55.432,86.867 118.939,187.515 118.939,187.515c0.635,0.991 1.73,1.59 2.907,1.59l148.124,0.811c2.354,0 4.263,-1.908 4.263,-4.263l0.091,-16.458c0,-1.593 -0.87,-3.059 -2.269,-3.822l-66.657,-36.839c-6.633,-9.809 -64.779,-95.773 -115.791,-170.616c-32.964,-48.363 -62.965,-92.069 -73.793,-107.829c18.437,-7.29 35.27,-15.95 50.494,-25.989c18.514,-12.209 34.657,-26.448 48.439,-42.701c13.218,-15.629 23.146,-32.236 29.789,-49.82c6.81,-18.027 10.186,-37.077 10.09,-57.158c-0.127,-26.717 -5.542,-50.566 -16.214,-71.553c-10.786,-21.214 -26.931,-39.526 -48.501,-54.88c-23.111,-16.451 -50.803,-28.399 -83.107,-35.777c-26.716,-6.102 -56.599,-9.09 -89.657,-8.934c0,0 -66.346,0.324 -132.694,0.415c-66.347,0.09 -132.694,-0.053 -132.694,-0.053c-1.72,-0 -3.114,1.394 -3.114,3.114l-0.029,16.458c0,1.19 0.673,2.279 1.738,2.811l80.315,40.409c-0,0 -2.203,558.135 -2.203,558.135c-0,0 -79.391,39.261 -79.391,39.261c-2.034,1.016 -3.318,3.095 -3.318,5.368l-0.074,16.458Zm12.125,-6.043l-0.03,-6.732c-0,0 78.776,-39.821 78.776,-39.821c1.896,-0.949 3.094,-2.887 3.094,-5.007l-2.225,-563.694c0,-1.277 -0.722,-2.445 -1.864,-3.017l-80.661,-40.078c0,0 -0.02,-11.401 -0.02,-11.401c13.859,-0.026 71.717,-0.125 129.575,-0.046c66.348,0.09 132.694,0.414 132.694,0.414c32.435,0.153 61.73,3.34 87.885,9.575c31.082,7.41 57.697,19.132 79.831,35.206c20.166,14.646 35.248,31.984 45.211,52.049c9.836,19.808 14.658,42.267 14.539,67.363c-0.09,18.785 -3.398,36.58 -9.929,53.383c-6.38,16.413 -15.847,31.871 -28.369,46.395c-13.205,15.355 -28.654,28.764 -46.323,40.256c-16.521,10.745 -34.983,19.809 -55.391,27.195c-1.725,0.63 -3.062,2.021 -3.622,3.77c-0.559,1.749 -0.279,3.659 0.76,5.173c-0,-0 36.561,53.453 78.285,113.898c54.653,79.176 118.112,170.379 118.112,170.379c0.426,0.621 0.992,1.132 1.654,1.493l65.84,35.441c0,-0 0.054,9.61 0.054,9.61c-0,-0 -141.97,0.777 -141.97,0.777c-8.527,-13.131 -67.924,-104.629 -119.488,-184.897c-42.52,-66.189 -79.671,-124.768 -79.671,-124.768c-0.494,-0.772 -1.348,-1.239 -2.264,-1.239l-95.664,-0.328c-1.666,-0 -3.017,1.351 -3.017,3.017l-1.15,253.045c-0,1.524 0.831,2.926 2.168,3.657l74.51,41.234c-0,0 -0.049,9.004 -0.049,9.004l-241.281,-1.306Zm235.681,-622.359l-66.862,1.144c-2.724,-0 -4.933,2.208 -4.933,4.933c0,-0 0.949,50.635 1.567,106.71c0.166,15.146 0.348,30.687 0.335,45.734c-0.015,18.189 -0.251,35.651 -0.46,50.815c-0.412,29.873 -0.941,50.814 -0.941,50.814c0,2.448 1.984,4.432 4.432,4.432l73.034,1.287c10.323,0.095 20.253,-0.42 29.76,-1.764c10.214,-1.445 19.946,-3.771 29.178,-6.9c19.348,-6.558 36.505,-16.661 51.558,-30.06c14.463,-12.917 25.189,-27.472 32.229,-43.686c6.954,-16.016 10.358,-33.63 10.021,-52.917c-0.019,-9.245 -0.891,-18.019 -2.454,-26.354c-1.687,-8.995 -4.219,-17.478 -7.692,-25.452c-7.016,-16.112 -17.762,-30.143 -32.331,-42.082c-15.354,-12.656 -33.752,-21.986 -55.17,-28.114c-18.22,-5.213 -38.631,-8.063 -61.271,-8.54Zm-0,12.153c21.624,-0.455 41.227,1.391 58.816,5.668c20.45,4.972 38.15,13.147 53.1,24.54c14.098,10.807 24.732,23.669 31.759,38.678c3.515,7.508 6.17,15.537 7.854,24.097c1.578,8.019 2.276,16.497 2.258,25.406c-0.32,18.357 -4.031,35.039 -11.236,50.014c-7.173,14.911 -17.847,28.064 -31.89,39.566c-14.509,11.924 -30.912,20.5 -49.102,26.116c-8.688,2.683 -17.787,4.654 -27.312,6.016c-8.978,1.283 -18.324,2.088 -28.075,2.177c-0,0 -68.708,1.211 -68.708,1.211c-0.176,-7.695 -0.536,-24.655 -0.834,-46.306c-0.21,-15.164 -0.445,-32.626 -0.461,-50.815c-0.013,-15.047 0.169,-30.588 0.336,-45.733c0.502,-45.59 1.223,-87.585 1.475,-101.695c0,-0 62.02,1.06 62.02,1.06Z" style="fill:#646464;"/><path d="M5390.38,3495.73l-0,-16.458l65.833,-33.945l263.331,-633.64l46.289,-0l259.216,630.554l68.919,37.031l-0,16.458l-255.102,0l-0,-16.458l90.52,-34.974l-77.148,-190.297l-249.959,-0l-76.119,190.297l86.406,34.974l-0,16.458l-222.186,0Zm235.558,-298.304l203.67,-0l-101.835,-253.045l-101.835,253.045Z" style="fill:#646464;fill-rule:nonzero;"/><path d="M5384.31,3495.73c-0,3.356 2.72,6.077 6.076,6.077l222.186,-1.329c2.621,-0 4.747,-2.126 4.747,-4.748l-0.098,-16.458c-0,-1.894 -1.149,-3.599 -2.905,-4.309l-82.81,-32.974c-0,0 72.883,-184.914 72.883,-184.914c13.093,-0.066 84.895,-0.416 147.872,-0.528c47.145,-0.084 89.343,-0.017 98.256,-0.001c-0,-0 74.216,185.706 74.216,185.706c0,-0 -87.358,33.146 -87.358,33.146c-1.601,0.619 -2.656,2.158 -2.656,3.874l-0.1,16.458c-0,2.349 1.904,4.253 4.253,4.253l255.102,1.468c3.16,0 5.721,-2.561 5.721,-5.721l0.077,-16.458c0,-2.135 -1.173,-4.097 -3.054,-5.107l-66.936,-36.18c-4.181,-10.147 -24.092,-58.426 -51.343,-124.004c-49.219,-118.441 -122.436,-293.278 -167.964,-402.706c-25.097,-60.32 -41.813,-100.749 -41.813,-100.749c-0.471,-1.145 -1.586,-1.892 -2.823,-1.892l-46.289,0.028c-1.222,0 -2.324,0.736 -2.793,1.864c0,-0 -34.83,83.578 -79.442,189.908c-74.245,176.961 -175.445,416.987 -185.489,440.807c0,-0 -64.187,32.703 -64.187,32.703c-1.995,1.028 -3.248,3.084 -3.248,5.328l-0.081,16.458Zm12.122,-6.04l-0.033,-6.794c-0,0 62.402,-32.56 62.402,-32.56c1.183,-0.61 2.111,-1.618 2.621,-2.846c0,-0 105.428,-257.457 182.364,-444.367c40.067,-97.338 72.446,-175.525 77.784,-188.411c0,0 42.218,0.026 42.218,0.026c3.529,8.64 18.879,46.238 40.363,99.137c44.599,109.81 115.519,285.591 163.834,404.404c30.188,74.238 51.528,126.241 51.528,126.241c0.527,1.283 1.484,2.343 2.706,3l65.973,35.237c0,0 0.034,7.285 0.034,7.285c0,0 -245.127,1.411 -245.127,1.411c-0,0 -0.057,-9.359 -0.057,-9.359c-0,0 87.635,-34.469 87.635,-34.469c0.892,-0.344 1.608,-1.032 1.988,-1.91c0.38,-0.877 0.391,-1.87 0.032,-2.756l-78.091,-189.916c-0.39,-0.962 -1.324,-1.591 -2.362,-1.591c0,0 -46.85,0.097 -99.983,0.002c-69.598,-0.124 -149.976,-0.538 -149.976,-0.538c-1.261,-0 -2.396,0.768 -2.864,1.939l-77.081,189.913c-0.843,2.107 0.177,4.499 2.28,5.35l83.284,34.261c0,-0 -0.051,8.576 -0.051,8.576l-211.421,-1.265Zm223.875,-294.533c-0.754,1.873 -0.528,3.997 0.602,5.67c1.13,1.673 3.016,2.675 5.035,2.675c-0,-0 82.562,-1.763 142.569,-2.544c34.225,-0.445 61.101,-0.5 61.101,-0.5c1.008,0 1.949,-0.5 2.513,-1.335c0.564,-0.835 0.677,-1.895 0.3,-2.83c0,0 -4.683,-11.856 -11.855,-30.512c-11.643,-30.287 -29.339,-78.652 -46.555,-122.398c-4.13,-10.495 -8.312,-20.691 -12.335,-30.318c-16.666,-39.886 -30.115,-70.209 -30.115,-70.209c-0.622,-1.546 -2.121,-2.559 -3.788,-2.559c-1.667,0 -3.166,1.013 -3.788,2.559c-0,0 -9.532,26.018 -23.111,61.266c-2.505,6.503 -5.17,13.311 -7.987,20.308c-2.652,6.587 -5.452,13.333 -8.313,20.177c-10.531,25.193 -21.847,51.69 -31.948,75.351c-18.008,42.178 -32.325,75.199 -32.325,75.199Zm14.317,-3.626c4.674,-12.519 14.288,-38.214 25.733,-68.464c9.104,-24.062 19.297,-51.012 29.153,-76.476c2.677,-6.918 5.331,-13.724 7.98,-20.311c2.815,-6.998 5.609,-13.754 8.307,-20.179c9.262,-22.06 17.129,-40.324 21.654,-50.751c4.493,12.194 13.01,35.08 23.453,62.052c3.767,9.73 7.814,19.981 12.105,30.412c17.885,43.476 38.625,90.616 51.206,120.525c5.015,11.922 8.81,21.069 10.864,26.039c-9.048,-0.035 -30.71,-0.149 -56.566,-0.485c-48.276,-0.629 -111.151,-1.892 -133.889,-2.362Z" style="fill:#646464;"/><path d="M6164.95,3495.73l-0,-16.458l82.291,-41.145l-0,-563.694l-82.291,-41.145l-0,-16.458l503.003,-0l0,176.925l-16.458,0l-63.775,-120.35l-247.902,-0l0,243.787l174.868,-0l51.432,-85.377l16.459,-0l-0,225.271l-16.459,0l-51.432,-83.319l-174.868,-0l0,265.388l276.704,0l63.775,-130.637l16.458,0l0,187.212l-531.805,0Z" style="fill:#646464;fill-rule:nonzero;"/><path d="M6158.87,3495.73c0,3.356 2.721,6.077 6.077,6.077l531.805,-2.115c2.188,0 3.962,-1.774 3.962,-3.962l-0.646,-187.212c-0,-1.831 -1.485,-3.315 -3.316,-3.315l-16.458,0.057c-1.245,-0 -2.382,0.71 -2.928,1.829l-62.622,129.245c-11.225,0.037 -73.901,0.238 -136.577,0.299c-61.331,0.059 -122.662,-0.016 -135.784,-0.034c0,0 0.866,-259.373 0.866,-259.373c-0,0 169.093,0.698 169.093,0.698c-0,0 49.879,81.566 49.879,81.566c0.834,1.35 2.308,2.173 3.894,2.173l16.459,0.068c2.565,0 4.644,-2.079 4.644,-4.645l0.903,-225.271c-0,-3.064 -2.484,-5.547 -5.547,-5.547l-16.459,-0.053c-1.963,0 -3.783,1.029 -4.796,2.71l-49.942,82.395c0,0 -165.676,-0.03 -165.676,-0.03c-0,-0 -0.692,-232.725 -0.692,-232.725c0,-0 240.142,-0.862 240.142,-0.862c0,-0 62.984,117.831 62.984,117.831c0.659,1.243 1.951,2.021 3.357,2.021l16.458,-0.06c2.066,0 3.74,-1.674 3.74,-3.74l-0.534,-176.925c-0,-1.77 -1.435,-3.205 -3.206,-3.205c0,-0 -125.75,0.2 -251.501,0.089c-125.752,-0.111 -251.502,-0.535 -251.502,-0.535c-2.016,0 -3.65,1.635 -3.65,3.651l-0.044,16.458c-0,1.399 0.79,2.678 2.042,3.304l79.996,40.265c-0,0 -1.757,557.719 -1.757,557.719c0,0 -79.279,39.312 -79.279,39.312c-2.04,1.02 -3.328,3.104 -3.328,5.384l-0.057,16.458Zm12.132,-6.052l-0.023,-6.706c0,0 78.815,-39.734 78.815,-39.734c1.936,-0.968 3.159,-2.947 3.159,-5.111l-1.776,-563.694c0,-1.492 -0.843,-2.856 -2.177,-3.523l-80.365,-39.915c-0,-0 -0.028,-10.527 -0.028,-10.527c21.536,-0.07 134.689,-0.422 247.842,-0.522c113.956,-0.101 227.913,0.054 248.287,0.084c-0,0 -0.514,169.972 -0.514,169.972c-0,-0 -10.43,-0.038 -10.43,-0.038c0,0 -62.286,-118.567 -62.286,-118.567c-0.743,-1.404 -2.201,-2.281 -3.789,-2.281l-247.902,-0.89c-2.86,0 -5.178,2.319 -5.178,5.179l-0.725,243.787c-0,3.26 2.643,5.903 5.903,5.903l174.868,-0.032c2.059,-0 3.967,-1.079 5.029,-2.842l49.583,-82.817c0,0 7.754,-0.024 7.754,-0.024c-0,-0 0.861,215.081 0.861,215.081c0,0 -9.261,0.039 -9.261,0.039c0,-0 -50.42,-80.922 -50.42,-80.922c-0.759,-1.229 -2.101,-1.978 -3.546,-1.978l-174.868,0.722c-1.903,-0 -3.445,1.542 -3.445,3.445l0.886,265.388c-0,1.414 1.146,2.56 2.559,2.56c0,-0 69.176,-0.104 138.352,-0.037c69.176,0.067 138.352,0.305 138.352,0.305c1.08,-0 2.066,-0.616 2.54,-1.587l63.26,-128.612c0,0 11.106,0.038 11.106,0.038c0,0 -0.621,179.931 -0.621,179.931l-521.802,-2.075Z" style="fill:#646464;"/></g><path d="M5580.48,4134.95c-0,0 139.726,1.98 317.706,6.165c312.096,7.337 741.316,20.475 741.316,20.475c29.703,-0 53.819,-24.116 53.819,-53.819c0,-29.704 -24.116,-53.82 -53.819,-53.82c-0,0 -429.22,13.138 -741.316,20.475c-177.98,4.185 -317.706,6.165 -317.706,6.165c-15.001,-0 -27.18,12.179 -27.18,27.18c0,15 12.179,27.179 27.18,27.179Z" style="fill:#5db4a6;"/><path d="M5580.48,4107.77l1059.02,-0" style="fill:none;"/><path d="M1556.03,4081.07c-0,-0 -139.726,-2.016 -317.707,-6.276c-312.101,-7.47 -741.315,-20.844 -741.315,-20.844c-29.704,0 -53.82,24.116 -53.82,53.82c0,29.703 24.116,53.819 53.82,53.819c-0,-0 429.214,-13.374 741.315,-20.844c177.981,-4.26 317.707,-6.276 317.707,-6.276c14.736,0 26.7,-11.963 26.7,-26.699c-0,-14.736 -11.964,-26.7 -26.7,-26.7Z" style="fill:#5db4a6;"/><path d="M1556.03,4107.77l-1059.02,-0" style="fill:none;"/><g><path d="M1863.18,4355.5c-29.167,0 -53.958,-2.795 -74.375,-8.385c-20.417,-5.59 -41.806,-13.976 -64.167,-25.156l-7.291,-116.667l12.395,-0l37.917,83.854c17.5,13.611 34.271,23.212 50.313,28.802c16.041,5.59 32.326,8.386 48.854,8.386c30.139,-0 53.472,-8.021 70,-24.063c16.528,-16.042 24.791,-38.16 24.791,-66.354c0,-21.875 -5.104,-39.132 -15.312,-51.771c-10.208,-12.639 -24.67,-23.819 -43.385,-33.542c-18.716,-9.722 -40.712,-20.902 -65.99,-33.541c-22.361,-11.181 -41.076,-22.361 -56.146,-33.542c-15.069,-11.18 -26.614,-24.062 -34.635,-38.646c-8.021,-14.583 -12.032,-32.812 -12.032,-54.687c0,-16.042 3.889,-31.841 11.667,-47.396c7.778,-15.556 18.351,-29.531 31.719,-41.927c13.368,-12.396 28.437,-22.361 45.208,-29.896c16.771,-7.535 34.15,-11.302 52.136,-11.302c22.361,-0 42.656,2.674 60.885,8.021c18.229,5.347 37.066,12.882 56.51,22.604l7.292,113.75l-12.396,-0l-32.083,-80.208c-15.069,-12.639 -28.802,-21.511 -41.198,-26.615c-12.396,-5.104 -26.615,-7.656 -42.656,-7.656c-25.278,-0 -45.209,7.656 -59.792,22.969c-14.583,15.312 -21.875,34.392 -21.875,57.239c0,17.014 3.524,31.476 10.573,43.386c7.049,11.909 17.865,22.847 32.448,32.812c14.583,9.965 33.056,20.295 55.417,30.99c29.166,14.097 53.229,27.465 72.187,40.104c18.958,12.639 33.056,27.1 42.292,43.385c9.236,16.285 13.854,36.823 13.854,61.615c-0,20.903 -4.618,39.618 -13.854,56.146c-9.236,16.527 -21.389,30.503 -36.459,41.927c-15.069,11.423 -31.597,20.173 -49.583,26.25c-17.986,6.076 -35.729,9.114 -53.229,9.114Z" style="fill:#646464;fill-rule:nonzero;"/><path d="M1863.18,4364.18c9.418,-0.103 18.894,-1.023 28.428,-2.796c9.076,-1.688 18.209,-4.121 27.391,-7.334c9.357,-3.274 18.331,-7.229 26.913,-11.89c8.587,-4.664 16.791,-10.009 24.6,-16.063c7.88,-6.109 14.994,-12.87 21.321,-20.308c6.309,-7.417 11.859,-15.485 16.621,-24.227c4.939,-9.068 8.602,-18.723 10.945,-28.987c2.2,-9.639 3.266,-19.808 3.151,-30.513c-0.117,-11.936 -1.255,-22.911 -3.411,-32.929c-2.539,-11.795 -6.462,-22.285 -11.782,-31.468c-5.17,-8.924 -11.723,-17.321 -19.697,-25.164c-7.104,-6.987 -15.323,-13.55 -24.683,-19.666c-10.471,-6.844 -22.462,-13.894 -35.982,-21.145c-11.309,-6.066 -23.687,-12.277 -37.14,-18.63c-0.005,-0.003 -0.01,-0.005 -0.016,-0.008c-10.2,-4.792 -19.59,-9.512 -28.169,-14.164c-10.101,-5.478 -19.075,-10.853 -26.919,-16.134c-6.665,-4.491 -12.538,-9.184 -17.594,-14.105c-5.662,-5.51 -10.303,-11.293 -13.922,-17.345c-3.55,-5.956 -6.175,-12.589 -7.86,-19.9c-1.534,-6.658 -2.29,-13.871 -2.297,-21.634c0.03,-10.722 1.708,-20.581 5.096,-29.559c3.511,-9.303 8.865,-17.641 16.002,-25.045c7.293,-7.536 15.968,-13.058 26.016,-16.58c9.196,-3.224 19.535,-4.752 31.009,-4.653c7.386,0.08 14.365,0.722 20.939,1.915c7.106,1.29 13.728,3.244 19.871,5.853c6.491,2.756 13.344,6.618 20.581,11.553c5.746,3.919 11.719,8.519 17.928,13.789c0.004,0.004 30.736,79.351 30.736,79.351c0.962,2.405 3.292,3.982 5.882,3.982l12.396,0.138c1.789,-0 3.498,-0.74 4.721,-2.045c1.224,-1.304 1.853,-3.057 1.739,-4.842l-6.031,-113.831c-0.176,-2.747 -1.798,-5.194 -4.261,-6.425c-9.547,-4.875 -18.956,-9.222 -28.223,-13.053c-9.969,-4.121 -19.778,-7.632 -29.424,-10.55c-9.886,-2.957 -20.36,-5.164 -31.423,-6.609c-10.101,-1.319 -20.696,-1.992 -31.785,-2.038c-9.662,0.002 -19.162,1.008 -28.491,3.061c-9.201,2.024 -18.235,5.061 -27.105,9.084c-8.76,3.998 -17.077,8.618 -24.937,13.885c-7.892,5.288 -15.331,11.211 -22.315,17.777c-6.903,6.495 -13.1,13.377 -18.553,20.679c-5.6,7.497 -10.434,15.419 -14.507,23.761c-3.983,8.16 -6.981,16.367 -8.976,24.632c-2.093,8.672 -3.114,17.399 -3.03,26.187c0.101,10.666 1.099,20.497 3.002,29.495c2.241,10.598 5.703,20.063 10.389,28.396c4.453,7.916 9.876,15.355 16.302,22.295c5.973,6.451 12.797,12.487 20.494,18.086c8.287,6.027 17.635,12.05 28.054,18.057c8.968,5.169 18.727,10.334 29.285,15.488c-0,-0 66.219,32.914 66.219,32.914c8.516,4.349 16.139,9.003 22.859,13.982c7.582,5.618 14.016,11.631 19.282,18.061c5.168,6.342 8.951,13.951 11.343,22.82c2.096,7.769 3.126,16.485 3.144,26.135c-0.025,12.768 -1.792,24.238 -5.345,34.402c-3.909,11.186 -9.993,20.768 -18.25,28.743c-8.418,8.09 -18.692,13.962 -30.795,17.665c-10.634,3.254 -22.666,4.821 -36.09,4.754c-8.04,-0.054 -16.015,-0.795 -23.926,-2.219c-7.803,-1.404 -15.541,-3.483 -23.219,-6.219c-8.236,-2.936 -16.657,-6.986 -25.278,-12.127c-7.26,-4.33 -14.651,-9.439 -22.181,-15.316c-0.004,-0.003 -36.76,-82.894 -36.76,-82.894c-1.016,-2.247 -3.254,-3.691 -5.72,-3.691l-12.395,-0.109c-1.763,0 -3.447,0.729 -4.654,2.014c-1.207,1.284 -1.829,3.011 -1.719,4.77l6.267,116.731c0.164,2.636 1.72,4.986 4.082,6.167c10.869,5.554 21.517,10.446 31.942,14.688c11.404,4.641 22.546,8.492 33.422,11.573c11.395,3.227 24.118,5.619 38.17,7.182c11.822,1.314 24.596,2.028 38.323,2.15Zm0,-17.361c-13.108,0.116 -25.315,-0.343 -36.624,-1.399c-13.1,-1.223 -24.979,-3.223 -35.633,-6.04c-10.392,-2.747 -21.048,-6.227 -31.967,-10.448c-8.902,-3.442 -17.979,-7.367 -27.229,-11.781c-0.001,-0 -7.528,-105.535 -7.528,-105.535c0,0 1.542,-0.013 1.542,-0.013c-0,-0 36.81,79.852 36.81,79.852c0.375,0.83 0.947,1.556 1.666,2.116c8.409,6.445 16.648,12 24.72,16.66c9.332,5.388 18.44,9.596 27.325,12.622c8.253,2.811 16.562,4.912 24.928,6.299c8.487,1.407 17.031,2.091 25.636,2.033c14.477,-0.073 27.43,-1.932 38.863,-5.556c13.505,-4.281 24.919,-11.001 34.251,-20.15c9.206,-8.978 15.979,-19.737 20.303,-32.287c3.799,-11.026 5.713,-23.448 5.686,-37.276c0.019,-10.477 -1.114,-19.933 -3.337,-28.381c-2.676,-10.167 -6.949,-18.896 -12.801,-26.205c-5.619,-7.055 -12.5,-13.685 -20.643,-19.894c-7.041,-5.369 -15.036,-10.418 -23.987,-15.147c0,-0 -65.76,-34.169 -65.76,-34.169c-10.211,-5.228 -19.642,-10.45 -28.3,-15.663c-9.911,-5.968 -18.793,-11.927 -26.653,-17.875c-6.91,-5.23 -13.024,-10.837 -18.35,-16.814c-5.597,-6.28 -10.3,-12.982 -14.125,-20.097c-3.913,-7.278 -6.716,-15.526 -8.479,-24.723c-1.568,-8.18 -2.283,-17.101 -2.192,-26.761c0.072,-7.592 1.101,-15.113 3.051,-22.57c1.883,-7.2 4.654,-14.329 8.276,-21.404c3.791,-7.405 8.274,-14.407 13.403,-21.041c5.019,-6.491 10.676,-12.615 16.975,-18.372c6.409,-5.862 13.227,-11.13 20.439,-15.829c7.177,-4.677 14.753,-8.775 22.726,-12.301c7.803,-3.473 15.747,-6.059 23.822,-7.804c8.144,-1.76 16.426,-2.657 24.853,-2.655c10.35,-0.043 20.245,0.507 29.684,1.649c10.157,1.228 19.785,3.131 28.878,5.746c9.199,2.614 18.562,5.791 28.087,9.54c7.683,3.025 15.472,6.414 23.366,10.172c0.001,0.001 7.7,102.328 7.7,102.328c0,-0.001 -1.205,0.013 -1.205,0.013c0,-0 -31.301,-75.827 -31.301,-75.827c-0.33,-0.825 -0.859,-1.555 -1.54,-2.126c-8.615,-7.066 -16.794,-12.959 -24.546,-17.675c-6.377,-3.88 -12.465,-6.98 -18.267,-9.296c-6.826,-2.723 -14.161,-4.726 -22.016,-5.975c-7.074,-1.125 -14.568,-1.656 -22.486,-1.569c-12.535,0.108 -23.791,2.016 -33.777,5.705c-11.165,4.125 -20.765,10.445 -28.782,18.999c-7.757,8.244 -13.504,17.507 -17.277,27.781c-3.589,9.772 -5.407,20.462 -5.374,32.094c-0.008,8.331 0.814,16.069 2.432,23.221c1.828,8.079 4.678,15.417 8.556,22.016c3.869,6.605 8.85,12.925 14.93,18.975c5.302,5.276 11.447,10.347 18.45,15.2c7.959,5.519 17.073,11.154 27.342,16.906c8.646,4.843 18.113,9.767 28.403,14.775c13.17,6.513 25.298,12.874 36.371,19.074c13.112,7.343 24.733,14.462 34.866,21.352c8.639,5.874 16.215,12.137 22.732,18.786c7.106,7.25 12.928,14.969 17.472,23.155c4.599,8.283 7.905,17.719 9.972,28.29c1.82,9.31 2.652,19.492 2.543,30.542c-0.104,9.656 -1.25,18.806 -3.421,27.455c-2.26,8.999 -5.666,17.44 -10.191,25.336c-4.463,7.787 -9.619,14.952 -15.451,21.515c-5.821,6.551 -12.336,12.476 -19.524,17.804c-7.271,5.389 -14.89,10.123 -22.845,14.224c-7.928,4.086 -16.2,7.518 -24.808,10.323c-8.429,2.747 -16.796,4.789 -25.099,6.147c-8.581,1.404 -17.095,2.045 -25.541,1.953Z" style="fill:#646464;"/><path d="M2199.32,4348.21l-0,-14.584l72.916,-21.875l0,-410.521l-128.333,0l-41.562,107.188l-13.125,-0l-0,-141.458l422.916,-0l0,141.458l-13.125,-0l-41.562,-107.188l-128.334,0l0,410.521l72.917,21.875l0,14.584l-202.708,-0Z" style="fill:#646464;fill-rule:nonzero;"/><path d="M2190.64,4348.21c0,4.794 3.887,8.68 8.681,8.68l202.708,-2.115c3.626,-0 6.565,-2.94 6.565,-6.565l-0.152,-14.584c0,-2.832 -1.857,-5.329 -4.57,-6.143l-69.108,-20.024c-0.241,-23.563 -1.4,-139.859 -1.914,-242.02c-0.147,-29.387 -0.218,-57.603 -0.172,-82.104c0.071,-38.386 0.332,-67.653 0.435,-78.022c0,0 120.645,1.186 120.645,1.186c0,0 39.168,104.277 39.168,104.277c0.973,2.511 3.39,4.166 6.082,4.166l13.125,0.14c3.681,-0 6.664,-2.984 6.664,-6.664l1.408,-141.458c0,-4.459 -3.614,-8.073 -8.072,-8.073c0,0 -55.805,-0.598 -126.875,-0.43c-124.581,0.295 -296.041,2.405 -296.041,2.405c-3.368,0 -6.098,2.73 -6.098,6.098l1.251,141.458c0,2.676 2.17,4.846 4.847,4.846l13.125,-0.088c1.964,-0 3.726,-1.207 4.436,-3.038l40.102,-104.562c0,0 120.517,0.441 120.517,0.441c0,-0 -3.024,399.784 -3.024,399.784c-0,0 -67.51,19.632 -67.51,19.632c-3.619,1.085 -6.096,4.416 -6.096,8.193l-0.127,14.584Zm18.224,-8.581l65.646,-20.301c3.346,-1.004 5.637,-4.084 5.637,-7.577l-3.106,-410.521c0,-2.653 -2.15,-4.804 -4.804,-4.804l-128.333,0.47c-1.789,-0 -3.395,1.099 -4.042,2.767l-40.757,103.975c0,0 -4.999,-0.033 -4.999,-0.033c-0,-0.001 1.153,-130.476 1.153,-130.476c31.456,0.374 179.251,2.071 289.999,2.333c55.102,0.131 101.029,-0.2 118.884,-0.355c0,-0 1.262,126.719 1.262,126.719c-0,-0 -1.998,0.021 -1.998,0.021c-0,0 -41.014,-102.534 -41.014,-102.534c-0.792,-2.042 -2.756,-3.387 -4.946,-3.387l-128.334,1.261c-2.233,-0 -4.043,1.81 -4.043,4.043c-0,0 0.388,33.846 0.478,82.105c0.046,24.501 -0.025,52.717 -0.172,82.104c-0.575,114.308 -1.958,246.312 -1.958,246.312c-0,2.515 1.65,4.733 4.059,5.456l68.091,21.129c-0,-0 -0.034,3.241 -0.034,3.241l-186.669,-1.948Z" style="fill:#646464;"/><path d="M2592.34,4348.21l-0,-14.584l57.604,-21.875l-0,-408.333l-57.604,-21.875l-0,-14.583l344.166,-0l0,122.5l-12.396,-0l-39.375,-88.23l-177.916,0l-0,181.563l127.604,-0l29.167,-60.521l12.395,0l0,153.854l-12.395,0l-29.167,-59.062l-127.604,-0l-0,196.875l198.333,-0l39.375,-95.521l12.396,-0l-0,129.792l-364.583,-0Z" style="fill:#646464;fill-rule:nonzero;"/><path d="M2583.66,4348.21c0,4.794 3.887,8.68 8.681,8.68l364.583,-2.937c3.172,-0 5.743,-2.572 5.743,-5.743l-0.904,-129.792c-0,-2.673 -2.167,-4.839 -4.839,-4.839l-12.396,0.086c-1.925,0 -3.66,1.162 -4.394,2.942l-37.758,93.239c-12.831,0.08 -67.813,0.409 -116.223,0.507c-34.333,0.069 -65.359,0.007 -75.696,-0.018c0,-0.001 1.234,-188.327 1.234,-188.327c-0,-0 118.975,0.991 118.975,0.991c0,-0 27.077,56.015 27.077,56.015c1.099,2.225 3.366,3.634 5.848,3.634l12.395,0.105c3.66,-0 6.627,-2.967 6.627,-6.627l1.254,-153.854c0,-4.352 -3.528,-7.881 -7.881,-7.881l-12.395,-0.08c-3.057,0 -5.845,1.751 -7.172,4.505l-27.208,55.616c-0,0 -113.991,-0.083 -113.991,-0.083c0,-0 -0.983,-165.799 -0.983,-165.799c-0,0 166.596,-1.206 166.596,-1.206c-0,-0 38.362,84.31 38.362,84.31c0.866,1.94 2.792,3.19 4.916,3.19l12.396,-0.09c2.924,-0 5.295,-2.37 5.295,-5.294l-0.737,-122.5c0,-2.518 -2.04,-4.558 -4.558,-4.558c0,-0 -86.041,0.263 -172.083,0.11c-86.043,-0.153 -172.083,-0.724 -172.083,-0.724c-2.856,0 -5.172,2.315 -5.172,5.172l-0.078,14.583c-0,2.18 1.347,4.134 3.386,4.908l53.862,20.786c0,0 -2.526,398.825 -2.526,398.825c-0,0 -52.518,19.543 -52.518,19.543c-3.332,1.265 -5.535,4.458 -5.535,8.021l-0.1,14.584Zm284.518,-317.038l1.129,138.384c-0,0 -1.719,0.015 -1.719,0.015c0,-0 -27.815,-55.149 -27.815,-55.149c-1.005,-2.036 -3.079,-3.324 -5.349,-3.324l-127.604,1.062c-2.708,0 -4.904,2.196 -4.904,4.904l1.29,196.875c0,1.996 1.618,3.614 3.614,3.614c-0,-0 37.173,-0.114 79.333,-0.028c55.224,0.112 119,0.524 119,0.524c1.665,-0 3.166,-1.004 3.8,-2.544l38.726,-92.312c-0,-0.001 4.373,0.03 4.373,0.03c-0,0 -0.831,119.197 -0.831,119.197l-350.259,-2.821l-0.001,-0.111c0,-0 51.884,-20.101 51.884,-20.101c3.171,-1.204 5.268,-4.243 5.268,-7.636l-2.587,-408.333c0,-2.318 -1.432,-4.395 -3.6,-5.218l-54.355,-20.307c-0,-0 -0.031,-5.795 -0.031,-5.795c19.838,-0.124 93.36,-0.56 166.884,-0.691c74.304,-0.132 148.608,0.046 167.498,0.097c0,0 -0.677,112.623 -0.677,112.623c0,0 -3.601,-0.026 -3.601,-0.026c-0,-0 -37.351,-85.351 -37.351,-85.351c-0.978,-2.192 -3.155,-3.605 -5.557,-3.605l-177.916,-1.288c-4.072,-0 -7.374,3.301 -7.374,7.373l-1.077,181.563c0,4.667 3.784,8.45 8.451,8.45l127.604,-0.093c3.209,-0 6.135,-1.838 7.528,-4.729l26.226,-55.249Z" style="fill:#646464;"/><path d="M3041.51,4348.21l0,-14.584l43.75,-18.229l185.938,-452.083l25.521,-0l185.208,451.354l45.937,18.958l0,14.584l-169.895,-0l-0,-14.584l62.708,-18.958l-56.875,-142.188l-180.104,0l-56.146,142.917l62.708,18.229l0,14.584l-148.75,-0Zm156.042,-210l152.396,-0l-76.563,-191.042l-75.833,191.042Z" style="fill:#646464;fill-rule:nonzero;"/><path d="M3032.83,4348.21c-0,4.794 3.886,8.68 8.68,8.68l148.75,-1.797c3.802,-0 6.884,-3.082 6.884,-6.883l-0.176,-14.584c-0,-2.983 -1.971,-5.608 -4.835,-6.44l-56.697,-15.771c-0,0 51.293,-134.584 51.293,-134.584c12.532,-0.126 61.682,-0.599 105.031,-0.736c32.101,-0.101 61.019,0.008 69.523,0.046c0,0 52.409,135.069 52.409,135.069c-0,0 -57.478,16.614 -57.478,16.614c-2.557,0.773 -4.307,3.13 -4.307,5.802l-0.18,14.584c-0,3.447 2.794,6.242 6.242,6.242l169.895,1.958c4.529,0 8.201,-3.671 8.201,-8.2l0.129,-14.584c-0,-3.373 -2.034,-6.412 -5.152,-7.699l-42.549,-17.793c-4.201,-10.175 -17.835,-43.139 -36.148,-86.798c-30.452,-72.6 -73.962,-174.698 -106.355,-251.676c-26.193,-62.246 -45.251,-107.996 -45.251,-107.996c-0.67,-1.631 -2.258,-2.696 -4.02,-2.696l-25.521,0.029c-1.75,-0 -3.327,1.056 -3.993,2.675c0,-0 -24.651,59.607 -56.415,135.364c-51.383,122.55 -121.188,287.418 -131.657,312.137c-0,-0 -40.905,16.575 -40.905,16.575c-3.181,1.325 -5.253,4.433 -5.253,7.878l-0.145,14.584Zm17.275,-8.577l-0.004,-0.401c0,-0 38.263,-16.385 38.263,-16.385c1.977,-0.824 3.546,-2.4 4.36,-4.38c0,-0 73.454,-184.079 127.319,-317.626c26.912,-66.724 48.986,-120.806 54.053,-133.207c-0,-0 19.69,0.022 19.69,0.022c4.314,10.686 21.041,52.155 42.561,105.961c31.014,77.544 71.758,180.776 101.079,253.841c21.358,53.226 36.58,90.46 36.58,90.46c0.868,2.113 2.543,3.792 4.655,4.664l40.924,16.666c-0,-0 0.007,0.856 0.007,0.856c0,0 -155.459,1.793 -155.459,1.793c-0,-0 -0.048,-3.846 -0.048,-3.846c-0,0 58.115,-18.347 58.115,-18.347c1.411,-0.426 2.579,-1.426 3.218,-2.755c0.64,-1.329 0.692,-2.866 0.144,-4.235l-58.35,-141.598c-0.558,-1.394 -1.908,-2.308 -3.41,-2.308c-0,-0 -33.757,0.178 -72.042,0.057c-50.149,-0.157 -108.062,-0.766 -108.062,-0.766c-1.802,-0 -3.42,1.102 -4.079,2.779l-57.604,142.344c-0.612,1.556 -0.54,3.298 0.198,4.799c0.737,1.501 2.073,2.622 3.678,3.089l57.602,17.472c0,0 -0.032,2.662 -0.032,2.662l-133.356,-1.611Zm139.379,-204.626c-1.061,2.673 -0.729,5.699 0.886,8.079c1.616,2.379 4.306,3.804 7.182,3.804c-0,0 61.75,-2.492 106.677,-3.616c25.608,-0.64 45.719,-0.738 45.719,-0.738c1.436,0 2.779,-0.712 3.583,-1.902c0.805,-1.189 0.967,-2.701 0.433,-4.034c-0,0 -3.481,-8.966 -8.682,-23.128c-8.447,-23.004 -20.703,-59.884 -33.412,-93.037c-3.046,-7.947 -6.223,-15.634 -9.329,-22.868c-12.889,-30.01 -23.728,-52.574 -23.728,-52.574c-0.89,-2.222 -3.044,-3.676 -5.437,-3.672c-2.393,0.004 -4.542,1.465 -5.425,3.69c-0,-0 -6.537,19.829 -16.291,46.608c-1.798,4.935 -3.733,10.093 -5.83,15.377c-1.974,4.974 -4.109,10.048 -6.301,15.19c-8.078,18.944 -16.885,38.781 -24.753,56.518c-14.032,31.635 -25.292,56.303 -25.292,56.303Zm20.041,-5.008c3.622,-10.551 9.475,-27.497 16.303,-46.908c6.438,-18.304 13.633,-38.781 20.747,-58.108c1.932,-5.246 3.857,-10.403 5.832,-15.376c2.098,-5.284 4.227,-10.365 6.304,-15.19c5.409,-12.569 10.26,-23.464 13.842,-31.394c3.381,9.88 8.441,24.329 14.552,40.73c2.749,7.377 5.761,15.13 9.045,22.981c13.704,32.755 30.311,67.891 40.088,90.363c3.057,7.025 5.509,12.775 7.182,16.734c-7.938,-0.079 -22.38,-0.266 -39.191,-0.686c-32.789,-0.82 -74.539,-2.369 -94.704,-3.146Z" style="fill:#646464;"/><path d="M3599.32,4348.21l-0,-14.584l58.333,-21.875l0,-408.333l-58.333,-21.875l-0,-14.583l195.416,-0c53.959,-0 99.775,9.479 137.448,28.437c37.674,18.958 66.355,44.965 86.042,78.021c19.688,33.055 29.531,70.486 29.531,112.292c0,52.013 -10.937,97.708 -32.812,137.083c-21.875,39.375 -52.257,70.121 -91.146,92.24c-38.889,22.118 -83.611,33.177 -134.167,33.177l-190.312,-0Zm188.125,-446.98l-72.917,0l0,412.709l80.938,-0c38.889,-0 72.795,-8.629 101.718,-25.886c28.924,-17.257 51.285,-41.319 67.084,-72.187c15.798,-30.868 23.698,-66.719 23.698,-107.552c-0,-41.806 -7.778,-78.264 -23.334,-109.375c-15.555,-31.111 -38.281,-55.174 -68.177,-72.188c-29.896,-17.014 -66.232,-25.521 -109.01,-25.521Z" style="fill:#646464;fill-rule:nonzero;"/><path d="M3590.64,4348.21c0,4.794 3.887,8.68 8.681,8.68l190.312,-2.737c24.919,-0.307 48.41,-3.225 70.482,-8.769c23.546,-5.914 45.478,-14.781 65.788,-26.654c19.705,-11.435 37.164,-25.103 52.554,-40.84c15.312,-15.659 28.599,-33.373 39.668,-53.331c11.74,-20.635 20.439,-43.042 26.287,-67.18c5.422,-22.381 8.381,-46.254 8.755,-71.669c0.309,-20.959 -1.845,-40.871 -6.393,-59.756c-4.787,-19.878 -12.273,-38.597 -22.403,-56.196c-10.236,-17.736 -22.94,-33.596 -38.167,-47.519c-14.469,-13.229 -31.24,-24.657 -50.21,-34.411c-20.716,-10.362 -43.777,-18.081 -69.256,-22.787c-22.185,-4.099 -46.198,-5.897 -72.001,-5.618c0,-0 -195.416,2.499 -195.416,2.499c-2.782,-0 -5.038,2.255 -5.038,5.038l0.153,14.583c-0,2.036 1.263,3.859 3.17,4.574l55.678,20.358c0.006,12.308 -0.005,60.426 -0.412,119.443c-0.741,107.357 -2.54,250.762 -2.918,280.355c0,0 -53.62,19.389 -53.62,19.389c-3.319,1.245 -5.519,4.419 -5.519,7.964l-0.175,14.584Zm17.259,-8.558l-0.003,-0.233c-0,0 52.486,-20.392 52.486,-20.392c3.033,-1.137 5.042,-4.037 5.042,-7.276c0,0 -2.157,-165.545 -2.988,-285.833c-0.473,-68.617 -0.41,-122.5 -0.41,-122.5c-0,-1.822 -1.131,-3.454 -2.837,-4.093l-54.948,-21.124c-0,0 0.064,-6.14 0.064,-6.14c0,0 190.432,2.435 190.432,2.435c24.73,0.268 47.668,2.643 68.877,6.852c23.8,4.723 45.409,11.821 64.762,21.618c17.782,8.755 33.501,19.154 47.218,31.142c14.369,12.558 26.574,26.831 36.489,42.969c9.975,16.195 17.499,33.517 22.533,51.996c4.857,17.827 7.44,36.701 7.734,56.637c0.362,24.646 -1.723,47.893 -6.44,69.72c-5.083,23.522 -13.177,45.376 -24.143,65.597c-10.767,19.346 -23.557,36.636 -38.554,51.686c-15.031,15.084 -32.265,27.892 -51.516,38.622c-19.823,10.965 -41.136,19.013 -63.94,24.158c-21.398,4.828 -44.105,7.069 -68.124,6.773l-181.734,-2.614Zm179.547,-447.102l-72.917,1.238c-4.11,0 -7.442,3.332 -7.442,7.442c0,0 1.587,82.25 2.598,173.338c0.273,24.602 0.568,49.846 0.536,74.288c-0.03,23.145 -0.36,45.563 -0.648,66.033c-0.803,57.138 -1.811,99.05 -1.811,99.05c-0,3.737 3.03,6.767 6.767,6.767l80.938,1.397c19.411,0.133 37.676,-1.679 54.683,-5.871c18.499,-4.559 35.481,-11.858 51.067,-21.421c15.004,-9.376 28.261,-20.47 39.712,-33.381c11.196,-12.621 20.708,-26.911 28.481,-42.933c8.094,-16.672 13.949,-34.668 17.629,-54.014c3.349,-17.604 4.944,-36.313 4.617,-56.169c0.015,-20.168 -1.878,-39.086 -5.324,-56.823c-3.814,-19.635 -9.591,-37.839 -17.669,-54.567c-7.698,-16.098 -17.29,-30.396 -28.714,-42.959c-11.556,-12.707 -25.018,-23.591 -40.369,-32.703c-16.187,-9.664 -34.294,-16.864 -54.314,-21.68c-17.759,-4.273 -37.026,-6.597 -57.82,-7.032Zm0,17.361c19.559,-0.409 37.76,1 54.619,4.318c18.773,3.695 35.865,9.666 51.267,18.011c14.629,7.975 27.562,17.661 38.766,29.126c11.205,11.465 20.707,24.655 28.506,39.587c8.211,15.873 14.473,33.18 18.415,52.014c3.606,17.228 5.244,35.7 5.258,55.347c-0.316,19.249 -2.363,37.346 -6.247,54.279c-4.19,18.26 -10.541,35.12 -18.903,50.641c-7.884,14.627 -17.31,27.576 -28.241,38.905c-11.014,11.415 -23.598,21.113 -37.732,29.157c-14.424,8.365 -30.147,14.304 -47.038,18.367c-15.798,3.801 -32.643,5.989 -50.649,6.111c-0,0 -74.328,1.283 -74.328,1.283c-0.315,-14.126 -1.044,-48.751 -1.654,-92.168c-0.288,-20.47 -0.618,-42.888 -0.648,-66.033c-0.032,-24.442 0.263,-49.686 0.536,-74.288c0.829,-74.693 2.046,-143.442 2.457,-165.771l65.616,1.114Z" style="fill:#646464;"/><path d="M4142.55,4348.21l-0,-14.584l57.604,-21.875l0,-408.333l-57.604,-21.875l-0,-14.583l172.083,-0l0,14.583l-57.604,21.875l0,408.333l57.604,21.875l0,14.584l-172.083,-0Z" style="fill:#646464;fill-rule:nonzero;"/><path d="M4133.87,4348.21c0,4.794 3.887,8.68 8.681,8.68l172.083,-2.907c3.189,0 5.774,-2.585 5.774,-5.773l-0.213,-14.584c0,-2.309 -1.427,-4.378 -3.587,-5.198l-54.98,-19.967c-0.208,-10.857 -0.846,-47.543 -1.006,-94.71c-0.068,-20.252 0.033,-42.436 0.272,-65.333c1.038,-99.859 3.398,-213.259 3.958,-239.419c-0,0 52.816,-19.468 52.816,-19.468c3.317,-1.26 5.511,-4.439 5.511,-7.988l-0.002,-14.583c-0,-4.718 -3.825,-8.543 -8.543,-8.543c0,0 -32.253,0.18 -68.833,0.622c-47.921,0.579 -103.25,1.564 -103.25,1.564c-3.511,0 -6.357,2.846 -6.357,6.357l0.222,14.583c-0,2.548 1.575,4.831 3.957,5.735l54.649,19.809c0.159,9.239 0.563,35.21 0.748,69.831c0.08,14.94 0.054,31.49 -0.018,49c-0.112,27.091 -0.373,56.476 -0.673,85.75c-0.892,86.897 -2.132,172.792 -2.455,194.725c-0,0 -53.081,19.312 -53.081,19.312c-3.29,1.249 -5.466,4.402 -5.466,7.921l-0.207,14.584Zm17.24,-8.536l-0.004,-0.322c-0,0 51.751,-20.486 51.751,-20.486c2.955,-1.122 4.909,-3.954 4.909,-7.115c0,0 -1.501,-99.368 -2.534,-200.083c-0.301,-29.274 -0.562,-58.659 -0.673,-85.75c-0.072,-17.51 -0.099,-34.06 -0.019,-49c0.234,-43.613 0.814,-73.5 0.814,-73.5c0,-2.159 -1.334,-4.094 -3.353,-4.861l-53.252,-21.153c-0,0 0.06,-3.979 0.06,-3.979c15.797,0.273 58.753,0.993 96.992,1.455c25.186,0.305 48.321,0.485 60.29,0.567c-0.001,0 -0.001,0.262 -0.001,0.262c0.001,0 -51.879,20.284 -51.879,20.284c-3.084,1.171 -5.123,4.126 -5.123,7.425c-0,-0 2.896,131.281 4.079,245c0.238,22.897 0.339,45.081 0.271,65.333c-0.191,56.526 -1.07,98 -1.07,98c-0,1.937 1.197,3.671 3.007,4.359l53.644,21.271c-0,-0 -0.073,4.959 -0.073,4.959l-157.836,-2.666Z" style="fill:#646464;"/><path d="M4410.89,4348.21l0,-14.584l57.604,-21.875l0,-407.604l-56.875,-22.604l0,-14.583l102.084,-0l285.833,371.145l0,-335.416l-68.542,-21.146l0,-14.583l167.709,-0l-0,14.583l-57.604,21.875l-0,448.437l-22.605,0l-307.708,-397.395l0,356.562l70,22.604l0,14.584l-169.896,-0Z" style="fill:#646464;fill-rule:nonzero;"/><path d="M4402.2,4348.21c-0,4.794 3.886,8.68 8.68,8.68l169.896,-1.271c4.092,0 7.41,-3.317 7.41,-7.409l-0.109,-14.584c-0,-3.167 -2.043,-5.974 -5.057,-6.947l-65.525,-20.62c-0,-0 -2.233,-338.769 -2.233,-338.769c21.702,27.634 84.416,107.616 146.552,188.048c76.817,99.439 152.743,199.558 152.743,199.558c0.941,1.215 2.391,1.926 3.927,1.926l22.605,0.171c2.837,-0 5.137,-2.3 5.137,-5.138l3.163,-442.648c0,-0 52.329,-19.699 52.329,-19.699c3.308,-1.256 5.495,-4.426 5.495,-7.965l0.042,-14.583c0,-4.729 -3.833,-8.563 -8.562,-8.563l-167.709,0.548c-4.426,0 -8.014,3.588 -8.014,8.015l0.069,14.583c0,3.486 2.272,6.564 5.603,7.592l63.443,19.121c0,-0 2.065,314.404 2.065,314.404c-21.912,-28.059 -78.215,-100.256 -134.128,-172.756c-71.521,-92.739 -142.399,-185.971 -142.399,-185.971c-0.939,-1.22 -2.391,-1.934 -3.93,-1.934l-102.084,-0.498c-3.014,-0 -5.458,2.444 -5.458,5.459l-0.071,14.583c-0,2.266 1.382,4.302 3.487,5.139l53.066,21.391c-0,-0 -2.331,397.961 -2.331,397.961c0,-0 -52.471,19.562 -52.471,19.562c-3.335,1.267 -5.54,4.463 -5.54,8.03l-0.091,14.584Zm17.307,-8.616l-0.001,-0.094c0,-0 51.895,-20.068 51.895,-20.068c3.19,-1.212 5.299,-4.269 5.299,-7.681l-2.387,-407.604c0,-2.388 -1.457,-4.534 -3.676,-5.416l-53.516,-20.968c-0,0 -0.026,-5.371 -0.026,-5.371c-0,-0 94.185,-0.46 94.185,-0.46c10.726,13.758 76.589,98.286 141.916,183.229c71.398,92.836 142.151,186.163 142.151,186.163c1.378,1.788 3.742,2.502 5.879,1.774c2.137,-0.727 3.574,-2.735 3.574,-4.993l2.204,-335.416c-0,-3.281 -2.139,-6.178 -5.273,-7.146l-62.774,-19.815c0,0 0.004,-0.728 0.004,-0.728c-0,-0 151.194,0.494 151.194,0.494c0,0 0.001,0.195 0.001,0.195c-0,0 -52.029,19.93 -52.029,19.93c-3.239,1.23 -5.381,4.334 -5.381,7.799l3.169,443.339c-0,-0 -15.039,0.113 -15.039,0.113c-11.27,-14.267 -82.721,-104.788 -153.429,-195.893c-77.04,-99.264 -153.191,-199.212 -153.191,-199.212c-1.152,-1.488 -3.123,-2.079 -4.904,-1.47c-1.78,0.609 -2.977,2.283 -2.977,4.165c0,-0 -2.35,356.562 -2.35,356.562c-0,2.93 1.889,5.525 4.676,6.425l64.735,21.439c0,-0 -0.014,1.859 -0.014,1.859l-153.915,-1.151Z" style="fill:#646464;"/><path d="M5224.64,4355.5c-46.666,0 -88.35,-10.208 -125.052,-30.625c-36.701,-20.416 -65.503,-48.246 -86.406,-83.489c-20.903,-35.243 -31.354,-75.469 -31.354,-120.677c-0,-37.431 6.684,-71.945 20.052,-103.542c13.368,-31.597 31.719,-59.184 55.052,-82.76c23.333,-23.577 50.556,-41.928 81.667,-55.053c31.111,-13.125 64.166,-19.687 99.166,-19.687c25.764,-0 47.518,1.458 65.261,4.375c17.743,2.917 33.784,7.049 48.125,12.396c14.34,5.347 28.316,11.423 41.927,18.229l3.646,117.396l-13.125,-0l-39.375,-81.667c-20.417,-14.583 -38.646,-24.913 -54.688,-30.989c-16.042,-6.077 -34.271,-9.115 -54.687,-9.115c-39.375,-0 -73.889,8.75 -103.542,26.25c-29.653,17.5 -52.865,41.198 -69.635,71.094c-16.771,29.896 -25.157,63.073 -25.157,99.531c0,48.611 9.236,90.174 27.709,124.687c18.472,34.514 43.142,61.007 74.01,79.48c30.868,18.472 64.774,27.708 101.719,27.708c17.014,-0 33.42,-1.094 49.219,-3.281c15.798,-2.188 32.204,-6.684 49.218,-13.49l0,-127.604l-64.166,-23.333l-0,-14.584l173.541,0l0,14.584l-52.5,23.333l0,122.5c-20.902,17.986 -47.152,32.205 -78.75,42.656c-31.597,10.452 -62.222,15.677 -91.875,15.677Z" style="fill:#646464;fill-rule:nonzero;"/><path d="M5224.64,4364.18c15.743,-0.143 31.737,-1.699 47.985,-4.701c15.226,-2.814 30.678,-6.877 46.351,-12.218c15.419,-5.254 29.586,-11.368 42.498,-18.356c14.321,-7.749 27.114,-16.549 38.373,-26.415c1.551,-1.334 2.443,-3.278 2.443,-5.324l-1.04,-118.68c0,0 48.755,-22.115 48.755,-22.115c1.991,-0.885 3.274,-2.859 3.274,-5.038l-0.111,-14.584c0,-2.984 -2.419,-5.403 -5.403,-5.403l-173.541,1.256c-2.291,0 -4.147,1.857 -4.147,4.147l0.083,14.584c0,1.708 1.069,3.235 2.675,3.818l61.854,22.122c-0,-0 -0.007,122.458 -0.007,122.458c-7.293,2.785 -14.47,5.14 -21.531,7.059c-8.34,2.268 -16.518,3.922 -24.532,4.977c-7.939,1.045 -16.03,1.811 -24.274,2.292c-7.988,0.467 -16.118,0.66 -24.392,0.597c-17.923,-0.163 -35.091,-2.548 -51.509,-7.146c-16.593,-4.648 -32.408,-11.579 -47.46,-20.773c-15.232,-9.305 -28.865,-20.637 -40.916,-33.982c-11.542,-12.781 -21.608,-27.422 -30.236,-43.903c-9.304,-17.778 -16.066,-37.446 -20.335,-58.994c-3.841,-19.382 -5.636,-40.279 -5.429,-62.692c0.136,-17.282 2.234,-33.779 6.262,-49.502c4.135,-16.145 10.337,-31.462 18.601,-45.957c8.075,-14.277 17.704,-27.047 28.839,-38.36c11.105,-11.284 23.716,-21.115 37.874,-29.457c14.611,-8.702 30.475,-15.159 47.586,-19.411c16.108,-4.003 33.311,-6.076 51.619,-6.181c9.32,-0.065 18.168,0.528 26.544,1.791c9.039,1.363 17.527,3.486 25.454,6.417c8.458,3.128 17.553,7.475 27.289,13.039c7.774,4.444 15.949,9.647 24.522,15.615c0.005,0.003 39.196,79.671 39.196,79.671c1.064,2.206 3.296,3.608 5.745,3.608l13.125,-0.104c1.697,0 3.322,-0.688 4.504,-1.907c1.181,-1.219 1.819,-2.864 1.766,-4.561l-4.577,-117.367c-0.061,-1.963 -1.194,-3.734 -2.95,-4.612c-6.927,-3.395 -13.943,-6.606 -21.052,-9.63c-7.085,-3.013 -14.259,-5.843 -21.525,-8.487c-7.636,-2.797 -15.739,-5.259 -24.313,-7.379c-7.867,-1.945 -16.13,-3.607 -24.791,-4.978c-8.007,-1.269 -16.815,-2.236 -26.423,-2.92c-11.952,-0.85 -25.15,-1.264 -39.598,-1.205c-17.626,0.018 -34.76,1.697 -51.417,4.964c-16.986,3.331 -33.479,8.316 -49.469,15.025c-15.777,6.597 -30.571,14.524 -44.401,23.754c-13.974,9.327 -26.959,19.99 -38.95,32.005c-12.056,12.056 -22.816,25.166 -32.304,39.311c-9.326,13.904 -17.416,28.813 -24.263,44.737c-7.082,16.469 -12.377,33.728 -15.898,51.776c-3.36,17.228 -5.091,35.177 -5.201,53.847c-0.147,22.551 2.281,43.904 7.221,64.069c5.233,21.363 13.308,41.391 24.218,60.096c10.714,18.37 23.521,34.805 38.39,49.333c14.686,14.35 31.404,26.817 50.141,37.42c19.412,10.986 40.209,19.18 62.381,24.614c20.911,5.126 43.053,7.768 66.427,7.94Zm0.001,-17.361c-22.005,0.161 -42.886,-2.003 -62.64,-6.539c-20.803,-4.777 -40.358,-12.153 -58.657,-22.158c-17.722,-9.689 -33.578,-21.148 -47.552,-34.407c-14.166,-13.442 -26.413,-28.711 -36.729,-45.818c-10.527,-17.457 -18.411,-36.198 -23.615,-56.239c-4.971,-19.146 -7.514,-39.464 -7.654,-60.95c-0.106,-17.923 1.349,-35.172 4.38,-51.748c3.165,-17.306 8.035,-33.877 14.625,-49.713c6.409,-15.399 14.013,-29.844 22.839,-43.322c8.981,-13.713 19.216,-26.429 30.698,-38.151c11.452,-11.668 23.865,-22.056 37.258,-31.138c13.286,-9.011 27.532,-16.741 42.724,-23.207c15.41,-6.536 31.304,-11.457 47.698,-14.688c16.111,-3.174 32.699,-4.715 49.749,-4.698c11.644,0.043 22.462,0.374 32.451,1.022c11.858,0.769 22.54,1.983 32.049,3.603c8.366,1.426 16.345,3.125 23.937,5.097c8.189,2.126 15.925,4.573 23.209,7.337c7.055,2.695 14.017,5.57 20.889,8.622c5.905,2.623 11.741,5.379 17.51,8.266c0.001,0.001 2.493,107.748 2.493,107.748c-0,-0 -2.649,-0.021 -2.649,-0.021c-0,-0 -37.04,-78.403 -37.04,-78.403c-0.517,-1.074 -1.297,-1.999 -2.267,-2.692c-9.391,-6.821 -18.334,-12.739 -26.822,-17.77c-10.434,-6.184 -20.206,-11.02 -29.299,-14.547c-8.825,-3.423 -18.288,-5.973 -28.388,-7.65c-9.136,-1.517 -18.799,-2.3 -28.989,-2.371c-19.679,-0.113 -38.197,1.9 -55.552,6.034c-18.801,4.479 -36.235,11.464 -52.327,20.874c-15.46,9.138 -29.256,19.875 -41.341,32.256c-12.11,12.408 -22.506,26.458 -31.217,42.114c-8.769,15.891 -15.3,32.639 -19.537,50.265c-4.08,16.973 -6.059,34.752 -5.912,53.339c0.217,23.467 2.516,45.306 6.911,65.523c4.95,22.77 12.524,43.493 22.741,62.166c9.442,17.26 20.381,32.538 32.832,45.829c13.036,13.916 27.706,25.673 44.037,35.244c16.04,9.402 32.841,16.404 50.418,20.984c17.273,4.501 35.287,6.684 54.051,6.513c8.464,-0.064 16.777,-0.397 24.941,-0.99c8.437,-0.614 16.714,-1.503 24.83,-2.682c8.338,-1.212 16.837,-3.054 25.499,-5.526c8.04,-2.295 16.223,-5.128 24.544,-8.514c1.408,-0.563 2.331,-1.927 2.331,-3.443l-0.006,-127.604c-0,-1.557 -0.974,-2.947 -2.437,-3.479l-61.352,-22.679c0,0 0.044,-7.582 0.044,-7.582c-0,-0 163.974,1.187 163.974,1.187c0,-0 -0.042,5.594 -0.042,5.594c-0,0 -49.431,21.52 -49.431,21.52c-2.149,0.956 -3.534,3.087 -3.534,5.439l-1.044,119.177c-10.045,8.179 -21.3,15.48 -33.75,21.93c-12.318,6.382 -25.809,11.908 -40.465,16.61c-14.996,4.811 -29.757,8.417 -44.284,10.831c-15.306,2.544 -30.348,3.739 -45.13,3.605Z" style="fill:#646464;"/></g><path d="M1707.31,1582.72c-0,-0 -85.06,2.47 -171.128,4.199c-74.705,1.501 -150.14,2.33 -171.42,3.046c-37.862,0.624 -87.528,3.137 -137.289,5.879c-102.379,5.643 -205.078,12.939 -205.078,12.939c-11.86,1.063 -20.625,11.554 -19.562,23.414c1.062,11.859 11.554,20.625 23.413,19.562c0,-0 101.937,-11.048 203.709,-19.201c49.147,-3.936 98.252,-7.053 135.693,-8.373c14.563,-0.317 54.6,-0.872 102.365,-0.767c102.167,0.225 239.529,2.449 239.529,2.449c11.907,-0.064 21.522,-9.783 21.458,-21.69c-0.064,-11.907 -9.783,-21.521 -21.69,-21.457Z" style="fill:#5db4a6;"/><path d="M2603.31,1592l-333.967,-2.016c-37.862,0.629 -87.527,3.156 -137.287,5.897c-102.38,5.64 -205.081,12.902 -205.081,12.902c-11.86,1.063 -20.625,11.554 -19.562,23.414c1.062,11.859 11.554,20.625 23.413,19.562c0,-0 101.934,-11.083 203.707,-19.238c49.147,-3.938 98.253,-7.04 135.694,-8.355c14.439,-0.306 53.108,0.12 99.12,1.5c99.411,2.983 232.81,9.467 232.81,9.467c11.903,0.318 21.825,-9.088 22.143,-20.991c0.318,-11.902 -9.087,-21.824 -20.99,-22.142Z" style="fill:#5db4a6;"/><path d="M3513.6,1593.27l-341.175,-7.811c-57.152,-1.134 -118.492,-1.281 -173.471,-1.38c-96.546,-0.173 -173.428,0.363 -173.428,0.363c-11.903,0.315 -21.311,10.234 -20.996,22.137c0.315,11.903 10.234,21.311 22.137,20.997c-0,-0 76.535,-3.526 172.706,-5.838c54.726,-1.316 115.799,-2.068 172.715,-2.075c38.538,0.636 87.279,2.097 135.679,4.399c102.602,4.88 203.663,12.301 203.663,12.301c11.892,0.599 22.033,-8.569 22.632,-20.462c0.599,-11.892 -8.57,-22.033 -20.462,-22.631Z" style="fill:#5db4a6;"/><path d="M4656.08,1582.74c-0,0 -108.449,-2.668 -214.499,-4.429c-53.015,-0.88 -105.421,-1.86 -143.484,-1.087c-35.93,0.188 -83.652,2.238 -131.585,4.603c-97.806,4.827 -196.426,11.535 -196.426,11.535c-11.863,1.024 -20.664,11.486 -19.64,23.349c1.024,11.863 11.486,20.664 23.349,19.64c-0,0 97.845,-10.25 195.019,-17.565c47.256,-3.558 94.346,-6.304 129.814,-7.216c37.671,-0.401 89.537,0.425 141.964,2.458c105.591,4.095 213.419,11.811 213.419,11.811c11.894,0.571 22.013,-8.622 22.584,-20.515c0.571,-11.894 -8.622,-22.013 -20.515,-22.584Z" style="fill:#5db4a6;"/><path d="M6205.89,1607.92c0,0 -81.483,-7.68 -207.672,-10.957c-60.231,-1.564 -130.672,-2.576 -207.346,-0.496c-47.085,0.563 -116.279,1.29 -181.699,1.643c-94.87,0.512 -181.763,0.457 -181.763,0.457c-11.905,0.19 -21.417,10.01 -21.227,21.916c0.19,11.906 10.01,21.417 21.916,21.227l363.524,-10.848c75.925,-1.252 145.674,-0.139 205.257,2.672c124.102,5.856 203.954,17.237 203.954,17.237c11.825,1.396 22.558,-7.072 23.954,-18.897c1.395,-11.825 -7.073,-22.558 -18.898,-23.954Z" style="fill:#5db4a6;"/><path d="M5248.75,1588.01l-149.542,0.388l-150.127,2.375c-11.889,0.66 -21.005,10.848 -20.345,22.737c0.66,11.889 10.848,21.005 22.737,20.345c0,-0 44.713,-4.405 89.244,-7.699c21.584,-1.596 43.106,-2.783 59.376,-3.551c6.205,-0.1 23.266,0.147 43.594,1.189c44.23,2.27 103.525,7.337 103.525,7.337c11.9,0.424 21.905,-8.892 22.33,-20.792c0.424,-11.899 -8.892,-21.905 -20.792,-22.329Z" style="fill:#5db4a6;"/></g></svg>