<svg xmlns="http://www.w3.org/2000/svg" viewBox="0 0 465 465"><g id="Layer_2" data-name="Layer 2"><g id="Black_Solid" data-name="Black Solid"><g id="Insta"><path d="M235.08,184.57a49.48,49.48,0,1,0,49.48,49.48A49.48,49.48,0,0,0,235.08,184.57ZM298.36,109H171.81A61.78,61.78,0,0,0,110,170.77V297.33a61.78,61.78,0,0,0,61.78,61.77H298.36a61.78,61.78,0,0,0,61.78-61.77V170.77A61.78,61.78,0,0,0,298.36,109ZM235.08,315a81,81,0,1,1,81-81A81.07,81.07,0,0,1,235.08,315Zm81.14-141.95a19.4,19.4,0,1,1,19.4-19.4A19.39,19.39,0,0,1,316.22,173.08ZM232.5,0C104.09,0,0,104.09,0,232.5S104.09,465,232.5,465,465,360.91,465,232.5,360.91,0,232.5,0ZM391.63,297.33a93.37,93.37,0,0,1-93.27,93.27H171.81a93.38,93.38,0,0,1-93.28-93.27V170.77A93.38,93.38,0,0,1,171.81,77.5H298.36a93.37,93.37,0,0,1,93.27,93.27Z"/></g></g></g></svg>