<svg xmlns="http://www.w3.org/2000/svg" viewBox="0 0 465 465"><g id="Layer_2" data-name="Layer 2"><g id="Black_Solid" data-name="Black Solid"><path d="M249,211v-.57c-.12.19-.28.39-.39.57Z"/><path d="M232.5,0C104.09,0,0,104.09,0,232.5S104.09,465,232.5,465,465,360.91,465,232.5,360.91,0,232.5,0ZM157.58,362.28H98.75v-177h58.83ZM128.17,161.15h-.4c-19.73,0-32.52-13.61-32.52-30.6,0-17.37,13.17-30.57,33.3-30.57s32.52,13.2,32.9,30.57C161.45,147.54,148.69,161.15,128.17,161.15ZM369.75,362.28H310.92V267.59c0-23.79-8.51-40-29.81-40-16.26,0-25.93,10.94-30.19,21.52-1.55,3.79-1.95,9-1.95,14.35v98.84H190.12s.79-160.37,0-177H249v25.09c7.81-12,21.78-29.24,53-29.24,38.72,0,67.75,25.29,67.75,79.65Z"/></g></g></svg>