<?xml version="1.0" encoding="UTF-8" standalone="no"?><!DOCTYPE svg PUBLIC "-//W3C//DTD SVG 1.1//EN" "http://www.w3.org/Graphics/SVG/1.1/DTD/svg11.dtd"><svg width="100%" height="100%" viewBox="0 0 7142 2896" version="1.1" xmlns="http://www.w3.org/2000/svg" xmlns:xlink="http://www.w3.org/1999/xlink" xml:space="preserve" xmlns:serif="http://www.serif.com/" style="fill-rule:evenodd;clip-rule:evenodd;stroke-linejoin:round;stroke-miterlimit:2;"><rect id="Wordmark-Inverted" serif:id="Wordmark Inverted" x="0.72" y="0.669" width="7140.42" height="2894.17" style="fill:none;"/><g><path d="M501.899,523.184c0,0 808.759,-9.13 1838.83,-16.328c387.731,-2.709 806.796,-5.124 1225.88,-6.246c164.077,-0.439 328.156,-0.543 490.352,-0.127c252.08,0.646 499.603,2.126 735.527,3.963c1030.09,8.024 1838.83,18.738 1838.83,18.738c29.703,0 53.819,-24.116 53.819,-53.819c-0,-29.704 -24.116,-53.82 -53.819,-53.82c-0,0 -808.739,10.714 -1838.83,18.738c-235.925,1.838 -483.449,3.317 -735.529,3.964c-162.196,0.415 -326.274,0.311 -490.35,-0.128c-419.084,-1.122 -838.149,-3.537 -1225.88,-6.246c-1030.07,-7.197 -1838.83,-16.328 -1838.83,-16.328c-29.704,0 -53.819,24.116 -53.819,53.82c-0,29.703 24.115,53.819 53.819,53.819Z" style="fill:#5db4a6;"/><g><path d="M786.922,1576.66c-65.833,-0 -124.636,-14.401 -176.411,-43.203c-51.775,-28.802 -92.406,-68.061 -121.894,-117.779c-29.487,-49.717 -44.231,-106.464 -44.231,-170.239c-0,-52.804 9.429,-101.492 28.287,-146.067c18.859,-44.574 45.26,-83.491 79.205,-116.75c33.945,-33.259 72.862,-59.147 116.751,-77.662c43.888,-18.516 91.206,-27.773 141.952,-27.773c35.659,-0 66.175,2.057 91.548,6.171c25.373,4.115 48.004,9.944 67.89,17.487c19.887,7.544 39.774,16.116 59.661,25.716l5.144,169.725l-16.459,0l-66.861,-115.207c-28.802,-19.887 -53.318,-33.602 -73.548,-41.146c-20.229,-7.543 -43.374,-11.315 -69.433,-11.315c-52.803,0 -99.777,11.487 -140.923,34.46c-41.145,22.973 -73.376,54.518 -96.692,94.634c-23.316,40.117 -34.973,85.549 -34.973,136.295c-0,68.576 12.515,126.865 37.545,174.868c25.03,48.003 58.804,84.691 101.321,110.064c42.517,25.373 89.834,38.06 141.952,38.06c22.63,-0 44.402,-1.372 65.318,-4.115c20.916,-2.743 42.688,-8.572 65.318,-17.486l0,-169.726l-91.548,-41.145l-0,-16.458l255.102,-0l-0,16.458l-70.976,44.231l-0,161.496c-31.545,26.059 -70.462,46.975 -116.751,62.747c-46.288,15.773 -91.72,23.659 -136.294,23.659Z" style="fill:#e6e6e6;fill-rule:nonzero;"/><path d="M786.922,1582.73c23.155,-0.105 46.529,-2.301 70.121,-6.601c22.445,-4.09 45.089,-10.078 67.931,-17.976c22.333,-7.722 42.96,-16.621 61.882,-26.7c20.785,-11.071 39.518,-23.559 56.199,-37.466c1.115,-0.921 1.761,-2.292 1.761,-3.739c0,0 -0.693,-159.211 -0.693,-159.211c0,0.001 68.844,-43.267 68.844,-43.267c1.122,-0.699 1.804,-1.927 1.804,-3.249l-0.063,-16.458c0,-2.08 -1.686,-3.766 -3.765,-3.766l-255.102,0.91c-1.577,0 -2.856,1.279 -2.856,2.856l0.047,16.458c0,1.106 0.649,2.108 1.657,2.562l90.142,40.242c0,0 -0.054,166.276 -0.054,166.276c-10.258,3.941 -20.335,7.242 -30.233,9.903c-11.177,3.006 -22.125,5.192 -32.842,6.561c-10.582,1.352 -21.383,2.352 -32.404,2.993c-10.644,0.62 -21.493,0.903 -32.545,0.861c-25.417,-0.116 -49.664,-3.277 -72.744,-9.485c-23.66,-6.364 -46.087,-15.94 -67.286,-28.722c-21.37,-12.885 -40.469,-28.681 -57.301,-47.383c-16.069,-17.855 -30.064,-38.363 -42.001,-61.515c-12.971,-25.159 -22.445,-53.159 -28.446,-83.994c-5.328,-27.377 -7.909,-56.984 -7.762,-88.819c0.097,-24.313 2.918,-47.371 8.454,-69.178c5.78,-22.769 14.532,-44.168 26.267,-64.196c11.469,-19.651 25.139,-37.179 40.98,-52.612c15.717,-15.311 33.576,-28.559 53.6,-39.724c20.693,-11.6 42.905,-20.21 66.627,-25.874c22.443,-5.358 46.234,-8.089 71.382,-8.161c12.106,-0.037 23.569,0.762 34.391,2.393c11.822,1.781 22.876,4.548 33.157,8.335c9.094,3.35 19.074,7.972 29.945,13.86c12.699,6.877 26.594,15.466 41.689,25.764c0.005,0.004 66.737,113.949 66.737,113.949c0.812,1.399 2.307,2.259 3.923,2.259l16.459,-0.065c1.209,-0 2.366,-0.49 3.208,-1.358c0.842,-0.868 1.297,-2.039 1.26,-3.248c0,-0 -5.816,-169.705 -5.816,-169.705c-0.043,-1.415 -0.87,-2.689 -2.145,-3.305c-9.917,-4.739 -19.832,-9.225 -29.747,-13.457c-10.104,-4.312 -20.207,-8.362 -30.309,-12.148c-10.548,-3.961 -21.855,-7.444 -33.921,-10.451c-10.939,-2.726 -22.502,-5.064 -34.693,-7.004c-13.817,-2.2 -29.146,-3.786 -45.985,-4.772c-14.276,-0.836 -29.641,-1.245 -46.095,-1.21c-25.159,0.025 -49.474,2.329 -72.96,6.844c-24.284,4.668 -47.685,11.703 -70.192,21.173c-22.128,9.297 -43.002,20.46 -62.635,33.467c-19.665,13.027 -38.085,27.907 -55.251,44.656c-17.259,16.826 -32.594,35.103 -46.021,54.819c-13.305,19.537 -24.734,40.489 -34.278,62.863c-9.813,23.007 -17.137,47.109 -21.975,72.305c-4.622,24.071 -6.97,49.142 -7.047,75.213c-0.101,31.433 3.359,61.188 10.341,89.271c7.375,29.664 18.689,57.465 33.946,83.405c14.977,25.462 32.835,48.24 53.563,68.345c20.468,19.851 43.739,37.09 69.812,51.719c26.991,15.144 55.883,26.424 86.675,33.852c29.089,7.017 59.876,10.586 92.363,10.705Zm0,-12.152c-31.528,0.115 -61.433,-3.117 -89.712,-9.72c-29.835,-6.966 -57.86,-17.672 -84.073,-32.129c-25.364,-13.988 -48.034,-30.52 -68.004,-49.608c-20.238,-19.345 -37.708,-41.306 -52.408,-65.885c-14.991,-25.068 -26.175,-51.968 -33.531,-80.709c-7.006,-27.371 -10.545,-56.404 -10.644,-87.094c-0.075,-25.55 2.079,-50.132 6.469,-73.749c4.588,-24.678 11.614,-48.301 21.083,-70.867c9.227,-21.99 20.302,-42.601 33.24,-61.824c13.065,-19.41 28.026,-37.405 44.872,-53.994c16.8,-16.53 34.833,-31.24 54.112,-44.11c19.263,-12.86 39.768,-23.885 61.503,-33.091c22.097,-9.347 45.069,-16.349 68.931,-20.936c23.115,-4.444 47.06,-6.618 71.821,-6.594c16.318,0.035 31.553,0.496 45.706,1.397c16.597,1.057 31.701,2.717 45.311,4.965c11.978,1.979 23.339,4.339 34.08,7.087c11.775,3.012 22.803,6.492 33.086,10.432c9.972,3.828 19.943,7.917 29.913,12.266c9.09,3.965 18.179,8.148 27.268,12.547c0,0 4.288,162.829 4.288,162.829c0,0 -9.238,-0.036 -9.238,-0.036c0,-0 -65.112,-113.223 -65.112,-113.223c-0.375,-0.646 -0.888,-1.201 -1.502,-1.625c-15.697,-10.93 -30.138,-20.027 -43.316,-27.299c-11.325,-6.251 -21.736,-11.157 -31.223,-14.737c-10.917,-4.12 -22.663,-7.182 -35.24,-9.166c-11.347,-1.791 -23.373,-2.697 -36.079,-2.736c-26.081,-0.074 -50.774,2.605 -74.075,8.056c-24.833,5.81 -48.082,14.771 -69.762,26.828c-20.953,11.714 -39.651,25.594 -56.069,41.666c-16.556,16.206 -30.794,34.636 -42.734,55.267c-12.127,21.036 -21.14,43.479 -27.008,67.341c-5.576,22.678 -8.319,46.636 -8.219,71.874c0.151,32.545 3.079,62.785 8.784,90.721c6.471,31.689 16.505,60.422 30.099,86.202c12.505,23.717 27.111,44.687 43.819,62.913c17.53,19.124 37.367,35.234 59.52,48.318c21.896,12.932 45.023,22.562 69.388,28.879c23.663,6.134 48.49,9.152 74.487,9.033c11.179,-0.043 22.148,-0.42 32.908,-1.125c11.151,-0.73 22.077,-1.81 32.779,-3.25c10.949,-1.473 22.128,-3.783 33.536,-6.931c10.592,-2.923 21.383,-6.567 32.371,-10.938c0.999,-0.393 1.656,-1.358 1.656,-2.431l-0.056,-169.726c0,-1.006 -0.591,-1.92 -1.509,-2.332l-89.784,-40.623c0,0 0.034,-11.783 0.034,-11.783c-0,0 248.475,0.887 248.475,0.887c0,-0 -0.04,10.566 -0.04,10.566c-0,0 -69.349,42.852 -69.349,42.852c-1.215,0.757 -1.954,2.088 -1.954,3.519l-0.692,159.179c-15.853,12.769 -33.546,24.234 -53.073,34.411c-18.545,9.665 -38.745,18.159 -60.596,25.496c-22.354,7.504 -44.497,13.152 -66.431,16.946c-22.932,3.966 -45.634,5.895 -68.106,5.794Z" style="fill:#e6e6e6;"/><path d="M1193.23,1566.37l-0,-16.459l82.291,-41.145l-0,-563.693l-82.291,-41.146l-0,-16.458l265.388,-0c72.005,-0 128.751,14.915 170.24,44.746c41.488,29.83 62.232,70.804 62.232,122.922c0,38.402 -13.029,72.862 -39.088,103.378c-26.059,30.516 -60.69,53.66 -103.892,69.433l195.441,284.932l67.89,37.031l-0,16.459l-148.124,-0l-199.556,-311.678l-95.663,0l0,253.045l77.148,42.174l-0,16.459l-252.016,-0Zm241.73,-622.326l-66.862,-0l0,254.073l73.033,0c43.203,0 79.034,-12.172 107.493,-36.516c28.459,-24.345 42.688,-55.375 42.688,-93.092c0,-38.402 -14.058,-68.747 -42.174,-91.034c-28.116,-22.287 -66.175,-33.431 -114.178,-33.431Z" style="fill:#e6e6e6;fill-rule:nonzero;"/><path d="M1187.16,1566.37c0,3.355 2.721,6.076 6.077,6.076l252.016,-1.365c2.602,0 4.712,-2.109 4.712,-4.711l-0.089,-16.459c-0,-1.69 -0.923,-3.245 -2.406,-4.056l-75.209,-40.61c0,0 -1.125,-247.545 -1.125,-247.545c0,-0 91.171,-0.313 91.171,-0.313c5.664,8.767 40.466,62.676 79.17,123.329c55.433,86.867 118.94,187.515 118.94,187.515c0.634,0.991 1.73,1.591 2.907,1.591l148.124,0.81c2.354,0 4.263,-1.908 4.263,-4.262l0.091,-16.459c-0,-1.593 -0.87,-3.059 -2.269,-3.822l-66.657,-36.839c-6.633,-9.809 -64.78,-95.773 -115.791,-170.616c-32.964,-48.363 -62.965,-92.068 -73.794,-107.828c18.437,-7.291 35.271,-15.951 50.495,-25.99c18.514,-12.209 34.657,-26.448 48.439,-42.701c13.218,-15.629 23.146,-32.236 29.789,-49.82c6.81,-18.027 10.186,-37.077 10.09,-57.158c-0.127,-26.717 -5.542,-50.565 -16.214,-71.553c-10.786,-21.213 -26.931,-39.526 -48.501,-54.88c-23.111,-16.451 -50.803,-28.399 -83.107,-35.777c-26.716,-6.101 -56.6,-9.09 -89.657,-8.933c0,-0 -66.346,0.323 -132.694,0.414c-66.347,0.09 -132.694,-0.053 -132.694,-0.053c-1.72,0 -3.114,1.394 -3.114,3.114l-0.029,16.458c-0,1.191 0.673,2.279 1.737,2.811l80.315,40.409c0,0 -2.203,558.135 -2.203,558.135c0,0 -79.39,39.261 -79.39,39.261c-2.034,1.017 -3.318,3.095 -3.318,5.368l-0.075,16.459Zm12.126,-6.044l-0.03,-6.732c-0,0 78.775,-39.821 78.775,-39.821c1.897,-0.948 3.095,-2.887 3.095,-5.007l-2.225,-563.693c-0,-1.278 -0.722,-2.446 -1.865,-3.017l-80.66,-40.078c0,-0 -0.02,-11.401 -0.02,-11.401c13.858,-0.027 71.717,-0.126 129.575,-0.047c66.348,0.091 132.694,0.414 132.694,0.414c32.435,0.154 61.73,3.34 87.885,9.575c31.081,7.41 57.697,19.132 79.83,35.206c20.166,14.646 35.249,31.985 45.212,52.049c9.836,19.808 14.658,42.267 14.538,67.363c-0.089,18.786 -3.398,36.58 -9.928,53.383c-6.38,16.414 -15.847,31.872 -28.369,46.395c-13.206,15.356 -28.654,28.764 -46.324,40.257c-16.52,10.745 -34.983,19.809 -55.39,27.194c-1.725,0.63 -3.062,2.022 -3.622,3.77c-0.56,1.749 -0.279,3.659 0.759,5.173c0,0 36.562,53.453 78.286,113.898c54.652,79.176 118.111,170.379 118.111,170.379c0.427,0.621 0.993,1.133 1.654,1.493l65.841,35.441c0,0 0.053,9.61 0.053,9.61c0,0 -141.969,0.777 -141.969,0.777c-8.527,-13.13 -67.924,-104.628 -119.488,-184.897c-42.52,-66.189 -79.671,-124.768 -79.671,-124.768c-0.494,-0.772 -1.348,-1.239 -2.265,-1.239l-95.663,-0.328c-1.666,-0 -3.017,1.351 -3.017,3.017l-1.151,253.045c0,1.524 0.832,2.926 2.169,3.657l74.509,41.234c0,0 -0.048,9.004 -0.048,9.004l-241.281,-1.306Zm235.681,-622.358l-66.862,1.143c-2.724,0 -4.933,2.209 -4.933,4.933c0,-0 0.949,50.635 1.566,106.711c0.167,15.145 0.349,30.686 0.336,45.733c-0.015,18.189 -0.251,35.651 -0.46,50.815c-0.412,29.874 -0.941,50.814 -0.941,50.814c-0,2.448 1.984,4.433 4.432,4.433l73.033,1.287c10.324,0.094 20.254,-0.421 29.761,-1.765c10.214,-1.444 19.946,-3.77 29.178,-6.9c19.348,-6.558 36.505,-16.661 51.558,-30.06c14.463,-12.917 25.189,-27.472 32.229,-43.686c6.953,-16.016 10.357,-33.629 10.021,-52.917c-0.019,-9.245 -0.892,-18.019 -2.454,-26.353c-1.687,-8.996 -4.22,-17.479 -7.692,-25.453c-7.016,-16.112 -17.762,-30.143 -32.332,-42.082c-15.353,-12.655 -33.751,-21.986 -55.169,-28.114c-18.22,-5.213 -38.631,-8.063 -61.271,-8.539Zm-0,12.152c21.624,-0.455 41.227,1.391 58.815,5.668c20.451,4.973 38.15,13.147 53.101,24.54c14.098,10.808 24.732,23.669 31.759,38.678c3.514,7.508 6.17,15.537 7.854,24.098c1.577,8.018 2.276,16.496 2.258,25.405c-0.32,18.358 -4.032,35.039 -11.236,50.014c-7.174,14.911 -17.848,28.064 -31.891,39.566c-14.508,11.924 -30.911,20.5 -49.101,26.117c-8.688,2.682 -17.787,4.653 -27.312,6.015c-8.978,1.283 -18.324,2.088 -28.076,2.177c0,0 -68.707,1.211 -68.707,1.211c-0.176,-7.695 -0.536,-24.655 -0.835,-46.306c-0.209,-15.164 -0.444,-32.626 -0.46,-50.815c-0.013,-15.047 0.169,-30.587 0.336,-45.733c0.502,-45.59 1.223,-87.584 1.475,-101.695c-0,-0 62.02,1.06 62.02,1.06Z" style="fill:#e6e6e6;"/><path d="M1887.56,1566.37l-0,-16.459l82.291,-41.145l-0,-563.693l-82.291,-41.146l-0,-16.458l503.004,-0l-0,176.926l-16.459,-0l-63.775,-120.351l-247.902,-0l0,243.787l174.869,0l51.431,-85.377l16.459,0l-0,225.272l-16.459,-0l-51.431,-83.32l-174.869,0l0,265.388l276.704,0l63.775,-130.636l16.458,-0l0,187.212l-531.805,-0Z" style="fill:#e6e6e6;fill-rule:nonzero;"/><path d="M1881.49,1566.37c-0,3.355 2.72,6.076 6.076,6.076l531.805,-2.114c2.189,-0 3.962,-1.774 3.962,-3.962l-0.646,-187.212c-0,-1.832 -1.484,-3.316 -3.316,-3.316l-16.458,0.057c-1.245,-0 -2.382,0.71 -2.928,1.829l-62.622,129.245c-11.225,0.037 -73.901,0.238 -136.577,0.299c-61.331,0.059 -122.662,-0.016 -135.784,-0.033c0,-0 0.866,-259.374 0.866,-259.374c-0,0 169.093,0.698 169.093,0.698c-0,0 49.88,81.566 49.88,81.566c0.833,1.351 2.307,2.173 3.893,2.173l16.459,0.069c2.565,-0 4.645,-2.08 4.645,-4.645l0.902,-225.272c-0,-3.063 -2.484,-5.547 -5.547,-5.547l-16.459,-0.052c-1.963,-0 -3.783,1.028 -4.796,2.71l-49.942,82.395c0,-0 -165.676,-0.031 -165.676,-0.031c-0,-0 -0.692,-232.725 -0.692,-232.725c0,-0 240.142,-0.862 240.142,-0.862c0,0 62.984,117.831 62.984,117.831c0.659,1.243 1.951,2.021 3.357,2.021l16.459,-0.059c2.065,-0 3.74,-1.675 3.74,-3.74l-0.535,-176.926c-0,-1.77 -1.435,-3.205 -3.205,-3.205c-0,-0 -125.751,0.2 -251.502,0.089c-125.752,-0.111 -251.502,-0.534 -251.502,-0.534c-2.016,-0 -3.65,1.634 -3.65,3.65l-0.044,16.458c-0,1.399 0.79,2.679 2.042,3.304l79.996,40.265c-0,0 -1.757,557.719 -1.757,557.719c0,0 -79.279,39.312 -79.279,39.312c-2.04,1.02 -3.328,3.104 -3.328,5.384l-0.056,16.459Zm12.132,-6.053l-0.023,-6.705c-0,-0 78.814,-39.735 78.814,-39.735c1.936,-0.968 3.159,-2.946 3.159,-5.111l-1.775,-563.693c-0,-1.493 -0.844,-2.857 -2.178,-3.524l-80.365,-39.915c0,0 -0.028,-10.527 -0.028,-10.527c21.536,-0.069 134.689,-0.422 247.842,-0.522c113.956,-0.101 227.913,0.054 248.287,0.084c-0,0 -0.514,169.972 -0.514,169.972c-0,0 -10.43,-0.037 -10.43,-0.037c0,-0 -62.285,-118.568 -62.285,-118.568c-0.744,-1.403 -2.202,-2.281 -3.79,-2.281l-247.902,-0.89c-2.86,0 -5.178,2.319 -5.178,5.179l-0.725,243.787c0,3.26 2.643,5.903 5.903,5.903l174.869,-0.032c2.058,-0 3.966,-1.078 5.028,-2.842l49.583,-82.816c0,-0 7.754,-0.025 7.754,-0.025c-0,-0 0.861,215.081 0.861,215.081c0,0 -9.261,0.039 -9.261,0.039c0,0 -50.42,-80.922 -50.42,-80.922c-0.759,-1.229 -2.1,-1.978 -3.545,-1.978l-174.869,0.722c-1.902,-0 -3.445,1.542 -3.445,3.445l0.886,265.388c-0,1.414 1.146,2.56 2.559,2.56c0,-0 69.176,-0.104 138.352,-0.037c69.176,0.067 138.352,0.305 138.352,0.305c1.08,-0 2.066,-0.616 2.541,-1.587l63.259,-128.612c0.001,0 11.106,0.039 11.106,0.039c0,-0 -0.621,179.93 -0.621,179.93l-521.801,-2.075Z" style="fill:#e6e6e6;"/><path d="M2558.24,1566.37l0,-16.459l82.291,-41.145l0,-563.693l-82.291,-41.146l0,-16.458l503.004,-0l0,176.926l-16.458,-0l-63.776,-120.351l-247.901,-0l-0,243.787l174.868,0l51.432,-85.377l16.458,0l0,225.272l-16.458,-0l-51.432,-83.32l-174.868,0l-0,265.388l276.703,0l63.776,-130.636l16.458,-0l-0,187.212l-531.806,-0Z" style="fill:#e6e6e6;fill-rule:nonzero;"/><path d="M2552.16,1566.37c0,3.355 2.721,6.076 6.076,6.076l531.806,-2.114c2.188,-0 3.962,-1.774 3.962,-3.962l-0.647,-187.212c0,-1.832 -1.484,-3.316 -3.315,-3.316l-16.458,0.057c-1.246,-0 -2.382,0.71 -2.929,1.829l-62.622,129.245c-11.224,0.037 -73.9,0.238 -136.577,0.299c-61.331,0.059 -122.662,-0.016 -135.783,-0.033c-0,-0 0.865,-259.374 0.865,-259.374c0,0 169.093,0.698 169.093,0.698c0,0 49.88,81.566 49.88,81.566c0.834,1.351 2.307,2.173 3.894,2.173l16.458,0.069c2.565,-0 4.645,-2.08 4.645,-4.645l0.902,-225.272c0,-3.063 -2.483,-5.547 -5.547,-5.547l-16.458,-0.052c-1.963,-0 -3.783,1.028 -4.797,2.71l-49.941,82.395c-0,-0 -165.677,-0.031 -165.677,-0.031c0,-0 -0.691,-232.725 -0.691,-232.725c-0,-0 240.142,-0.862 240.142,-0.862c-0,0 62.984,117.831 62.984,117.831c0.659,1.243 1.95,2.021 3.357,2.021l16.458,-0.059c2.066,-0 3.74,-1.675 3.74,-3.74l-0.535,-176.926c0,-1.77 -1.435,-3.205 -3.205,-3.205c0,-0 -125.751,0.2 -251.502,0.089c-125.751,-0.111 -251.502,-0.534 -251.502,-0.534c-2.016,-0 -3.65,1.634 -3.65,3.65l-0.044,16.458c0,1.399 0.791,2.679 2.042,3.304l79.996,40.265c0,0 -1.756,557.719 -1.756,557.719c-0,0 -79.28,39.312 -79.28,39.312c-2.039,1.02 -3.327,3.104 -3.327,5.384l-0.057,16.459Zm12.132,-6.053l-0.023,-6.705c0,-0 78.814,-39.735 78.814,-39.735c1.936,-0.968 3.159,-2.946 3.159,-5.111l-1.775,-563.693c0,-1.493 -0.843,-2.857 -2.178,-3.524l-80.364,-39.915c-0,0 -0.029,-10.527 -0.029,-10.527c21.537,-0.069 134.689,-0.422 247.842,-0.522c113.957,-0.101 227.913,0.054 248.287,0.084c0,0 -0.514,169.972 -0.514,169.972c0,0 -10.429,-0.037 -10.429,-0.037c-0,-0 -62.286,-118.568 -62.286,-118.568c-0.744,-1.403 -2.202,-2.281 -3.79,-2.281l-247.901,-0.89c-2.86,0 -5.179,2.319 -5.179,5.179l-0.724,243.787c-0,3.26 2.643,5.903 5.903,5.903l174.868,-0.032c2.059,-0 3.967,-1.078 5.029,-2.842l49.583,-82.816c-0,-0 7.753,-0.025 7.753,-0.025c0,-0 0.862,215.081 0.862,215.081c-0,0 -9.261,0.039 -9.261,0.039c-0,0 -50.42,-80.922 -50.42,-80.922c-0.759,-1.229 -2.101,-1.978 -3.546,-1.978l-174.868,0.722c-1.903,-0 -3.445,1.542 -3.445,3.445l0.885,265.388c0,1.414 1.146,2.56 2.56,2.56c-0,-0 69.176,-0.104 138.351,-0.037c69.177,0.067 138.352,0.305 138.352,0.305c1.081,-0 2.067,-0.616 2.541,-1.587l63.26,-128.612c0,0 11.106,0.039 11.106,0.039c-0,-0 -0.621,179.93 -0.621,179.93l-521.802,-2.075Z" style="fill:#e6e6e6;"/><path d="M3223.76,1566.37l-0,-16.459l82.291,-41.145l-0,-561.636l-81.263,-43.203l0,-16.458l151.21,-0l392.939,493.746l0,-438.2l-102.863,-39.088l-0,-16.458l256.13,-0l0,16.458l-81.262,40.117l0,627.469l-38.059,-0l-424.828,-535.92l0,474.201l102.864,40.117l0,16.459l-257.159,-0Z" style="fill:#e6e6e6;fill-rule:nonzero;"/><path d="M3217.69,1566.37c0,3.355 2.721,6.076 6.077,6.076l257.159,-0.97c2.82,-0 5.106,-2.286 5.106,-5.106l-0.062,-16.459c0,-2.078 -1.275,-3.944 -3.211,-4.699l-100.079,-38.597c0,-0 -1.525,-462.24 -1.525,-462.24c23.107,28.935 115.461,144.653 207.368,260.726c106.133,134.04 211.667,268.552 211.667,268.552c0.653,0.824 1.648,1.305 2.7,1.305l38.059,0.145c1.983,-0 3.59,-1.608 3.59,-3.59l2.242,-623.824c-0.001,0 78.076,-38.403 78.076,-38.403c2.04,-1.007 3.331,-3.084 3.331,-5.359l0.017,-16.458c-0,-3.31 -2.683,-5.994 -5.994,-5.994l-256.13,0.456c-3.059,0 -5.538,2.48 -5.538,5.538l0.055,16.458c-0,2.277 1.407,4.317 3.535,5.126l99.704,37.51c0,0 1.406,424.173 1.406,424.173c-23.608,-29.453 -107.16,-133.741 -190.409,-238.271c-98.279,-123.403 -196.134,-247.141 -196.134,-247.141c-0.654,-0.821 -1.646,-1.299 -2.695,-1.299l-151.21,-0.372c-2.107,-0 -3.816,1.708 -3.816,3.816l-0.04,16.458c-0,1.426 0.787,2.736 2.046,3.406l78.982,42.24c0,-0 -1.641,555.626 -1.641,555.626c-0,0 -79.253,39.324 -79.253,39.324c-2.041,1.021 -3.33,3.107 -3.33,5.388l-0.053,16.459Zm12.134,-6.054l-0.021,-6.7c-0,-0 78.823,-39.714 78.823,-39.714c1.945,-0.972 3.174,-2.961 3.174,-5.136l-1.659,-561.636c0,-1.51 -0.833,-2.897 -2.166,-3.606l-79.329,-41.924c0,0 -0.025,-10.324 -0.025,-10.324c0,-0 145.733,-0.359 145.733,-0.359c10.789,13.474 103.462,129.239 195.762,245.302c98.191,123.472 195.959,247.279 195.959,247.279c0.971,1.22 2.607,1.693 4.079,1.178c1.472,-0.514 2.457,-1.902 2.457,-3.461l1.452,-438.2c0,-2.125 -1.313,-4.03 -3.3,-4.785l-99.187,-38.067c0,0 0.024,-7.147 0.024,-7.147c-0,0 244.624,0.436 244.624,0.436c0,-0 0.007,6.768 0.007,6.768c-0,0 -77.869,38.583 -77.869,38.583c-1.995,0.985 -3.257,3.017 -3.257,5.241l2.241,623.893c0,-0 -32.807,0.124 -32.807,0.124c-11.3,-14.113 -111.969,-139.874 -212.11,-266.057c-106.282,-133.921 -211.966,-268.315 -211.966,-268.315c-0.809,-1.021 -2.177,-1.419 -3.408,-0.99c-1.232,0.429 -2.057,1.59 -2.057,2.894c0,-0 -1.564,474.201 -1.564,474.201c-0,1.908 1.17,3.62 2.947,4.313l99.488,39.232c-0,0 -0.03,7.905 -0.03,7.905l-246.015,-0.928Z" style="fill:#e6e6e6;"/><path d="M4036.39,1566.37l0,-16.459l82.291,-41.145l0,-563.693l-82.291,-41.146l0,-16.458l260.245,-0c45.26,-0 85.892,5.657 121.894,16.972c36.002,11.315 64.29,28.117 84.862,50.404c20.573,22.287 30.86,50.574 30.86,84.862c-0,34.974 -11.658,67.033 -34.974,96.178c-23.316,29.145 -56.918,49.889 -100.807,62.232c61.033,8.229 108.693,27.259 142.981,57.09c34.288,29.83 51.432,67.718 51.432,113.664c-0,37.717 -11.829,71.49 -35.488,101.321c-23.659,29.83 -56.061,53.318 -97.206,70.462c-41.146,17.144 -87.777,25.716 -139.895,25.716l-283.904,-0Zm236.587,-622.326l-61.718,-0l-0,243.787l67.89,0c48.688,0 86.748,-10.458 114.178,-31.373c27.431,-20.916 41.146,-50.232 41.146,-87.949c-0,-82.977 -53.832,-124.465 -161.496,-124.465Zm39.088,300.362l-100.806,0l-0,265.388l108.006,0c54.175,0 96.692,-12.343 127.551,-37.03c30.86,-24.688 46.289,-56.575 46.289,-95.664c0,-46.631 -15.601,-80.405 -46.803,-101.32c-31.202,-20.916 -75.948,-31.374 -134.237,-31.374Z" style="fill:#e6e6e6;fill-rule:nonzero;"/><path d="M4030.31,1566.37c-0,3.355 2.72,6.076 6.076,6.076l283.904,-1.961c25.251,-0.149 49.213,-2.282 71.889,-6.403c24.601,-4.471 47.688,-11.273 69.262,-20.413c19.904,-8.419 37.763,-18.308 53.592,-29.647c17.219,-12.334 32.042,-26.382 44.45,-42.17c11.939,-15.147 20.86,-31.291 26.843,-48.403c6.011,-17.196 9.06,-35.379 9.061,-54.578c0.096,-23.299 -4.185,-44.568 -12.756,-63.837c-8.646,-19.436 -21.669,-36.842 -39.119,-52.201c-18.685,-16.491 -41.35,-29.811 -67.998,-39.963c-17.729,-6.754 -37.227,-12.099 -58.495,-16.035c14.286,-4.958 27.363,-10.915 39.243,-17.86c18.596,-10.871 34.253,-24.181 47.008,-39.893c11.925,-14.699 20.938,-30.152 27.054,-46.346c6.373,-16.871 9.583,-34.552 9.684,-53.029c0.059,-17.263 -2.403,-33.076 -7.372,-47.433c-5.371,-15.519 -13.673,-29.341 -24.853,-41.486c-11.296,-12.178 -24.8,-22.793 -40.562,-31.768c-13.911,-7.92 -29.583,-14.568 -47.005,-19.959c-19.152,-5.901 -39.578,-10.238 -61.284,-12.976c-19.71,-2.486 -40.477,-3.662 -62.301,-3.527c0,-0 -260.245,1.557 -260.245,1.557c-1.852,0 -3.354,1.502 -3.354,3.354c0,-0 0.075,16.458 0.075,16.458c0,1.242 0.702,2.378 1.813,2.933l80.738,40.083c-0.011,12.079 -0.085,81.283 -0.41,167.238c-0.584,154.162 -1.832,362.196 -2.008,391.181c0,-0.001 -79.529,39.2 -79.529,39.2c-2.026,1.013 -3.306,3.084 -3.306,5.349l-0.095,16.459Zm12.118,-6.035l-0.04,-6.762c0,0 78.73,-39.926 78.73,-39.926c1.849,-0.924 3.017,-2.814 3.017,-4.881c-0,-0 -1.4,-228.541 -2.028,-394.585c-0.359,-94.726 -0.412,-169.108 -0.412,-169.108c-0,-1.143 -0.646,-2.188 -1.668,-2.7l-80.353,-40.461c0,-0 0.051,-11.069 0.051,-11.069c-0.001,-0 256.906,1.537 256.906,1.537c21.355,0.132 41.658,1.536 60.915,4.196c21.017,2.904 40.78,7.314 59.288,13.246c16.527,5.275 31.37,11.741 44.551,19.366c14.606,8.45 27.154,18.335 37.607,29.714c10.091,10.901 17.567,23.328 22.467,37.27c4.627,13.168 6.972,27.676 7.026,43.535c0.094,17.117 -2.718,33.522 -8.428,49.223c-5.544,15.245 -13.796,29.832 -24.781,43.757c-11.814,14.987 -26.415,27.729 -43.802,38.232c-15.781,9.531 -33.834,17.23 -54.159,23.104c-1.942,0.546 -3.233,2.38 -3.091,4.392c0.141,2.012 1.675,3.648 3.674,3.918c27.793,3.547 52.804,9.362 75.031,17.47c25.963,9.472 48.119,22.054 66.453,37.778c16.943,14.569 29.695,31.134 38.19,49.733c8.462,18.527 12.706,39.054 12.799,61.557c0,18.614 -2.896,36.263 -8.774,52.917c-5.846,16.566 -14.641,32.136 -26.299,46.744c-12.223,15.273 -26.775,28.842 -43.666,40.692c-15.583,10.933 -33.158,20.393 -52.704,28.414c-21.221,8.695 -43.896,15.082 -68.026,19.172c-22.297,3.78 -45.834,5.591 -70.612,5.444l-277.862,-1.919Zm269.633,-322.005l-100.806,1.485c-2.536,-0 -4.592,2.055 -4.592,4.591c0,0 0.702,43.641 1.182,95.54c0.192,20.668 0.42,42.644 0.391,63.693c-0.025,18.999 -0.271,37.238 -0.467,53.078c-0.387,31.202 -0.848,53.077 -0.848,53.077c0,2.394 1.94,4.334 4.334,4.334l108.006,1.57c9.539,0.019 18.728,-0.284 27.554,-1.074c14.623,-1.31 28.26,-3.769 40.902,-7.25c24.215,-6.666 44.784,-17.155 61.776,-31.26c15.615,-12.969 27.224,-27.703 34.912,-44.196c7.688,-16.494 11.495,-34.74 11.219,-54.818c0.117,-22.216 -3.362,-41.549 -10.156,-58.101c-7.836,-19.091 -20.152,-34.521 -37.135,-46.256c-14.409,-9.999 -31.74,-17.787 -51.978,-23.45c-23.975,-6.708 -52.058,-10.379 -84.294,-10.963Zm-0,12.152c31.227,-0.566 58.556,1.926 81.989,7.625c19.451,4.731 36.188,11.631 50.213,20.709c16.223,10.545 28.296,24.635 35.988,42.384c6.856,15.823 10.214,34.488 10.327,55.9c-0.262,19.139 -4.244,36.472 -12.073,51.952c-7.73,15.284 -19.236,28.701 -34.373,40.361c-16.465,12.691 -36.222,21.67 -59.189,27.283c-12.144,2.967 -25.186,4.931 -39.139,6.056c-8.509,0.687 -17.352,1.121 -26.543,1.139c0,0 -103.761,1.509 -103.761,1.509c-0.152,-7.884 -0.476,-25.769 -0.76,-48.683c-0.196,-15.84 -0.442,-34.079 -0.467,-53.078c-0.029,-21.048 0.199,-43.025 0.391,-63.693c0.387,-41.843 0.918,-78.318 1.11,-90.882c-0,-0 96.287,1.418 96.287,1.418Zm-39.088,-312.514l-61.718,1.073c-2.764,-0 -5.004,2.24 -5.004,5.003c0,-0 0.923,48.585 1.563,102.39c0.173,14.533 0.343,29.445 0.374,43.882c0.03,13.671 -0.034,26.915 -0.164,39.006c-0.362,33.752 -1.009,58.509 -1.009,58.509c0,2.341 1.898,4.24 4.24,4.24l67.89,1.275c13.009,0.161 25.292,-0.34 36.821,-1.751c8.528,-1.044 16.648,-2.559 24.343,-4.519c22.022,-5.611 40.62,-14.696 55.92,-26.807c14.418,-11.499 25.039,-25.186 31.852,-41.121c6.376,-14.913 9.466,-31.771 9.099,-50.639c-0.08,-8.264 -0.734,-16.11 -1.803,-23.562c-1.175,-8.186 -2.909,-15.89 -5.253,-23.13c-7.668,-23.674 -21.927,-42.283 -42.96,-55.958c-26.912,-17.497 -64.911,-26.883 -114.191,-27.891Zm-0,12.152c47.144,-0.964 83.944,6.207 110.277,22.004c20.219,12.129 34.285,29.249 41.946,51.345c2.395,6.908 4.168,14.303 5.259,22.173c1.002,7.227 1.381,14.857 1.303,22.867c-0.348,17.867 -3.794,33.734 -10.409,47.595c-6.871,14.396 -17.213,26.546 -30.932,36.543c-11.894,8.702 -25.807,15.23 -41.621,19.997c-10.577,3.189 -22.014,5.514 -34.333,7.119c-11.064,1.442 -22.821,2.398 -35.318,2.553c-0,0 -63.756,1.198 -63.756,1.198c-0.198,-8.499 -0.632,-28.8 -0.904,-54.192c-0.13,-12.091 -0.194,-25.335 -0.164,-39.006c0.031,-14.437 0.201,-29.349 0.374,-43.881c0.517,-43.452 1.218,-83.498 1.469,-97.302c0,-0 56.809,0.987 56.809,0.987Z" style="fill:#e6e6e6;"/><path d="M4713.23,1566.37l0,-16.459l82.291,-41.145l0,-563.693l-82.291,-41.146l0,-16.458l265.389,-0c72.005,-0 128.751,14.915 170.239,44.746c41.489,29.83 62.233,70.804 62.233,122.922c-0,38.402 -13.029,72.862 -39.088,103.378c-26.059,30.516 -60.69,53.66 -103.893,69.433l195.441,284.932l67.89,37.031l0,16.459l-148.123,-0l-199.556,-311.678l-95.663,0l-0,253.045l77.148,42.174l-0,16.459l-252.017,-0Zm241.73,-622.326l-66.861,-0l-0,254.073l73.033,0c43.203,0 79.034,-12.172 107.493,-36.516c28.459,-24.345 42.688,-55.375 42.688,-93.092c0,-38.402 -14.058,-68.747 -42.174,-91.034c-28.116,-22.287 -66.176,-33.431 -114.179,-33.431Z" style="fill:#e6e6e6;fill-rule:nonzero;"/><path d="M4707.15,1566.37c0,3.355 2.721,6.076 6.076,6.076l252.017,-1.365c2.602,0 4.711,-2.109 4.711,-4.711l-0.089,-16.459c0,-1.69 -0.922,-3.245 -2.405,-4.056l-75.209,-40.61c0,0 -1.125,-247.545 -1.125,-247.545c-0,-0 91.171,-0.313 91.171,-0.313c5.663,8.767 40.466,62.676 79.17,123.329c55.432,86.867 118.939,187.515 118.939,187.515c0.635,0.991 1.731,1.591 2.908,1.591l148.123,0.81c2.355,0 4.263,-1.908 4.263,-4.262l0.092,-16.459c-0,-1.593 -0.871,-3.059 -2.27,-3.822l-66.656,-36.839c-6.633,-9.809 -64.78,-95.773 -115.792,-170.616c-32.963,-48.363 -62.965,-92.068 -73.793,-107.828c18.437,-7.291 35.27,-15.951 50.494,-25.99c18.515,-12.209 34.658,-26.448 48.439,-42.701c13.218,-15.629 23.146,-32.236 29.789,-49.82c6.81,-18.027 10.186,-37.077 10.091,-57.158c-0.127,-26.717 -5.542,-50.565 -16.214,-71.553c-10.787,-21.213 -26.931,-39.526 -48.501,-54.88c-23.111,-16.451 -50.803,-28.399 -83.108,-35.777c-26.715,-6.101 -56.599,-9.09 -89.656,-8.933c-0,-0 -66.347,0.323 -132.694,0.414c-66.347,0.09 -132.695,-0.053 -132.695,-0.053c-1.719,0 -3.113,1.394 -3.113,3.114l-0.029,16.458c-0,1.191 0.672,2.279 1.737,2.811l80.315,40.409c0,0 -2.203,558.135 -2.203,558.135c0,0 -79.391,39.261 -79.391,39.261c-2.033,1.017 -3.318,3.095 -3.318,5.368l-0.074,16.459Zm12.126,-6.044l-0.031,-6.732c0,0 78.776,-39.821 78.776,-39.821c1.897,-0.948 3.095,-2.887 3.095,-5.007l-2.225,-563.693c-0,-1.278 -0.722,-2.446 -1.865,-3.017l-80.66,-40.078c-0,-0 -0.02,-11.401 -0.02,-11.401c13.858,-0.027 71.716,-0.126 129.575,-0.047c66.347,0.091 132.694,0.414 132.694,0.414c32.435,0.154 61.73,3.34 87.884,9.575c31.082,7.41 57.698,19.132 79.831,35.206c20.166,14.646 35.249,31.985 45.212,52.049c9.836,19.808 14.657,42.267 14.538,67.363c-0.089,18.786 -3.398,36.58 -9.929,53.383c-6.379,16.414 -15.846,31.872 -28.368,46.395c-13.206,15.356 -28.655,28.764 -46.324,40.257c-16.52,10.745 -34.983,19.809 -55.39,27.194c-1.725,0.63 -3.062,2.022 -3.622,3.77c-0.56,1.749 -0.28,3.659 0.759,5.173c0,0 36.561,53.453 78.285,113.898c54.653,79.176 118.112,170.379 118.112,170.379c0.426,0.621 0.993,1.133 1.654,1.493l65.841,35.441c-0,0 0.053,9.61 0.053,9.61c0,0 -141.97,0.777 -141.97,0.777c-8.527,-13.13 -67.923,-104.628 -119.488,-184.897c-42.52,-66.189 -79.67,-124.768 -79.67,-124.768c-0.495,-0.772 -1.348,-1.239 -2.265,-1.239l-95.663,-0.328c-1.667,-0 -3.018,1.351 -3.018,3.017l-1.15,253.045c0,1.524 0.832,2.926 2.169,3.657l74.509,41.234c0,0 -0.049,9.004 -0.049,9.004l-241.28,-1.306Zm235.68,-622.358l-66.861,1.143c-2.725,0 -4.933,2.209 -4.933,4.933c-0,-0 0.949,50.635 1.566,106.711c0.167,15.145 0.349,30.686 0.336,45.733c-0.016,18.189 -0.251,35.651 -0.46,50.815c-0.412,29.874 -0.941,50.814 -0.941,50.814c-0,2.448 1.984,4.433 4.432,4.433l73.033,1.287c10.324,0.094 20.254,-0.421 29.761,-1.765c10.213,-1.444 19.946,-3.77 29.177,-6.9c19.349,-6.558 36.505,-16.661 51.558,-30.06c14.464,-12.917 25.19,-27.472 32.229,-43.686c6.954,-16.016 10.358,-33.629 10.022,-52.917c-0.019,-9.245 -0.892,-18.019 -2.455,-26.353c-1.686,-8.996 -4.219,-17.479 -7.691,-25.453c-7.016,-16.112 -17.762,-30.143 -32.332,-42.082c-15.353,-12.655 -33.751,-21.986 -55.17,-28.114c-18.219,-5.213 -38.631,-8.063 -61.271,-8.539Zm0,12.152c21.625,-0.455 41.228,1.391 58.816,5.668c20.451,4.973 38.15,13.147 53.101,24.54c14.098,10.808 24.732,23.669 31.758,38.678c3.515,7.508 6.171,15.537 7.855,24.098c1.577,8.018 2.276,16.496 2.258,25.405c-0.321,18.358 -4.032,35.039 -11.236,50.014c-7.174,14.911 -17.848,28.064 -31.891,39.566c-14.508,11.924 -30.911,20.5 -49.102,26.117c-8.687,2.682 -17.787,4.653 -27.311,6.015c-8.978,1.283 -18.324,2.088 -28.076,2.177c0,0 -68.708,1.211 -68.708,1.211c-0.175,-7.695 -0.535,-24.655 -0.834,-46.306c-0.209,-15.164 -0.445,-32.626 -0.46,-50.815c-0.013,-15.047 0.169,-30.587 0.335,-45.733c0.502,-45.59 1.224,-87.584 1.476,-101.695c-0,-0 62.019,1.06 62.019,1.06Z" style="fill:#e6e6e6;"/><path d="M5391.1,1566.37l0,-16.459l65.833,-33.945l263.331,-633.64l46.289,-0l259.217,630.554l68.918,37.031l0,16.459l-255.102,-0l0,-16.459l90.52,-34.973l-77.147,-190.298l-249.959,-0l-76.119,190.298l86.405,34.973l0,16.459l-222.186,-0Zm235.558,-298.305l203.671,-0l-101.836,-253.045l-101.835,253.045Z" style="fill:#e6e6e6;fill-rule:nonzero;"/><path d="M5385.03,1566.37c0,3.355 2.721,6.076 6.076,6.076l222.186,-1.329c2.622,-0 4.747,-2.126 4.747,-4.747c0,-0 -0.098,-16.459 -0.098,-16.459c-0,-1.894 -1.149,-3.598 -2.905,-4.309l-82.81,-32.974c0,0 72.884,-184.914 72.884,-184.914c13.092,-0.066 84.895,-0.415 147.871,-0.528c47.145,-0.084 89.343,-0.017 98.256,-0.001c0,0 74.217,185.706 74.217,185.706c-0,-0 -87.358,33.147 -87.358,33.147c-1.601,0.618 -2.656,2.157 -2.656,3.873l-0.101,16.459c0,2.348 1.905,4.252 4.253,4.252l255.102,1.469c3.16,-0 5.721,-2.562 5.721,-5.721l0.077,-16.459c0,-2.135 -1.173,-4.097 -3.053,-5.107l-66.936,-36.18c-4.182,-10.146 -24.093,-58.426 -51.344,-124.003c-49.218,-118.442 -122.435,-293.278 -167.964,-402.707c-25.096,-60.32 -41.813,-100.749 -41.813,-100.749c-0.47,-1.144 -1.585,-1.892 -2.823,-1.892l-46.289,0.028c-1.222,0 -2.324,0.736 -2.792,1.864c-0,0 -34.831,83.579 -79.442,189.908c-74.245,176.961 -175.446,416.988 -185.489,440.807c-0,-0 -64.188,32.703 -64.188,32.703c-1.994,1.029 -3.247,3.085 -3.247,5.328l-0.082,16.459Zm12.123,-6.041l-0.034,-6.793c0,-0 62.403,-32.561 62.403,-32.561c1.182,-0.61 2.11,-1.618 2.621,-2.846c-0,-0 105.427,-257.457 182.363,-444.367c40.067,-97.338 72.446,-175.525 77.785,-188.411c-0,0 42.217,0.026 42.217,0.026c3.53,8.64 18.879,46.238 40.364,99.137c44.599,109.81 115.518,285.591 163.833,404.404c30.189,74.238 51.528,126.241 51.528,126.241c0.528,1.283 1.484,2.343 2.706,3l65.973,35.238c0,-0 0.035,7.284 0.035,7.284c-0,0 -245.128,1.411 -245.128,1.411c0,0 -0.057,-9.358 -0.057,-9.358c0,-0 87.636,-34.469 87.636,-34.469c0.892,-0.345 1.608,-1.033 1.987,-1.911c0.38,-0.877 0.392,-1.87 0.033,-2.756l-78.092,-189.916c-0.39,-0.961 -1.324,-1.591 -2.361,-1.591c-0,0 -46.85,0.097 -99.984,0.002c-69.597,-0.124 -149.975,-0.538 -149.975,-0.538c-1.262,-0 -2.396,0.768 -2.865,1.939l-77.08,189.913c-0.843,2.107 0.176,4.499 2.279,5.35l83.285,34.261c-0,0 -0.052,8.576 -0.052,8.576l-211.42,-1.265Zm223.874,-294.533c-0.753,1.873 -0.528,3.997 0.602,5.67c1.13,1.673 3.017,2.675 5.035,2.675c0,0 82.563,-1.762 142.57,-2.543c34.224,-0.446 61.101,-0.501 61.101,-0.501c1.007,0 1.949,-0.5 2.513,-1.335c0.564,-0.835 0.676,-1.895 0.3,-2.829c-0,-0 -4.683,-11.857 -11.855,-30.513c-11.644,-30.287 -29.339,-78.652 -46.555,-122.397c-4.131,-10.496 -8.313,-20.692 -12.336,-30.319c-16.666,-39.886 -30.114,-70.209 -30.114,-70.209c-0.622,-1.546 -2.122,-2.559 -3.789,-2.559c-1.666,0 -3.166,1.013 -3.788,2.559c0,0 -9.531,26.018 -23.11,61.267c-2.505,6.503 -5.17,13.311 -7.987,20.307c-2.652,6.587 -5.453,13.333 -8.314,20.177c-10.53,25.193 -21.847,51.69 -31.948,75.351c-18.007,42.179 -32.325,75.199 -32.325,75.199Zm14.318,-3.626c4.673,-12.519 14.287,-38.214 25.733,-68.464c9.104,-24.062 19.296,-51.011 29.152,-76.476c2.678,-6.917 5.331,-13.723 7.981,-20.311c2.815,-6.997 5.608,-13.753 8.306,-20.179c9.262,-22.06 17.13,-40.324 21.654,-50.751c4.493,12.194 13.01,35.08 23.453,62.052c3.768,9.73 7.814,19.981 12.105,30.412c17.885,43.476 38.625,90.616 51.207,120.525c5.015,11.922 8.81,21.069 10.863,26.039c-9.048,-0.035 -30.71,-0.149 -56.565,-0.485c-48.277,-0.628 -111.151,-1.892 -133.889,-2.362Z" style="fill:#e6e6e6;"/><path d="M6165.67,1566.37l0,-16.459l82.291,-41.145l0,-563.693l-82.291,-41.146l0,-16.458l503.004,-0l-0,176.926l-16.458,-0l-63.776,-120.351l-247.901,-0l-0,243.787l174.868,0l51.432,-85.377l16.458,0l0,225.272l-16.458,-0l-51.432,-83.32l-174.868,0l-0,265.388l276.703,0l63.776,-130.636l16.458,-0l-0,187.212l-531.806,-0Z" style="fill:#e6e6e6;fill-rule:nonzero;"/><path d="M6159.59,1566.37c-0,3.355 2.72,6.076 6.076,6.076l531.806,-2.114c2.188,-0 3.962,-1.774 3.962,-3.962l-0.647,-187.212c0,-1.832 -1.484,-3.316 -3.315,-3.316l-16.458,0.057c-1.246,-0 -2.382,0.71 -2.929,1.829l-62.622,129.245c-11.224,0.037 -73.9,0.238 -136.577,0.299c-61.331,0.059 -122.662,-0.016 -135.783,-0.033c-0,-0 0.865,-259.374 0.865,-259.374c0,0 169.093,0.698 169.093,0.698c0,0 49.88,81.566 49.88,81.566c0.833,1.351 2.307,2.173 3.894,2.173l16.458,0.069c2.565,-0 4.645,-2.08 4.645,-4.645l0.902,-225.272c0,-3.063 -2.483,-5.547 -5.547,-5.547l-16.458,-0.052c-1.964,-0 -3.784,1.028 -4.797,2.71l-49.941,82.395c-0,-0 -165.677,-0.031 -165.677,-0.031c0,-0 -0.691,-232.725 -0.691,-232.725c-0,-0 240.141,-0.862 240.141,-0.862c0.001,0 62.985,117.831 62.985,117.831c0.658,1.243 1.95,2.021 3.357,2.021l16.458,-0.059c2.065,-0 3.74,-1.675 3.74,-3.74l-0.535,-176.926c0,-1.77 -1.435,-3.205 -3.205,-3.205c-0,-0 -125.751,0.2 -251.502,0.089c-125.751,-0.111 -251.502,-0.534 -251.502,-0.534c-2.016,-0 -3.65,1.634 -3.65,3.65l-0.044,16.458c0,1.399 0.791,2.679 2.042,3.304l79.996,40.265c0,0 -1.756,557.719 -1.756,557.719c-0,0 -79.28,39.312 -79.28,39.312c-2.039,1.02 -3.328,3.104 -3.328,5.384l-0.056,16.459Zm12.132,-6.053l-0.023,-6.705c-0,-0 78.814,-39.735 78.814,-39.735c1.936,-0.968 3.159,-2.946 3.159,-5.111c0,-0 -1.775,-563.693 -1.775,-563.693c-0,-1.493 -0.843,-2.857 -2.178,-3.524l-80.365,-39.915c0,0 -0.028,-10.527 -0.028,-10.527c21.537,-0.069 134.689,-0.422 247.842,-0.522c113.957,-0.101 227.913,0.054 248.287,0.084c0,0 -0.514,169.972 -0.514,169.972c0,0 -10.429,-0.037 -10.429,-0.037c-0,-0 -62.286,-118.568 -62.286,-118.568c-0.744,-1.403 -2.202,-2.281 -3.79,-2.281l-247.901,-0.89c-2.86,0 -5.179,2.319 -5.179,5.179l-0.725,243.787c0,3.26 2.643,5.903 5.904,5.903l174.868,-0.032c2.058,-0 3.967,-1.078 5.029,-2.842l49.583,-82.816c-0,-0 7.753,-0.025 7.753,-0.025c0,-0 0.862,215.081 0.862,215.081c-0,0 -9.261,0.039 -9.261,0.039c-0,0 -50.42,-80.922 -50.42,-80.922c-0.759,-1.229 -2.101,-1.978 -3.546,-1.978l-174.868,0.722c-1.903,-0 -3.446,1.542 -3.446,3.445l0.886,265.388c0,1.414 1.146,2.56 2.56,2.56c-0,-0 69.176,-0.104 138.351,-0.037c69.177,0.067 138.352,0.305 138.352,0.305c1.081,-0 2.067,-0.616 2.541,-1.587l63.26,-128.612c-0,0 11.106,0.039 11.106,0.039c-0,-0 -0.621,179.93 -0.621,179.93l-521.802,-2.075Z" style="fill:#e6e6e6;"/></g><path d="M5581.2,2205.59c0,0 139.727,1.98 317.707,6.165c312.096,7.337 741.315,20.475 741.315,20.475c29.704,0 53.82,-24.116 53.82,-53.819c-0,-29.704 -24.116,-53.82 -53.82,-53.82c0,0 -429.219,13.138 -741.315,20.476c-177.98,4.184 -317.707,6.164 -317.707,6.164c-15.001,0 -27.179,12.179 -27.179,27.18c-0,15.001 12.178,27.179 27.179,27.179Z" style="fill:#5db4a6;"/><path d="M1556.75,2151.71c0,0 -139.725,-2.015 -317.706,-6.275c-312.102,-7.47 -741.316,-20.845 -741.316,-20.845c-29.703,0 -53.819,24.116 -53.819,53.82c-0,29.703 24.116,53.819 53.819,53.819c0,0 429.214,-13.374 741.316,-20.844c177.981,-4.26 317.706,-6.276 317.706,-6.276c14.736,0 26.7,-11.963 26.7,-26.699c0,-14.736 -11.964,-26.7 -26.7,-26.7Z" style="fill:#5db4a6;"/><g><path d="M1863.9,2426.14c-29.166,0 -53.958,-2.795 -74.375,-8.385c-20.416,-5.59 -41.805,-13.976 -64.166,-25.156l-7.292,-116.667l12.396,0l37.917,83.854c17.5,13.611 34.27,23.212 50.312,28.802c16.042,5.591 32.327,8.386 48.854,8.386c30.139,-0 53.473,-8.021 70,-24.063c16.528,-16.041 24.792,-38.159 24.792,-66.354c-0,-21.875 -5.104,-39.132 -15.313,-51.771c-10.208,-12.639 -24.67,-23.819 -43.385,-33.541c-18.715,-9.723 -40.712,-20.903 -65.99,-33.542c-22.361,-11.181 -41.076,-22.361 -56.145,-33.542c-15.07,-11.18 -26.615,-24.062 -34.636,-38.646c-8.021,-14.583 -12.031,-32.812 -12.031,-54.687c-0,-16.042 3.889,-31.84 11.667,-47.396c7.777,-15.555 18.35,-29.531 31.718,-41.927c13.368,-12.396 28.438,-22.361 45.209,-29.896c16.771,-7.535 34.149,-11.302 52.135,-11.302c22.361,0 42.656,2.674 60.886,8.021c18.229,5.347 37.066,12.882 56.51,22.604l7.292,113.75l-12.396,0l-32.084,-80.208c-15.069,-12.639 -28.802,-21.511 -41.197,-26.615c-12.396,-5.104 -26.615,-7.656 -42.657,-7.656c-25.277,-0 -45.208,7.656 -59.791,22.969c-14.584,15.312 -21.875,34.392 -21.875,57.239c-0,17.014 3.524,31.476 10.573,43.386c7.048,11.909 17.864,22.847 32.447,32.812c14.584,9.965 33.056,20.295 55.417,30.99c29.167,14.097 53.229,27.465 72.188,40.104c18.958,12.639 33.055,27.101 42.291,43.385c9.236,16.285 13.854,36.823 13.854,61.615c0,20.903 -4.618,39.618 -13.854,56.146c-9.236,16.528 -21.389,30.503 -36.458,41.927c-15.069,11.423 -31.597,20.173 -49.583,26.25c-17.986,6.076 -35.73,9.114 -53.23,9.114Z" style="fill:#e6e6e6;fill-rule:nonzero;"/><path d="M1863.9,2434.82c9.419,-0.103 18.895,-1.023 28.428,-2.796c9.077,-1.688 18.209,-4.121 27.391,-7.334c9.358,-3.274 18.331,-7.229 26.913,-11.89c8.587,-4.663 16.792,-10.009 24.601,-16.063c7.88,-6.109 14.993,-12.87 21.32,-20.308c6.31,-7.417 11.859,-15.485 16.621,-24.227c4.94,-9.068 8.603,-18.723 10.945,-28.987c2.2,-9.639 3.267,-19.807 3.151,-30.513c-0.117,-11.936 -1.254,-22.911 -3.411,-32.928c-2.539,-11.796 -6.462,-22.285 -11.782,-31.469c-5.17,-8.924 -11.723,-17.321 -19.697,-25.164c-7.103,-6.986 -15.323,-13.55 -24.682,-19.666c-10.471,-6.843 -22.463,-13.894 -35.983,-21.145c-11.309,-6.066 -23.687,-12.277 -37.139,-18.63c-0.005,-0.002 -0.011,-0.005 -0.016,-0.008c-10.2,-4.792 -19.59,-9.512 -28.17,-14.164c-10.101,-5.477 -19.075,-10.853 -26.918,-16.134c-6.666,-4.491 -12.538,-9.183 -17.595,-14.105c-5.662,-5.51 -10.303,-11.293 -13.922,-17.344c-3.55,-5.957 -6.174,-12.589 -7.859,-19.901c-1.535,-6.658 -2.29,-13.871 -2.298,-21.634c0.031,-10.722 1.709,-20.581 5.096,-29.558c3.511,-9.303 8.866,-17.642 16.002,-25.046c7.294,-7.536 15.969,-13.057 26.016,-16.58c9.196,-3.224 19.536,-4.752 31.009,-4.653c7.387,0.081 14.365,0.722 20.939,1.915c7.107,1.29 13.729,3.244 19.872,5.853c6.49,2.756 13.343,6.618 20.58,11.553c5.747,3.919 11.719,8.519 17.928,13.789c0.005,0.004 30.737,79.351 30.737,79.351c0.962,2.405 3.291,3.982 5.882,3.982l12.396,0.138c1.788,-0 3.497,-0.74 4.721,-2.045c1.223,-1.304 1.853,-3.057 1.738,-4.842l-6.03,-113.831c-0.176,-2.747 -1.799,-5.194 -4.261,-6.425c-9.548,-4.875 -18.956,-9.222 -28.223,-13.052c-9.969,-4.121 -19.779,-7.633 -29.424,-10.551c-9.887,-2.957 -20.36,-5.164 -31.424,-6.609c-10.1,-1.319 -20.696,-1.992 -31.785,-2.038c-9.661,0.003 -19.161,1.008 -28.49,3.061c-9.201,2.024 -18.235,5.061 -27.106,9.084c-8.759,3.998 -17.076,8.618 -24.937,13.885c-7.891,5.288 -15.331,11.212 -22.315,17.777c-6.903,6.495 -13.099,13.378 -18.553,20.679c-5.599,7.498 -10.434,15.419 -14.506,23.762c-3.984,8.159 -6.982,16.366 -8.976,24.631c-2.093,8.672 -3.114,17.399 -3.031,26.187c0.101,10.666 1.1,20.497 3.002,29.495c2.242,10.598 5.703,20.063 10.39,28.396c4.452,7.916 9.875,15.355 16.302,22.295c5.973,6.451 12.796,12.488 20.494,18.086c8.287,6.027 17.634,12.05 28.054,18.057c8.967,5.169 18.726,10.334 29.284,15.488c0,0 66.22,32.914 66.22,32.914c8.516,4.349 16.139,9.003 22.859,13.982c7.582,5.618 14.015,11.631 19.282,18.061c5.168,6.342 8.95,13.951 11.342,22.82c2.096,7.769 3.127,16.485 3.144,26.135c-0.025,12.768 -1.792,24.238 -5.344,34.402c-3.91,11.187 -9.994,20.768 -18.25,28.743c-8.419,8.09 -18.693,13.962 -30.796,17.665c-10.634,3.254 -22.666,4.822 -36.09,4.754c-8.039,-0.053 -16.014,-0.795 -23.925,-2.219c-7.804,-1.404 -15.542,-3.483 -23.219,-6.219c-8.236,-2.936 -16.658,-6.986 -25.278,-12.127c-7.261,-4.33 -14.652,-9.438 -22.181,-15.316c-0.004,-0.002 -36.761,-82.894 -36.761,-82.894c-1.016,-2.247 -3.253,-3.691 -5.719,-3.691l-12.396,-0.108c-1.763,-0 -3.447,0.728 -4.654,2.013c-1.207,1.285 -1.829,3.011 -1.719,4.77l6.267,116.731c0.165,2.637 1.72,4.986 4.083,6.167c10.868,5.555 21.517,10.446 31.942,14.688c11.404,4.641 22.545,8.492 33.422,11.573c11.394,3.228 24.117,5.619 38.17,7.182c11.822,1.315 24.595,2.028 38.322,2.15Zm0.001,-17.361c-13.108,0.116 -25.316,-0.343 -36.624,-1.399c-13.101,-1.223 -24.98,-3.223 -35.634,-6.04c-10.392,-2.747 -21.047,-6.226 -31.967,-10.448c-8.902,-3.441 -17.978,-7.366 -27.229,-11.781c-0,0 -7.527,-105.535 -7.527,-105.535c-0,0 1.541,-0.013 1.541,-0.013c0,-0 36.81,79.852 36.81,79.852c0.375,0.83 0.947,1.557 1.667,2.116c8.409,6.446 16.647,12 24.719,16.66c9.332,5.388 18.44,9.596 27.326,12.622c8.253,2.811 16.561,4.912 24.928,6.3c8.487,1.407 17.031,2.09 25.635,2.032c14.477,-0.072 27.43,-1.932 38.863,-5.556c13.505,-4.281 24.92,-11.001 34.252,-20.15c9.206,-8.978 15.978,-19.736 20.303,-32.287c3.799,-11.025 5.713,-23.447 5.685,-37.276c0.02,-10.476 -1.114,-19.933 -3.337,-28.381c-2.675,-10.167 -6.949,-18.896 -12.801,-26.205c-5.619,-7.055 -12.5,-13.685 -20.642,-19.894c-7.041,-5.369 -15.037,-10.418 -23.987,-15.147c-0,-0 -65.761,-34.169 -65.761,-34.169c-10.21,-5.228 -19.642,-10.45 -28.299,-15.663c-9.911,-5.967 -18.794,-11.927 -26.653,-17.875c-6.911,-5.23 -13.024,-10.837 -18.35,-16.814c-5.597,-6.28 -10.3,-12.982 -14.126,-20.097c-3.913,-7.278 -6.716,-15.526 -8.478,-24.722c-1.569,-8.18 -2.284,-17.101 -2.192,-26.762c0.072,-7.592 1.1,-15.113 3.05,-22.569c1.884,-7.2 4.655,-14.33 8.277,-21.404c3.791,-7.406 8.273,-14.408 13.402,-21.042c5.02,-6.491 10.676,-12.615 16.975,-18.372c6.41,-5.862 13.228,-11.13 20.439,-15.829c7.177,-4.677 14.753,-8.775 22.726,-12.3c7.804,-3.473 15.748,-6.06 23.823,-7.805c8.144,-1.76 16.425,-2.657 24.852,-2.655c10.351,-0.043 20.245,0.507 29.685,1.649c10.156,1.228 19.784,3.131 28.878,5.746c9.199,2.614 18.562,5.791 28.087,9.541c7.683,3.024 15.472,6.413 23.366,10.171c0,0.001 7.7,102.328 7.7,102.328c-0,-0 -1.205,0.013 -1.205,0.013c-0,0 -31.302,-75.827 -31.302,-75.827c-0.33,-0.825 -0.859,-1.555 -1.539,-2.126c-8.615,-7.066 -16.795,-12.959 -24.547,-17.675c-6.377,-3.88 -12.464,-6.98 -18.267,-9.295c-6.826,-2.724 -14.161,-4.727 -22.016,-5.976c-7.073,-1.124 -14.567,-1.655 -22.486,-1.569c-12.534,0.108 -23.791,2.016 -33.777,5.705c-11.165,4.125 -20.765,10.446 -28.781,19c-7.758,8.243 -13.504,17.507 -17.278,27.78c-3.589,9.772 -5.407,20.462 -5.374,32.094c-0.008,8.331 0.815,16.069 2.432,23.221c1.828,8.079 4.678,15.417 8.557,22.016c3.868,6.605 8.849,12.925 14.929,18.975c5.302,5.276 11.447,10.347 18.45,15.2c7.96,5.52 17.074,11.154 27.343,16.906c8.645,4.843 18.113,9.767 28.402,14.775c13.171,6.514 25.299,12.874 36.371,19.074c13.113,7.343 24.733,14.462 34.866,21.352c8.64,5.875 16.215,12.137 22.732,18.786c7.107,7.25 12.929,14.97 17.472,23.155c4.599,8.284 7.906,17.719 9.973,28.29c1.82,9.311 2.651,19.492 2.543,30.542c-0.105,9.656 -1.25,18.806 -3.422,27.455c-2.259,9 -5.666,17.44 -10.191,25.336c-4.462,7.787 -9.619,14.953 -15.45,21.515c-5.821,6.551 -12.336,12.477 -19.525,17.805c-7.271,5.389 -14.889,10.122 -22.845,14.223c-7.928,4.086 -16.199,7.519 -24.808,10.324c-8.429,2.746 -16.795,4.788 -25.098,6.146c-8.582,1.404 -17.095,2.045 -25.541,1.953Z" style="fill:#e6e6e6;"/><path d="M2200.04,2418.85l0,-14.584l72.917,-21.875l-0,-410.52l-128.333,-0l-41.563,107.187l-13.125,0l0,-141.458l422.917,-0l-0,141.458l-13.125,0l-41.563,-107.187l-128.333,-0l-0,410.52l72.917,21.875l-0,14.584l-202.709,-0Z" style="fill:#e6e6e6;fill-rule:nonzero;"/><path d="M2191.36,2418.85c-0,4.794 3.886,8.68 8.68,8.68l202.709,-2.115c3.625,0 6.565,-2.939 6.565,-6.565l-0.152,-14.584c-0,-2.832 -1.858,-5.329 -4.571,-6.142l-69.108,-20.025c-0.24,-23.562 -1.4,-139.859 -1.913,-242.02c-0.148,-29.386 -0.218,-57.603 -0.173,-82.104c0.072,-38.386 0.332,-67.653 0.436,-78.021c-0,-0 120.645,1.185 120.645,1.185c-0,0 39.167,104.278 39.167,104.278c0.974,2.51 3.39,4.165 6.083,4.165l13.125,0.14c3.68,0 6.664,-2.983 6.664,-6.664l1.408,-141.458c-0,-4.458 -3.614,-8.072 -8.072,-8.072c-0,-0 -55.806,-0.599 -126.875,-0.431c-124.582,0.295 -296.042,2.405 -296.042,2.405c-3.367,0 -6.097,2.73 -6.097,6.098l1.251,141.458c-0,2.677 2.17,4.846 4.846,4.846l13.125,-0.088c1.964,-0 3.726,-1.207 4.436,-3.038l40.103,-104.562c-0,0 120.517,0.441 120.517,0.441c-0,-0 -3.025,399.784 -3.025,399.784c0,0 -67.51,19.632 -67.51,19.632c-3.618,1.085 -6.096,4.416 -6.096,8.193l-0.126,14.584Zm18.224,-8.581l65.646,-20.301c3.346,-1.004 5.637,-4.083 5.637,-7.577l-3.106,-410.52c-0,-2.654 -2.151,-4.804 -4.804,-4.804l-128.333,0.469c-1.79,-0 -3.395,1.099 -4.042,2.767l-40.758,103.976c0.001,-0 -4.999,-0.034 -4.999,-0.034c0,-0 1.154,-130.475 1.154,-130.475c31.456,0.373 179.25,2.071 289.999,2.333c55.102,0.13 101.028,-0.201 118.884,-0.356c-0,0 1.261,126.719 1.261,126.719c0,0 -1.998,0.021 -1.998,0.021c0,0 -41.014,-102.534 -41.014,-102.534c-0.791,-2.042 -2.756,-3.387 -4.946,-3.387l-128.333,1.261c-2.233,-0 -4.044,1.81 -4.044,4.044c0,-0 0.389,33.846 0.479,82.104c0.045,24.501 -0.025,52.718 -0.173,82.104c-0.574,114.308 -1.958,246.312 -1.958,246.312c0,2.516 1.65,4.733 4.059,5.456l68.091,21.129c0,-0 -0.033,3.241 -0.033,3.241l-186.669,-1.948Z" style="fill:#e6e6e6;"/><path d="M2593.06,2418.85l0,-14.584l57.604,-21.875l0,-408.333l-57.604,-21.875l0,-14.583l344.167,-0l-0,122.5l-12.396,-0l-39.375,-88.229l-177.917,-0l0,181.562l127.604,0l29.167,-60.521l12.396,0l-0,153.854l-12.396,0l-29.167,-59.062l-127.604,-0l0,196.875l198.334,-0l39.375,-95.521l12.395,0l0,129.792l-364.583,-0Z" style="fill:#e6e6e6;fill-rule:nonzero;"/><path d="M2584.38,2418.85c-0,4.794 3.886,8.68 8.68,8.68l364.583,-2.937c3.172,-0 5.744,-2.571 5.744,-5.743l-0.905,-129.792c0,-2.672 -2.166,-4.839 -4.839,-4.839l-12.395,0.087c-1.926,-0 -3.661,1.161 -4.394,2.941l-37.758,93.239c-12.832,0.08 -67.814,0.409 -116.223,0.507c-34.333,0.07 -65.36,0.007 -75.696,-0.018c-0,-0 1.233,-188.327 1.233,-188.327c0,0 118.976,0.991 118.976,0.991c-0,-0 27.077,56.015 27.077,56.015c1.098,2.225 3.365,3.634 5.847,3.634l12.396,0.105c3.66,-0 6.626,-2.967 6.626,-6.627l1.255,-153.854c-0,-4.352 -3.529,-7.881 -7.881,-7.881l-12.396,-0.079c-3.057,-0 -5.844,1.75 -7.171,4.504l-27.209,55.616c0,0 -113.99,-0.083 -113.99,-0.083c-0,-0 -0.984,-165.799 -0.984,-165.799c0,0 166.596,-1.206 166.596,-1.206c0,0 38.362,84.31 38.362,84.31c0.866,1.94 2.792,3.19 4.917,3.19l12.396,-0.09c2.924,0 5.294,-2.37 5.294,-5.294l-0.736,-122.5c-0,-2.517 -2.041,-4.558 -4.558,-4.558c-0,-0 -86.042,0.264 -172.084,0.11c-86.043,-0.153 -172.083,-0.724 -172.083,-0.724c-2.856,0 -5.171,2.316 -5.171,5.172l-0.079,14.583c0,2.181 1.348,4.134 3.386,4.908l53.863,20.786c-0,0 -2.527,398.825 -2.527,398.825c0,0 -52.518,19.543 -52.518,19.543c-3.331,1.265 -5.534,4.458 -5.534,8.021l-0.1,14.584Zm284.518,-317.038l1.128,138.384c0,0.001 -1.718,0.015 -1.718,0.015c-0,-0 -27.815,-55.149 -27.815,-55.149c-1.005,-2.035 -3.079,-3.324 -5.35,-3.324l-127.604,1.062c-2.708,0 -4.903,2.196 -4.903,4.904l1.289,196.875c0,1.996 1.618,3.614 3.614,3.614c0,-0 37.174,-0.114 79.334,-0.028c55.223,0.112 119,0.524 119,0.524c1.665,0 3.165,-1.004 3.8,-2.544l38.725,-92.312c0,-0 4.373,0.03 4.373,0.03c0,0 -0.83,119.198 -0.83,119.198l-350.26,-2.822l-0,-0.111c-0,0 51.883,-20.1 51.883,-20.1c3.172,-1.205 5.268,-4.244 5.268,-7.637l-2.586,-408.333c-0,-2.318 -1.433,-4.395 -3.6,-5.218l-54.356,-20.307c0,-0 -0.031,-5.795 -0.031,-5.795c19.838,-0.124 93.36,-0.56 166.884,-0.691c74.305,-0.132 148.609,0.046 167.499,0.098c-0,-0 -0.678,112.622 -0.678,112.622c0,0 -3.601,-0.026 -3.601,-0.026c0,0 -37.35,-85.35 -37.35,-85.35c-0.979,-2.193 -3.156,-3.606 -5.557,-3.606l-177.917,-1.288c-4.072,0 -7.373,3.301 -7.373,7.374l-1.077,181.562c-0,4.667 3.783,8.451 8.45,8.451l127.604,-0.094c3.21,0 6.135,-1.838 7.529,-4.729l26.226,-55.249Z" style="fill:#e6e6e6;"/><path d="M3042.23,2418.85l-0,-14.584l43.75,-18.229l185.937,-452.083l25.521,-0l185.208,451.354l45.938,18.958l-0,14.584l-169.896,-0l0,-14.584l62.708,-18.958l-56.875,-142.187l-180.104,-0l-56.146,142.916l62.709,18.229l-0,14.584l-148.75,-0Zm156.041,-210l152.396,-0l-76.562,-191.042l-75.834,191.042Z" style="fill:#e6e6e6;fill-rule:nonzero;"/><path d="M3033.55,2418.85c0,4.794 3.887,8.68 8.681,8.68l148.75,-1.797c3.801,0 6.883,-3.082 6.883,-6.883c0,-0 -0.176,-14.584 -0.176,-14.584c0,-2.983 -1.97,-5.607 -4.835,-6.44l-56.697,-15.77c0,-0 51.293,-134.584 51.293,-134.584c12.532,-0.126 61.683,-0.6 105.032,-0.736c32.101,-0.101 61.018,0.008 69.522,0.046c0.001,-0 52.409,135.069 52.409,135.069c0,-0 -57.477,16.613 -57.477,16.613c-2.558,0.774 -4.307,3.13 -4.307,5.802l-0.181,14.584c0,3.447 2.795,6.242 6.242,6.242l169.896,1.958c4.529,0 8.2,-3.671 8.2,-8.2l0.129,-14.584c0,-3.372 -2.034,-6.412 -5.151,-7.699l-42.55,-17.793c-4.2,-10.175 -17.835,-43.139 -36.147,-86.798c-30.453,-72.6 -73.963,-174.697 -106.355,-251.676c-26.193,-62.246 -45.252,-107.996 -45.252,-107.996c-0.669,-1.63 -2.257,-2.695 -4.02,-2.695l-25.521,0.028c-1.75,-0 -3.327,1.056 -3.992,2.675c-0,-0 -24.651,59.608 -56.415,135.364c-51.383,122.55 -121.189,287.418 -131.658,312.137c0,-0 -40.905,16.575 -40.905,16.575c-3.18,1.325 -5.252,4.433 -5.252,7.878l-0.146,14.584Zm17.276,-8.577l-0.004,-0.401c-0,-0 38.263,-16.385 38.263,-16.385c1.977,-0.824 3.545,-2.399 4.36,-4.38c-0,0 73.454,-184.079 127.318,-317.625c26.913,-66.725 48.987,-120.807 54.053,-133.208c0,0 19.69,0.022 19.69,0.022c4.314,10.686 21.041,52.156 42.561,105.961c31.014,77.544 71.759,180.776 101.079,253.841c21.359,53.226 36.581,90.46 36.581,90.46c0.867,2.114 2.543,3.793 4.654,4.664l40.924,16.666c0,0 0.008,0.857 0.008,0.857c-0,-0 -155.46,1.792 -155.46,1.792c0,-0 -0.048,-3.846 -0.048,-3.846c0,0.001 58.115,-18.346 58.115,-18.346c1.412,-0.427 2.58,-1.427 3.219,-2.756c0.639,-1.329 0.691,-2.866 0.144,-4.235l-58.35,-141.597c-0.558,-1.395 -1.909,-2.309 -3.411,-2.309c0,-0 -33.756,0.178 -72.041,0.058c-50.149,-0.158 -108.063,-0.767 -108.063,-0.767c-1.801,-0 -3.419,1.103 -4.078,2.779l-57.605,142.344c-0.611,1.556 -0.539,3.298 0.198,4.799c0.738,1.501 2.073,2.622 3.679,3.089l57.602,17.472c-0,0 -0.032,2.662 -0.032,2.662l-133.356,-1.611Zm139.378,-204.626c-1.061,2.674 -0.729,5.699 0.887,8.079c1.616,2.38 4.305,3.804 7.181,3.804c0,0 61.75,-2.492 106.678,-3.615c25.607,-0.641 45.718,-0.739 45.718,-0.739c1.436,0 2.779,-0.712 3.584,-1.902c0.805,-1.189 0.967,-2.701 0.432,-4.034c0,0 -3.481,-8.966 -8.681,-23.127c-8.448,-23.005 -20.703,-59.885 -33.412,-93.038c-3.047,-7.947 -6.223,-15.634 -9.33,-22.868c-12.888,-30.009 -23.728,-52.574 -23.728,-52.574c-0.89,-2.221 -3.044,-3.676 -5.437,-3.672c-2.393,0.004 -4.542,1.466 -5.425,3.69c0,-0 -6.537,19.829 -16.29,46.608c-1.798,4.935 -3.733,10.094 -5.83,15.377c-1.974,4.974 -4.109,10.048 -6.302,15.19c-8.077,18.944 -16.885,38.781 -24.752,56.518c-14.033,31.635 -25.293,56.303 -25.293,56.303Zm20.041,-5.008c3.623,-10.551 9.475,-27.497 16.303,-46.908c6.439,-18.304 13.634,-38.781 20.748,-58.108c1.931,-5.246 3.857,-10.403 5.831,-15.376c2.098,-5.284 4.228,-10.365 6.304,-15.19c5.41,-12.569 10.261,-23.464 13.842,-31.394c3.381,9.881 8.441,24.329 14.553,40.73c2.749,7.377 5.76,15.131 9.045,22.982c13.704,32.754 30.311,67.891 40.088,90.362c3.056,7.025 5.509,12.776 7.182,16.734c-7.939,-0.079 -22.38,-0.265 -39.191,-0.686c-32.789,-0.82 -74.539,-2.369 -94.705,-3.146Z" style="fill:#e6e6e6;"/><path d="M3600.04,2418.85l0,-14.584l58.334,-21.875l-0,-408.333l-58.334,-21.875l0,-14.583l195.417,-0c53.958,-0 99.774,9.479 137.448,28.437c37.673,18.959 66.354,44.966 86.042,78.021c19.687,33.056 29.531,70.486 29.531,112.292c-0,52.014 -10.938,97.708 -32.813,137.083c-21.875,39.375 -52.257,70.122 -91.146,92.24c-38.888,22.118 -83.611,33.177 -134.166,33.177l-190.313,-0Zm188.125,-446.979l-72.916,-0l-0,412.708l80.937,-0c38.889,-0 72.795,-8.629 101.719,-25.885c28.923,-17.257 51.285,-41.32 67.083,-72.188c15.799,-30.868 23.698,-66.719 23.698,-107.552c0,-41.806 -7.778,-78.264 -23.333,-109.375c-15.556,-31.111 -38.281,-55.174 -68.177,-72.188c-29.896,-17.013 -66.233,-25.52 -109.011,-25.52Z" style="fill:#e6e6e6;fill-rule:nonzero;"/><path d="M3591.36,2418.85c-0,4.794 3.886,8.68 8.68,8.68l190.313,-2.737c24.919,-0.306 48.409,-3.225 70.481,-8.769c23.546,-5.914 45.478,-14.781 65.789,-26.654c19.705,-11.434 37.163,-25.102 52.553,-40.84c15.313,-15.658 28.599,-33.373 39.668,-53.331c11.74,-20.634 20.439,-43.042 26.287,-67.18c5.423,-22.38 8.382,-46.254 8.755,-71.669c0.309,-20.959 -1.844,-40.871 -6.392,-59.756c-4.787,-19.878 -12.274,-38.597 -22.403,-56.195c-10.237,-17.737 -22.941,-33.597 -38.168,-47.52c-14.468,-13.229 -31.24,-24.657 -50.209,-34.411c-20.717,-10.362 -43.777,-18.08 -69.257,-22.787c-22.185,-4.099 -46.198,-5.897 -72,-5.618c-0,-0 -195.417,2.499 -195.417,2.499c-2.782,0 -5.037,2.256 -5.037,5.038l0.152,14.583c0,2.036 1.263,3.859 3.17,4.574l55.679,20.358c0.005,12.309 -0.005,60.426 -0.413,119.443c-0.741,107.357 -2.539,250.762 -2.917,280.355c-0,0.001 -53.62,19.389 -53.62,19.389c-3.32,1.245 -5.519,4.419 -5.519,7.964l-0.175,14.584Zm17.258,-8.557l-0.003,-0.234c0,0 52.487,-20.392 52.487,-20.392c3.033,-1.137 5.042,-4.037 5.042,-7.276c-0,0 -2.158,-165.544 -2.988,-285.833c-0.474,-68.617 -0.411,-122.5 -0.411,-122.5c0,-1.822 -1.13,-3.453 -2.836,-4.093l-54.949,-21.124c0,0 0.065,-6.14 0.065,-6.14c-0,0 190.432,2.436 190.432,2.436c24.729,0.267 47.667,2.642 68.876,6.851c23.8,4.723 45.41,11.821 64.763,21.619c17.782,8.754 33.5,19.153 47.217,31.141c14.369,12.558 26.575,26.831 36.489,42.97c9.975,16.194 17.5,33.516 22.534,51.996c4.857,17.826 7.439,36.7 7.734,56.636c0.362,24.646 -1.723,47.893 -6.441,69.721c-5.083,23.521 -13.177,45.375 -24.143,65.596c-10.766,19.347 -23.556,36.636 -38.554,51.686c-15.03,15.084 -32.264,27.893 -51.516,38.622c-19.823,10.965 -41.135,19.014 -63.939,24.159c-21.398,4.828 -44.105,7.068 -68.124,6.773l-181.735,-2.614Zm179.547,-447.103l-72.916,1.239c-4.111,-0 -7.442,3.331 -7.442,7.442c-0,-0 1.587,82.249 2.598,173.337c0.273,24.602 0.568,49.846 0.536,74.288c-0.03,23.145 -0.361,45.564 -0.648,66.033c-0.803,57.138 -1.812,99.05 -1.812,99.05c0,3.738 3.03,6.767 6.768,6.767l80.937,1.397c19.412,0.133 37.676,-1.679 54.684,-5.87c18.498,-4.559 35.48,-11.859 51.067,-21.422c15.004,-9.376 28.26,-20.47 39.712,-33.38c11.195,-12.622 20.707,-26.912 28.481,-42.933c8.093,-16.672 13.948,-34.669 17.629,-54.015c3.349,-17.604 4.943,-36.313 4.617,-56.169c0.014,-20.168 -1.879,-39.086 -5.324,-56.823c-3.814,-19.634 -9.591,-37.839 -17.67,-54.567c-7.697,-16.098 -17.29,-30.396 -28.714,-42.958c-11.556,-12.708 -25.018,-23.592 -40.369,-32.703c-16.187,-9.665 -34.293,-16.865 -54.313,-21.681c-17.76,-4.272 -37.027,-6.597 -57.821,-7.032Zm0,17.361c19.56,-0.409 37.76,1 54.619,4.318c18.773,3.695 35.866,9.666 51.268,18.011c14.628,7.975 27.561,17.661 38.766,29.127c11.204,11.464 20.707,24.654 28.506,39.587c8.21,15.872 14.473,33.179 18.414,52.013c3.606,17.228 5.244,35.7 5.258,55.347c-0.316,19.25 -2.362,37.346 -6.247,54.279c-4.189,18.26 -10.54,35.12 -18.902,50.642c-7.884,14.626 -17.311,27.575 -28.241,38.904c-11.014,11.416 -23.599,21.114 -37.733,29.157c-14.424,8.366 -30.147,14.305 -47.038,18.368c-15.797,3.8 -32.642,5.988 -50.649,6.11c0,0 -74.328,1.283 -74.328,1.283c-0.315,-14.126 -1.044,-48.751 -1.654,-92.168c-0.287,-20.469 -0.617,-42.888 -0.648,-66.033c-0.031,-24.441 0.263,-49.686 0.536,-74.288c0.83,-74.692 2.046,-143.442 2.457,-165.771c0,-0 65.616,1.114 65.616,1.114Z" style="fill:#e6e6e6;"/><path d="M4143.27,2418.85l0,-14.584l57.605,-21.875l-0,-408.333l-57.605,-21.875l0,-14.583l172.084,-0l-0,14.583l-57.604,21.875l-0,408.333l57.604,21.875l-0,14.584l-172.084,-0Z" style="fill:#e6e6e6;fill-rule:nonzero;"/><path d="M4134.59,2418.85c-0,4.794 3.886,8.68 8.68,8.68l172.084,-2.907c3.188,0 5.773,-2.585 5.773,-5.773c0,-0 -0.212,-14.584 -0.212,-14.584c-0,-2.309 -1.428,-4.378 -3.587,-5.198l-54.981,-19.967c-0.207,-10.857 -0.846,-47.543 -1.005,-94.71c-0.069,-20.252 0.033,-42.436 0.271,-65.333c1.038,-99.858 3.398,-213.259 3.958,-239.419c0,0 52.816,-19.468 52.816,-19.468c3.318,-1.26 5.512,-4.439 5.512,-7.988l-0.003,-14.583c0,-4.718 -3.824,-8.543 -8.542,-8.543c-0,0 -32.253,0.18 -68.834,0.622c-47.921,0.58 -103.25,1.564 -103.25,1.564c-3.51,0 -6.356,2.846 -6.356,6.357l0.221,14.583c0,2.548 1.575,4.831 3.957,5.736l54.649,19.808c0.159,9.239 0.563,35.21 0.748,69.831c0.08,14.94 0.054,31.491 -0.018,49c-0.111,27.091 -0.373,56.476 -0.673,85.75c-0.891,86.898 -2.131,172.792 -2.455,194.725c0,0 -53.081,19.312 -53.081,19.312c-3.29,1.249 -5.465,4.402 -5.465,7.921l-0.207,14.584Zm17.24,-8.536l-0.005,-0.322c0,0 51.752,-20.485 51.752,-20.485c2.955,-1.123 4.909,-3.955 4.909,-7.116c-0,0 -1.502,-99.368 -2.535,-200.083c-0.3,-29.274 -0.562,-58.659 -0.673,-85.75c-0.072,-17.509 -0.098,-34.06 -0.018,-49c0.233,-43.613 0.814,-73.5 0.814,-73.5c-0,-2.159 -1.335,-4.094 -3.354,-4.861l-53.252,-21.152c0,-0 0.061,-3.98 0.061,-3.98c15.797,0.273 58.752,0.993 96.991,1.456c25.187,0.304 48.321,0.484 60.29,0.567c-0,-0 -0,0.261 -0,0.261c0,0 -51.88,20.284 -51.88,20.284c-3.084,1.171 -5.123,4.127 -5.123,7.425c0,0 2.897,131.281 4.079,245c0.238,22.897 0.34,45.081 0.271,65.333c-0.191,56.526 -1.07,98 -1.07,98c0,1.937 1.197,3.672 3.007,4.359l53.644,21.271c0,0 -0.072,4.959 -0.072,4.959l-157.836,-2.666Z" style="fill:#e6e6e6;"/><path d="M4411.61,2418.85l-0,-14.584l57.604,-21.875l-0,-407.604l-56.875,-22.604l-0,-14.583l102.083,-0l285.834,371.146l-0,-335.417l-68.542,-21.146l-0,-14.583l167.708,-0l0,14.583l-57.604,21.875l0,448.438l-22.604,-0l-307.708,-397.396l-0,356.562l70,22.604l-0,14.584l-169.896,-0Z" style="fill:#e6e6e6;fill-rule:nonzero;"/><path d="M4402.93,2418.85c0,4.794 3.887,8.68 8.681,8.68l169.896,-1.271c4.092,0 7.409,-3.317 7.409,-7.409c0,-0 -0.109,-14.584 -0.109,-14.584c0,-3.167 -2.043,-5.973 -5.057,-6.947l-65.524,-20.62c-0.001,-0 -2.234,-338.769 -2.234,-338.769c21.702,27.634 84.417,107.616 146.552,188.049c76.818,99.438 152.744,199.558 152.744,199.558c0.94,1.214 2.39,1.926 3.927,1.926l22.604,0.17c2.838,0 5.138,-2.3 5.138,-5.137l3.163,-442.649c-0,-0 52.328,-19.699 52.328,-19.699c3.308,-1.256 5.496,-4.426 5.496,-7.965l0.042,-14.583c-0,-4.729 -3.834,-8.563 -8.563,-8.563l-167.708,0.548c-4.426,0 -8.014,3.589 -8.014,8.015l0.069,14.583c-0,3.486 2.272,6.565 5.603,7.592l63.443,19.121c-0.001,0 2.065,314.404 2.065,314.404c-21.913,-28.059 -78.216,-100.256 -134.128,-172.756c-71.521,-92.739 -142.4,-185.971 -142.4,-185.971c-0.939,-1.219 -2.391,-1.934 -3.93,-1.934l-102.083,-0.498c-3.015,0 -5.459,2.444 -5.459,5.459l-0.071,14.583c0,2.266 1.382,4.302 3.488,5.139l53.065,21.391c0,-0 -2.33,397.961 -2.33,397.961c-0,0 -52.472,19.563 -52.472,19.563c-3.335,1.266 -5.54,4.462 -5.54,8.029l-0.091,14.584Zm17.307,-8.616l-0,-0.094c-0,-0 51.895,-20.068 51.895,-20.068c3.19,-1.211 5.299,-4.268 5.299,-7.681l-2.387,-407.604c-0,-2.388 -1.457,-4.534 -3.676,-5.416l-53.516,-20.968c-0.001,0 -0.027,-5.371 -0.027,-5.371c0,-0 94.185,-0.46 94.185,-0.46c10.726,13.758 76.59,98.286 141.917,183.229c71.397,92.836 142.151,186.163 142.151,186.163c1.378,1.789 3.741,2.502 5.878,1.774c2.138,-0.727 3.575,-2.735 3.575,-4.992l2.203,-335.417c0,-3.281 -2.138,-6.178 -5.273,-7.145l-62.773,-19.816c-0,0 0.003,-0.728 0.003,-0.728c0,0 151.195,0.494 151.195,0.494c-0,0 0,0.196 0,0.196c0,-0.001 -52.028,19.929 -52.028,19.929c-3.239,1.23 -5.381,4.334 -5.381,7.799l3.168,443.339c0,0 -15.039,0.114 -15.039,0.114c-11.27,-14.268 -82.721,-104.789 -153.429,-195.894c-77.039,-99.264 -153.19,-199.212 -153.19,-199.212c-1.153,-1.488 -3.123,-2.078 -4.904,-1.47c-1.781,0.609 -2.978,2.283 -2.978,4.165l-2.35,356.562c0,2.93 1.889,5.525 4.677,6.425l64.735,21.439c-0,-0 -0.014,1.859 -0.014,1.859l-153.916,-1.151Z" style="fill:#e6e6e6;"/><path d="M5225.36,2426.14c-46.667,0 -88.351,-10.208 -125.052,-30.625c-36.702,-20.416 -65.504,-48.246 -86.407,-83.489c-20.902,-35.243 -31.354,-75.469 -31.354,-120.677c0,-37.431 6.684,-71.945 20.052,-103.542c13.368,-31.597 31.719,-59.184 55.052,-82.76c23.334,-23.577 50.556,-41.927 81.667,-55.052c31.111,-13.125 64.167,-19.688 99.167,-19.688c25.764,0 47.517,1.458 65.26,4.375c17.743,2.917 33.785,7.049 48.125,12.396c14.34,5.347 28.316,11.424 41.927,18.229l3.646,117.396l-13.125,-0l-39.375,-81.667c-20.417,-14.583 -38.646,-24.913 -54.687,-30.989c-16.042,-6.077 -34.271,-9.115 -54.688,-9.115c-39.375,0 -73.889,8.75 -103.542,26.25c-29.652,17.5 -52.864,41.198 -69.635,71.094c-16.771,29.896 -25.156,63.073 -25.156,99.531c-0,48.611 9.236,90.174 27.708,124.688c18.472,34.514 43.142,61.007 74.011,79.479c30.868,18.472 64.774,27.708 101.718,27.708c17.014,0 33.42,-1.094 49.219,-3.281c15.799,-2.188 32.205,-6.684 49.219,-13.49l-0,-127.604l-64.167,-23.333l0,-14.584l173.542,0l-0,14.584l-52.5,23.333l-0,122.5c-20.903,17.986 -47.153,32.205 -78.75,42.656c-31.597,10.452 -62.222,15.677 -91.875,15.677Z" style="fill:#e6e6e6;fill-rule:nonzero;"/><path d="M5225.36,2434.82c15.742,-0.143 31.737,-1.699 47.984,-4.701c15.227,-2.814 30.678,-6.877 46.351,-12.218c15.42,-5.254 29.586,-11.368 42.498,-18.356c14.321,-7.749 27.114,-16.549 38.373,-26.414c1.551,-1.335 2.443,-3.279 2.443,-5.325l-1.039,-118.68c-0,0 48.754,-22.114 48.754,-22.114c1.992,-0.885 3.275,-2.86 3.275,-5.039l-0.111,-14.584c-0,-2.984 -2.419,-5.403 -5.403,-5.403l-173.542,1.257c-2.29,-0 -4.147,1.856 -4.147,4.146c0,0 0.084,14.584 0.084,14.584c-0,1.709 1.069,3.235 2.674,3.819l61.854,22.121c0,0 -0.006,122.458 -0.006,122.458c-7.294,2.785 -14.47,5.14 -21.532,7.06c-8.34,2.267 -16.518,3.921 -24.532,4.976c-7.938,1.045 -16.029,1.811 -24.274,2.293c-7.987,0.466 -16.118,0.66 -24.392,0.597c-17.922,-0.163 -35.09,-2.548 -51.509,-7.147c-16.593,-4.648 -32.408,-11.579 -47.459,-20.773c-15.233,-9.305 -28.866,-20.637 -40.917,-33.982c-11.541,-12.781 -21.608,-27.422 -30.235,-43.903c-9.305,-17.778 -16.066,-37.446 -20.336,-58.993c-3.84,-19.383 -5.636,-40.28 -5.429,-62.693c0.136,-17.282 2.234,-33.779 6.262,-49.502c4.136,-16.145 10.337,-31.462 18.602,-45.957c8.074,-14.277 17.704,-27.047 28.838,-38.36c11.105,-11.283 23.717,-21.114 37.875,-29.457c14.61,-8.702 30.475,-15.158 47.585,-19.411c16.109,-4.003 33.311,-6.076 51.619,-6.181c9.321,-0.065 18.168,0.528 26.544,1.791c9.04,1.363 17.527,3.486 25.454,6.417c8.458,3.128 17.554,7.475 27.29,13.04c7.774,4.443 15.948,9.646 24.522,15.614c0.005,0.004 39.196,79.672 39.196,79.672c1.063,2.205 3.295,3.607 5.744,3.607l13.125,-0.104c1.698,0 3.323,-0.688 4.504,-1.907c1.182,-1.218 1.819,-2.864 1.766,-4.561l-4.576,-117.367c-0.061,-1.963 -1.194,-3.734 -2.951,-4.612c-6.926,-3.395 -13.943,-6.606 -21.051,-9.629c-7.085,-3.013 -14.259,-5.844 -21.525,-8.488c-7.637,-2.797 -15.74,-5.259 -24.313,-7.379c-7.868,-1.945 -16.131,-3.606 -24.791,-4.978c-8.007,-1.269 -16.815,-2.236 -26.424,-2.919c-11.951,-0.851 -25.149,-1.265 -39.597,-1.206c-17.626,0.018 -34.76,1.698 -51.418,4.965c-16.985,3.331 -33.479,8.315 -49.468,15.024c-15.777,6.597 -30.572,14.524 -44.402,23.755c-13.973,9.326 -26.959,19.99 -38.949,32.004c-12.056,12.057 -22.816,25.166 -32.305,39.311c-9.326,13.904 -17.415,28.814 -24.263,44.737c-7.082,16.469 -12.377,33.728 -15.897,51.776c-3.361,17.229 -5.092,35.177 -5.202,53.847c-0.146,22.552 2.282,43.904 7.221,64.07c5.233,21.362 13.309,41.39 24.218,60.095c10.715,18.37 23.521,34.805 38.39,49.333c14.687,14.35 31.404,26.817 50.142,37.42c19.412,10.986 40.208,19.18 62.38,24.615c20.911,5.125 43.053,7.767 66.428,7.939Zm-0,-17.361c-22.005,0.162 -42.885,-2.003 -62.639,-6.539c-20.804,-4.777 -40.359,-12.153 -58.657,-22.157c-17.722,-9.69 -33.579,-21.149 -47.552,-34.408c-14.166,-13.442 -26.413,-28.71 -36.73,-45.818c-10.526,-17.457 -18.411,-36.198 -23.614,-56.239c-4.971,-19.146 -7.515,-39.464 -7.655,-60.95c-0.105,-17.923 1.349,-35.172 4.381,-51.747c3.164,-17.306 8.035,-33.878 14.625,-49.714c6.408,-15.399 14.012,-29.844 22.838,-43.322c8.981,-13.713 19.216,-26.428 30.698,-38.151c11.452,-11.668 23.865,-22.055 37.258,-31.138c13.287,-9.01 27.532,-16.74 42.724,-23.207c15.41,-6.536 31.305,-11.457 47.699,-14.688c16.11,-3.174 32.698,-4.715 49.749,-4.698c11.644,0.044 22.461,0.374 32.451,1.022c11.857,0.77 22.539,1.983 32.049,3.603c8.366,1.426 16.344,3.126 23.936,5.097c8.19,2.126 15.925,4.573 23.209,7.338c7.055,2.694 14.017,5.569 20.89,8.622c5.904,2.622 11.74,5.378 17.51,8.265c0.001,0.001 2.492,107.748 2.492,107.748c0,-0 -2.649,-0.021 -2.649,-0.021c0,-0 -37.039,-78.403 -37.039,-78.403c-0.518,-1.073 -1.298,-1.999 -2.267,-2.692c-9.391,-6.82 -18.334,-12.739 -26.823,-17.77c-10.433,-6.184 -20.205,-11.02 -29.299,-14.547c-8.825,-3.423 -18.287,-5.973 -28.388,-7.65c-9.135,-1.517 -18.799,-2.3 -28.989,-2.371c-19.678,-0.112 -38.197,1.9 -55.552,6.034c-18.801,4.479 -36.234,11.464 -52.327,20.874c-15.459,9.138 -29.255,19.875 -41.34,32.257c-12.111,12.407 -22.506,26.457 -31.218,42.113c-8.769,15.891 -15.299,32.639 -19.536,50.265c-4.08,16.973 -6.059,34.752 -5.913,53.339c0.217,23.467 2.516,45.306 6.911,65.523c4.95,22.77 12.524,43.493 22.741,62.167c9.443,17.259 20.381,32.537 32.832,45.828c13.037,13.916 27.707,25.673 44.037,35.245c16.04,9.401 32.841,16.404 50.418,20.984c17.274,4.501 35.288,6.683 54.051,6.513c8.465,-0.065 16.778,-0.397 24.941,-0.991c8.438,-0.614 16.715,-1.503 24.831,-2.682c8.337,-1.212 16.836,-3.054 25.498,-5.526c8.04,-2.295 16.223,-5.128 24.545,-8.514c1.408,-0.563 2.331,-1.926 2.331,-3.443l-0.007,-127.604c0,-1.556 -0.974,-2.946 -2.436,-3.478l-61.352,-22.679c-0,-0 0.043,-7.583 0.043,-7.583c0,0 163.975,1.187 163.975,1.187c-0,0 -0.043,5.595 -0.043,5.595c0,-0 -49.43,21.52 -49.43,21.52c-2.15,0.955 -3.535,3.086 -3.535,5.438l-1.044,119.177c-10.044,8.18 -21.299,15.48 -33.75,21.931c-12.317,6.381 -25.808,11.907 -40.465,16.609c-14.995,4.811 -29.756,8.417 -44.284,10.832c-15.305,2.543 -30.348,3.738 -45.13,3.604Z" style="fill:#e6e6e6;"/></g></g></svg>